{
.appVersion = "871";
DisplayStrings = (
/uogonek
);
customParameters = (
{
name = glyphOrder;
value = (
".notdef",
space,
indianrupee,
zerowidthnonjoiner,
zerowidthjoiner,
dottedcircle,
exclam,
quotedbl,
numbersign,
dollar,
percent,
ampersand,
quotesingle,
parenleft,
parenright,
asterisk,
plus,
comma,
hyphen,
period,
slash,
zero,
one,
two,
three,
four,
five,
six,
seven,
eight,
nine,
colon,
semicolon,
less,
equal,
greater,
question,
at,
A,
B,
C,
D,
E,
F,
G,
H,
I,
J,
K,
L,
M,
N,
O,
P,
Q,
R,
S,
T,
U,
V,
W,
X,
Y,
Z,
bracketleft,
backslash,
bracketright,
asciicircum,
underscore,
grave,
a,
b,
c,
d,
e,
f,
g,
h,
i,
j,
k,
l,
m,
n,
o,
p,
q,
r,
s,
t,
u,
v,
w,
x,
y,
z,
braceleft,
bar,
braceright,
asciitilde,
uni00A0,
exclamdown,
cent,
sterling,
currency,
yen,
brokenbar,
section,
dieresis,
copyright,
ordfeminine,
guillemotleft,
logicalnot,
uni00AD,
registered,
macron,
degree,
plusminus,
twosuperior,
threesuperior,
acute,
uni00B5,
paragraph,
periodcentered,
cedilla,
onesuperior,
ordmasculine,
guillemotright,
onequarter,
onehalf,
threequarters,
questiondown,
Agrave,
Aacute,
Acircumflex,
Atilde,
Adieresis,
Aring,
AE,
Ccedilla,
Egrave,
Eacute,
Ecircumflex,
Edieresis,
Igrave,
Iacute,
Icircumflex,
Idieresis,
Eth,
Ntilde,
Ograve,
Oacute,
Ocircumflex,
Otilde,
Odieresis,
multiply,
Oslash,
Ugrave,
Uacute,
Ucircumflex,
Udieresis,
Yacute,
Thorn,
germandbls,
agrave,
aacute,
acircumflex,
atilde,
adieresis,
aring,
ae,
ccedilla,
egrave,
eacute,
ecircumflex,
edieresis,
igrave,
iacute,
icircumflex,
idieresis,
eth,
ntilde,
ograve,
oacute,
ocircumflex,
otilde,
odieresis,
divide,
oslash,
ugrave,
uacute,
ucircumflex,
udieresis,
yacute,
thorn,
ydieresis,
Amacron,
amacron,
Abreve,
abreve,
Aogonek,
aogonek,
Cacute,
cacute,
Ccaron,
ccaron,
Dcaron,
dcaron,
Dcroat,
dcroat,
Emacron,
emacron,
Edotaccent,
edotaccent,
Eogonek,
eogonek,
Ecaron,
ecaron,
Gbreve,
gbreve,
uni0122,
uni0123,
Imacron,
imacron,
Iogonek,
iogonek,
Idotaccent,
dotlessi,
uni0136,
uni0137,
Lacute,
lacute,
uni013B,
uni013C,
Lcaron,

glyphs = (
{
color = 0;
glyphname = .notdef;
lastChange = "2016-04-08 02:21:04 +0000";
layers = (
{
layerId = "9609CB55-EFEB-482C-9A6C-237B4D7F8578";
paths = (
{
closed = 1;
nodes = (
"205 639 LINE",
"230 659 LINE",
"230 36 LINE",
"205 56 LINE",
"554 56 LINE",
"529 36 LINE",
"529 659 LINE",
"554 639 LINE"
);
},
{
closed = 1;
nodes = (
"205 679 CURVE SMOOTH",
"554 679 LINE SMOOTH",
"568 679 OFFCURVE",
"579 670 OFFCURVE",
"579 659 CURVE SMOOTH",
"579 36 LINE SMOOTH",
"579 25 OFFCURVE",
"568 16 OFFCURVE",
"554 16 CURVE SMOOTH",
"205 16 LINE SMOOTH",
"191 16 OFFCURVE",
"180 25 OFFCURVE",
"180 36 CURVE SMOOTH",
"180 659 LINE SMOOTH",
"180 670 OFFCURVE",
"191 679 OFFCURVE"
);
}
);
width = 756;
},
{
associatedMasterId = "9609CB55-EFEB-482C-9A6C-237B4D7F8578";
layerId = "91D5796F-0EDC-46F5-BAE6-CDA35B453B18";
name = wire;
width = 756;
},
{
associatedMasterId = "9609CB55-EFEB-482C-9A6C-237B4D7F8578";
layerId = "2083D103-CD2D-4BD3-923F-64AA3A2DC4D6";
name = mask;
width = 756;
}
);
userData = {
com.schriftgestaltung.Glyphs.ColorIndex = 0;
com.typemytype.robofont.layerData = {
mask = {
anchors = (
);
components = (
);
contours = (
);
lib = {
};
name = .notdef;
unicodes = (
);
width = 756;
};
wire = {
anchors = (
);
components = (
);
contours = (
);
lib = {
};
name = .notdef;
unicodes = (
);
width = 756;
};
};
public.markColor = "0.85,0.26,0.06,1";
};
},
{
glyphname = indianrupee;
lastChange = "2016-04-08 02:21:04 +0000";
layers = (
{
guideLines = (
{
angle = 90;
position = "{228, 490}";
}
);
layerId = "9609CB55-EFEB-482C-9A6C-237B4D7F8578";
paths = (
{
closed = 1;
nodes = (
"152 232 CURVE SMOOTH",
"271 232 OFFCURVE",
"335 290 OFFCURVE",
"335 361 CURVE SMOOTH",
"335 438 OFFCURVE",
"260 488 OFFCURVE",
"152 488 CURVE SMOOTH",
"116 488 LINE SMOOTH",
"105 488 OFFCURVE",
"96 497 OFFCURVE",
"96 508 CURVE SMOOTH",
"96 519 OFFCURVE",
"105 528 OFFCURVE",
"116 528 CURVE SMOOTH",
"152 528 LINE SMOOTH",
"294 528 OFFCURVE",
"385 458 OFFCURVE",
"385 361 CURVE SMOOTH",
"385 270 OFFCURVE",
"309 192 OFFCURVE",
"152 192 CURVE SMOOTH",
"141 192 OFFCURVE",
"132 201 OFFCURVE",
"132 212 CURVE SMOOTH",
"132 223 OFFCURVE",
"141 232 OFFCURVE"
);
},
{
closed = 1;
nodes = (
"163 223 CURVE SMOOTH",
"407 39 LINE SMOOTH",
"416 33 OFFCURVE",
"417 20 OFFCURVE",
"411 11 CURVE SMOOTH",
"404 2 OFFCURVE",
"391 0 OFFCURVE",
"383 7 CURVE SMOOTH",
"139 191 LINE SMOOTH",
"130 197 OFFCURVE",
"129 210 OFFCURVE",
"135 219 CURVE SMOOTH",
"142 228 OFFCURVE",
"155 230 OFFCURVE"
);
},
{
closed = 1;
nodes = (
"116 381 CURVE SMOOTH",
"477 381 LINE SMOOTH",
"488 381 OFFCURVE",
"497 372 OFFCURVE",
"497 361 CURVE SMOOTH",
"497 350 OFFCURVE",
"488 341 OFFCURVE",
"477 341 CURVE SMOOTH",
"116 341 LINE SMOOTH",
"105 341 OFFCURVE",
"96 350 OFFCURVE",
"96 361 CURVE SMOOTH",
"96 372 OFFCURVE",
"105 381 OFFCURVE"
);
},
{
closed = 1;
nodes = (
"163 528 CURVE SMOOTH",
"477 528 LINE SMOOTH",
"488 528 OFFCURVE",
"497 519 OFFCURVE",
"497 508 CURVE SMOOTH",
"497 497 OFFCURVE",
"488 488 OFFCURVE",
"477 488 CURVE SMOOTH",
"163 488 LINE SMOOTH",
"152 488 OFFCURVE",
"143 497 OFFCURVE",
"143 508 CURVE SMOOTH",
"143 519 OFFCURVE",
"152 528 OFFCURVE"
);
}
);
width = 602;
},
{
associatedMasterId = "9609CB55-EFEB-482C-9A6C-237B4D7F8578";
layerId = "36DCB145-9E9B-45AC-BD6B-A54533A9F42B";
name = wire;
width = 602;
},
{
associatedMasterId = "9609CB55-EFEB-482C-9A6C-237B4D7F8578";
layerId = "6EECF4E2-CA67-4043-8640-3186F84A7F87";
name = mask;
width = 602;
}
);
unicode = 20B9;
userData = {
com.typemytype.robofont.guides = (
{
angle = 90;
isGlobal = 0;
x = 228;
y = 490;
}
);
com.typemytype.robofont.layerData = {
mask = {
anchors = (
);
components = (
);
contours = (
);
lib = {
};
name = indianrupee;
unicodes = (
);
width = 602;
};
wire = {
anchors = (
);
components = (
);
contours = (
);
lib = {
};
name = indianrupee;
unicodes = (
);
width = 602;
};
};
};
},
{
glyphname = exclam;
lastChange = "2016-04-08 02:21:04 +0000";
layers = (
{
components = (
{
name = period;
transform = "{1, 0, 0, 1, 49, 0}";
},
{
name = period;
transform = "{1, 0, 0, 1, 49, 0}";
}
);
layerId = "9609CB55-EFEB-482C-9A6C-237B4D7F8578";
paths = (
{
closed = 1;
nodes = (
"137 266 CURVE SMOOTH",
"144 544 LINE SMOOTH",
"144 554 OFFCURVE",
"159 563 OFFCURVE",
"170 563 CURVE SMOOTH",
"180 563 OFFCURVE",
"194 553 OFFCURVE",
"194 542 CURVE SMOOTH",
"187 264 LINE SMOOTH",
"187 254 OFFCURVE",
"172 245 OFFCURVE",
"161 245 CURVE SMOOTH",
"151 245 OFFCURVE",
"137 255 OFFCURVE"
);
}
);
width = 327;
},
{
associatedMasterId = "9609CB55-EFEB-482C-9A6C-237B4D7F8578";
layerId = "8C46015F-3716-47DA-8A71-ACAEB3676CCF";
name = wire;
width = 327;
},
{
associatedMasterId = "9609CB55-EFEB-482C-9A6C-237B4D7F8578";
layerId = "8628C648-3B89-4FEF-BAEC-6F52A09BC733";
name = mask;
width = 327;
}
);
leftKerningGroup = exclam;
rightKerningGroup = exclam;
unicode = 0021;
userData = {
com.typemytype.robofont.layerData = {
mask = {
anchors = (
);
components = (
);
contours = (
);
lib = {
};
name = exclam;
unicodes = (
);
width = 327;
};
wire = {
anchors = (
);
components = (
);
contours = (
);
lib = {
};
name = exclam;
unicodes = (
);
width = 327;
};
};
};
},
{
glyphname = quotedbl;
lastChange = "2016-04-08 02:21:04 +0000";
layers = (
{
layerId = "9609CB55-EFEB-482C-9A6C-237B4D7F8578";
paths = (
{
closed = 1;
nodes = (
"162 563 CURVE SMOOTH",
"122 387 LINE SMOOTH",
"119 376 OFFCURVE",
"104 370 OFFCURVE",
"94 372 CURVE SMOOTH",
"83 375 OFFCURVE",
"72 387 OFFCURVE",
"74 397 CURVE SMOOTH",
"114 573 LINE SMOOTH",
"117 584 OFFCURVE",
"132 590 OFFCURVE",
"142 588 CURVE SMOOTH",
"153 585 OFFCURVE",
"164 573 OFFCURVE"
);
},
{
closed = 1;
nodes = (
"321 563 CURVE SMOOTH",
"281 387 LINE SMOOTH",
"278 376 OFFCURVE",
"263 370 OFFCURVE",
"253 372 CURVE SMOOTH",
"242 375 OFFCURVE",
"231 387 OFFCURVE",
"233 397 CURVE SMOOTH",
"273 573 LINE SMOOTH",
"276 584 OFFCURVE",
"291 590 OFFCURVE",
"301 588 CURVE SMOOTH",
"312 585 OFFCURVE",
"323 573 OFFCURVE"
);
}
);
width = 404;
},
{
associatedMasterId = "9609CB55-EFEB-482C-9A6C-237B4D7F8578";
layerId = "BA507F1B-8CB8-4C0A-AECD-E4A466CACACF";
name = wire;
width = 404;
},
{
associatedMasterId = "9609CB55-EFEB-482C-9A6C-237B4D7F8578";
layerId = "D0C4B3F2-E3AA-472C-B591-D40DD302A12E";
name = mask;
width = 404;
}
);
leftKerningGroup = quoteright;
rightKerningGroup = quoteright;
unicode = 0022;
userData = {
com.typemytype.robofont.layerData = {
mask = {
anchors = (
);
components = (
);
contours = (
);
lib = {
};
name = quotedbl;
unicodes = (
);
width = 404;
};
wire = {
anchors = (
);
components = (
);
contours = (
);
lib = {
};
name = quotedbl;
unicodes = (
);
width = 404;
};
};
};
},
{
glyphname = numbersign;
lastChange = "2016-04-08 02:21:04 +0000";
layers = (
{
guideLines = (
{
position = "{135, 606}";
},
{
position = "{160, -73}";
}
);
layerId = "9609CB55-EFEB-482C-9A6C-237B4D7F8578";
paths = (
{
closed = 1;
nodes = (
"503 499 CURVE SMOOTH",
"327 15 LINE SMOOTH",
"324 5 OFFCURVE",
"308 1 OFFCURVE",
"298 4 CURVE SMOOTH",
"288 8 OFFCURVE",
"279 21 OFFCURVE",
"283 31 CURVE SMOOTH",
"459 515 LINE SMOOTH",
"462 525 OFFCURVE",
"478 529 OFFCURVE",
"488 526 CURVE SMOOTH",
"498 522 OFFCURVE",
"507 509 OFFCURVE"
);
},
{
closed = 1;
nodes = (
"303 499 CURVE SMOOTH",
"127 15 LINE SMOOTH",
"124 5 OFFCURVE",
"108 1 OFFCURVE",
"98 4 CURVE SMOOTH",
"88 8 OFFCURVE",
"79 21 OFFCURVE",
"83 31 CURVE SMOOTH",
"259 515 LINE SMOOTH",
"262 525 OFFCURVE",
"278 529 OFFCURVE",
"288 526 CURVE SMOOTH",
"298 522 OFFCURVE",
"307 509 OFFCURVE"
);
},
{
closed = 1;
nodes = (
"532 358 CURVE SMOOTH",
"128 358 LINE SMOOTH",
"117 358 OFFCURVE",
"108 367 OFFCURVE",
"108 378 CURVE SMOOTH",
"108 389 OFFCURVE",
"117 398 OFFCURVE",
"128 398 CURVE SMOOTH",
"532 398 LINE SMOOTH",
"543 398 OFFCURVE",
"552 389 OFFCURVE",
"552 378 CURVE SMOOTH",
"552 367 OFFCURVE",
"543 358 OFFCURVE"
);
},
{
closed = 1;
nodes = (
"463 158 CURVE SMOOTH",
"59 158 LINE SMOOTH",
"48 158 OFFCURVE",
"39 167 OFFCURVE",
"39 178 CURVE SMOOTH",
"39 189 OFFCURVE",
"48 198 OFFCURVE",
"59 198 CURVE SMOOTH",
"463 198 LINE SMOOTH",
"474 198 OFFCURVE",
"483 189 OFFCURVE",
"483 178 CURVE SMOOTH",
"483 167 OFFCURVE",
"474 158 OFFCURVE"
);
}
);
width = 596;
},
{
associatedMasterId = "9609CB55-EFEB-482C-9A6C-237B4D7F8578";
layerId = "D75164EF-9F76-4A65-8286-267A2E421B34";
name = wire;
width = 596;
},
{
associatedMasterId = "9609CB55-EFEB-482C-9A6C-237B4D7F8578";
layerId = "7A44E0CE-E994-40DD-B72C-86D5CA21BD03";
name = mask;
width = 596;
}
);
unicode = 0023;
userData = {
com.typemytype.robofont.guides = (
{
angle = 0;
isGlobal = 0;
x = 135;
y = 606;
},
{
angle = 0;
isGlobal = 0;
x = 160;
y = -73;
}
);
com.typemytype.robofont.layerData = {
mask = {
anchors = (
);
components = (
);
contours = (
);
lib = {
};
name = numbersign;
unicodes = (
);
width = 596;
};
wire = {
anchors = (
);
components = (
);
contours = (
);
lib = {
};
name = numbersign;
unicodes = (
);
width = 596;
};
};
};
},
{
glyphname = dollar;
lastChange = "2016-04-08 02:21:04 +0000";
layers = (
{
layerId = "9609CB55-EFEB-482C-9A6C-237B4D7F8578";
paths = (
{
closed = 1;
nodes = (
"430 465 CURVE SMOOTH",
"378 483 OFFCURVE",
"341 494 OFFCURVE",
"265 494 CURVE SMOOTH",
"186 494 OFFCURVE",
"134 455 OFFCURVE",
"134 410 CURVE SMOOTH",
"134 366 OFFCURVE",
"161 320 OFFCURVE",
"292 298 CURVE SMOOTH",
"452 267 OFFCURVE",
"501 207 OFFCURVE",
"501 136 CURVE SMOOTH",
"501 63 OFFCURVE",
"440 -6 OFFCURVE",
"288 -6 CURVE SMOOTH",
"216 -6 OFFCURVE",
"148 9 OFFCURVE",
"85 39 CURVE SMOOTH",
"76 44 OFFCURVE",
"71 56 OFFCURVE",
"76 66 CURVE SMOOTH",
"81 75 OFFCURVE",
"93 80 OFFCURVE",
"103 75 CURVE SMOOTH",
"160 47 OFFCURVE",
"222 34 OFFCURVE",
"288 34 CURVE SMOOTH",
"398 34 OFFCURVE",
"451 81 OFFCURVE",
"451 136 CURVE SMOOTH",
"451 193 OFFCURVE",
"406 235 OFFCURVE",
"286 258 CURVE SMOOTH",
"109 288 OFFCURVE",
"84 354 OFFCURVE",
"84 410 CURVE SMOOTH",
"84 471 OFFCURVE",
"148 534 OFFCURVE",
"265 534 CURVE SMOOTH",
"347 534 OFFCURVE",
"388 523 OFFCURVE",
"444 503 CURVE SMOOTH",
"454 499 OFFCURVE",
"459 488 OFFCURVE",
"456 477 CURVE SMOOTH",
"452 467 OFFCURVE",
"441 462 OFFCURVE"
);
},
{
closed = 1;
nodes = (
"309 606 CURVE SMOOTH",
"309 -84 LINE SMOOTH",
"309 -95 OFFCURVE",
"295 -104 OFFCURVE",
"284 -104 CURVE SMOOTH",
"273 -104 OFFCURVE",
"259 -95 OFFCURVE",
"259 -84 CURVE SMOOTH",
"259 606 LINE SMOOTH",
"259 617 OFFCURVE",
"273 626 OFFCURVE",
"284 626 CURVE SMOOTH",
"295 626 OFFCURVE",
"309 617 OFFCURVE"
);
}
);
width = 574;
},
{
associatedMasterId = "9609CB55-EFEB-482C-9A6C-237B4D7F8578";
layerId = "E29A9335-DB7F-4C66-A290-A1E9E1C951CD";
name = wire;
width = 574;
},
{
associatedMasterId = "9609CB55-EFEB-482C-9A6C-237B4D7F8578";
layerId = "88D598FD-02AC-488C-B610-728A1D65EFE5";
name = mask;
width = 574;
}
);
unicode = 0024;
userData = {
com.typemytype.robofont.layerData = {
mask = {
anchors = (
);
components = (
);
contours = (
);
lib = {
};
name = dollar;
unicodes = (
);
width = 574;
};
wire = {
anchors = (
);
components = (
);
contours = (
);
lib = {
};
name = dollar;
unicodes = (
);
width = 574;
};
};
};
},
{
glyphname = percent;
lastChange = "2016-04-08 02:21:04 +0000";
layers = (
{
guideLines = (
{
position = "{110, 546}";
}
);
layerId = "9609CB55-EFEB-482C-9A6C-237B4D7F8578";
paths = (
{
closed = 1;
nodes = (
"203 535 CURVE SMOOTH",
"272 535 OFFCURVE",
"336 476 OFFCURVE",
"336 379 CURVE SMOOTH",
"336 288 OFFCURVE",
"282 223 OFFCURVE",
"203 223 CURVE SMOOTH",
"131 223 OFFCURVE",
"69 288 OFFCURVE",
"69 378 CURVE SMOOTH",
"69 476 OFFCURVE",
"130 535 OFFCURVE"
);
},
{
closed = 1;
nodes = (
"612 305 CURVE SMOOTH",
"681 305 OFFCURVE",
"745 246 OFFCURVE",
"745 149 CURVE SMOOTH",
"745 58 OFFCURVE",
"691 -7 OFFCURVE",
"612 -7 CURVE SMOOTH",
"540 -7 OFFCURVE",
"478 58 OFFCURVE",
"478 148 CURVE SMOOTH",
"478 246 OFFCURVE",
"539 305 OFFCURVE"
);
},
{
closed = 1;
nodes = (
"569 497 CURVE SMOOTH",
"286 12 LINE SMOOTH",
"281 2 OFFCURVE",
"266 0 OFFCURVE",
"257 6 CURVE SMOOTH",
"248 11 OFFCURVE",
"242 25 OFFCURVE",
"248 34 CURVE SMOOTH",
"531 519 LINE SMOOTH",
"536 529 OFFCURVE",
"551 531 OFFCURVE",
"560 525 CURVE SMOOTH",
"569 520 OFFCURVE",
"575 506 OFFCURVE"
);
},
{
closed = 1;
nodes = (
"203 495 CURVE SMOOTH",
"148 495 OFFCURVE",
"119 440 OFFCURVE",
"119 378 CURVE SMOOTH",
"119 322 OFFCURVE",
"149 263 OFFCURVE",
"203 263 CURVE SMOOTH",
"262 263 OFFCURVE",
"286 322 OFFCURVE",
"286 379 CURVE SMOOTH",
"286 440 OFFCURVE",
"254 495 OFFCURVE"
);
},
{
closed = 1;
nodes = (
"612 265 CURVE SMOOTH",
"557 265 OFFCURVE",
"528 210 OFFCURVE",
"528 148 CURVE SMOOTH",
"528 92 OFFCURVE",
"558 33 OFFCURVE",
"612 33 CURVE SMOOTH",
"671 33 OFFCURVE",
"695 92 OFFCURVE",
"695 149 CURVE SMOOTH",
"695 210 OFFCURVE",
"663 265 OFFCURVE"
);
}
);
width = 814;
},
{
associatedMasterId = "9609CB55-EFEB-482C-9A6C-237B4D7F8578";
layerId = "64F9B433-8C92-4185-8718-AE3B613DE569";
name = wire;
width = 814;
},
{
associatedMasterId = "9609CB55-EFEB-482C-9A6C-237B4D7F8578";
layerId = "EBF2F5D4-689A-45CA-88C8-C3AF109413C4";
name = mask;
width = 814;
}
);
unicode = 0025;
userData = {
com.typemytype.robofont.guides = (
{
angle = 0;
isGlobal = 0;
x = 110;
y = 546;
}
);
com.typemytype.robofont.layerData = {
mask = {
anchors = (
);
components = (
);
contours = (
);
lib = {
};
name = percent;
unicodes = (
);
width = 814;
};
wire = {
anchors = (
);
components = (
);
contours = (
);
lib = {
};
name = percent;
unicodes = (
);
width = 814;
};
};
};
},
{
glyphname = ampersand;
lastChange = "2016-04-08 02:21:04 +0000";
layers = (
{
layerId = "9609CB55-EFEB-482C-9A6C-237B4D7F8578";
paths = (
{
closed = 1;
nodes = (
"538 264 CURVE SMOOTH",
"452 142 LINE SMOOTH",
"371 28 OFFCURVE",
"311 -5 OFFCURVE",
"233 -5 CURVE SMOOTH",
"136 -5 OFFCURVE",
"67 54 OFFCURVE",
"67 133 CURVE SMOOTH",
"67 204 OFFCURVE",
"103 261 OFFCURVE",
"264 328 CURVE SMOOTH",
"317 349 OFFCURVE",
"339 381 OFFCURVE",
"339 419 CURVE SMOOTH",
"339 460 OFFCURVE",
"306 495 OFFCURVE",
"258 495 CURVE SMOOTH",
"211 495 OFFCURVE",
"180 460 OFFCURVE",
"180 415 CURVE SMOOTH",
"180 367 OFFCURVE",
"215 330 OFFCURVE",
"268 283 CURVE SMOOTH",
"549 39 LINE SMOOTH",
"557 31 OFFCURVE",
"557 18 OFFCURVE",
"550 10 CURVE SMOOTH",
"543 2 OFFCURVE",
"530 0 OFFCURVE",
"521 7 CURVE SMOOTH",
"240 253 LINE SMOOTH",
"175 310 OFFCURVE",
"130 355 OFFCURVE",
"130 415 CURVE SMOOTH",
"130 490 OFFCURVE",
"187 535 OFFCURVE",
"258 535 CURVE SMOOTH",
"331 535 OFFCURVE",
"389 486 OFFCURVE",
"389 419 CURVE SMOOTH",
"389 363 OFFCURVE",
"353 321 OFFCURVE",
"280 290 CURVE SMOOTH",
"149 237 OFFCURVE",
"117 192 OFFCURVE",
"117 133 CURVE SMOOTH",
"117 78 OFFCURVE",
"164 35 OFFCURVE",
"233 35 CURVE SMOOTH",
"301 35 OFFCURVE",
"349 72 OFFCURVE",
"416 168 CURVE SMOOTH",
"502 290 LINE SMOOTH",
"508 298 OFFCURVE",
"523 300 OFFCURVE",
"532 293 CURVE SMOOTH",
"540 287 OFFCURVE",
"544 273 OFFCURVE"
);
}
);
width = 634;
},
{
associatedMasterId = "9609CB55-EFEB-482C-9A6C-237B4D7F8578";
layerId = "8DB9F1FD-54FF-4338-8E0E-8C4B1C251678";
name = wire;
width = 634;
},
{
associatedMasterId = "9609CB55-EFEB-482C-9A6C-237B4D7F8578";
layerId = "1A3298E2-2405-4ABC-A3CC-E0D2A69E21DD";
name = mask;
width = 634;
}
);
unicode = 0026;
userData = {
com.typemytype.robofont.layerData = {
mask = {
anchors = (
);
components = (
);
contours = (
);
lib = {
};
name = ampersand;
unicodes = (
);
width = 634;
};
wire = {
anchors = (
);
components = (
);
contours = (
);
lib = {
};
name = ampersand;
unicodes = (
);
width = 634;
};
};
};
},
{
glyphname = quotesingle;
lastChange = "2016-04-08 02:21:04 +0000";
layers = (
{
layerId = "9609CB55-EFEB-482C-9A6C-237B4D7F8578";
paths = (
{
closed = 1;
nodes = (
"162 563 CURVE SMOOTH",
"122 387 LINE SMOOTH",
"119 376 OFFCURVE",
"104 370 OFFCURVE",
"94 372 CURVE SMOOTH",
"83 375 OFFCURVE",
"72 387 OFFCURVE",
"74 397 CURVE SMOOTH",
"114 573 LINE SMOOTH",
"117 584 OFFCURVE",
"132 590 OFFCURVE",
"142 588 CURVE SMOOTH",
"153 585 OFFCURVE",
"164 573 OFFCURVE"
);
}
);
width = 245;
},
{
associatedMasterId = "9609CB55-EFEB-482C-9A6C-237B4D7F8578";
layerId = "01CC2544-EF81-4F70-B649-CBC15C629A74";
name = wire;
width = 245;
},
{
associatedMasterId = "9609CB55-EFEB-482C-9A6C-237B4D7F8578";
layerId = "F39BA3C7-2AE5-41C3-A895-ADBB01385384";
name = mask;
width = 245;
}
);
leftKerningGroup = quoteright;
rightKerningGroup = quoteright;
unicode = 0027;
userData = {
com.typemytype.robofont.layerData = {
mask = {
anchors = (
);
components = (
);
contours = (
);
lib = {
};
name = quotesingle;
unicodes = (
);
width = 245;
};
wire = {
anchors = (
);
components = (
);
contours = (
);
lib = {
};
name = quotesingle;
unicodes = (
);
width = 245;
};
};
};
},
{
glyphname = parenleft;
lastChange = "2016-04-08 02:21:04 +0000";
layers = (
{
guideLines = (
{
position = "{181, 267}";
}
);
layerId = "9609CB55-EFEB-482C-9A6C-237B4D7F8578";
paths = (
{
closed = 1;
nodes = (
"249 589 CURVE SMOOTH",
"177 509 OFFCURVE",
"122 387 OFFCURVE",
"122 259 CURVE SMOOTH",
"122 134 OFFCURVE",
"173 17 OFFCURVE",
"248 -61 CURVE SMOOTH",
"256 -69 OFFCURVE",
"255 -83 OFFCURVE",
"247 -90 CURVE SMOOTH",
"239 -98 OFFCURVE",
"225 -98 OFFCURVE",
"218 -91 CURVE SMOOTH",
"135 -5 OFFCURVE",
"72 120 OFFCURVE",
"72 259 CURVE SMOOTH",
"72 399 OFFCURVE",
"139 531 OFFCURVE",
"217 617 CURVE SMOOTH",
"225 625 OFFCURVE",
"238 625 OFFCURVE",
"246 618 CURVE SMOOTH",
"254 611 OFFCURVE",
"256 597 OFFCURVE"
);
}
);
width = 335;
},
{
associatedMasterId = "9609CB55-EFEB-482C-9A6C-237B4D7F8578";
layerId = "625B6BE6-E230-4B90-B300-ACBE3955AD3D";
name = wire;
width = 335;
},
{
associatedMasterId = "9609CB55-EFEB-482C-9A6C-237B4D7F8578";
layerId = "191A4CF1-85FF-4166-9EA7-A889A7097DF1";
name = mask;
width = 335;
}
);
rightKerningGroup = parenleft;
unicode = 0028;
userData = {
com.typemytype.robofont.guides = (
{
angle = 0;
isGlobal = 0;
x = 181;
y = 267;
}
);
com.typemytype.robofont.layerData = {
mask = {
anchors = (
);
components = (
);
contours = (
);
lib = {
};
name = parenleft;
unicodes = (
);
width = 335;
};
wire = {
anchors = (
);
components = (
);
contours = (
);
lib = {
};
name = parenleft;
unicodes = (
);
width = 335;
};
};
};
},
{
glyphname = asterisk;
lastChange = "2016-04-08 02:21:04 +0000";
layers = (
{
layerId = "9609CB55-EFEB-482C-9A6C-237B4D7F8578";
paths = (
{
closed = 1;
nodes = (
"240 538 CURVE SMOOTH",
"240 290 LINE SMOOTH",
"240 279 OFFCURVE",
"226 270 OFFCURVE",
"215 270 CURVE SMOOTH",
"204 270 OFFCURVE",
"190 279 OFFCURVE",
"190 290 CURVE SMOOTH",
"190 538 LINE SMOOTH",
"190 549 OFFCURVE",
"204 558 OFFCURVE",
"215 558 CURVE SMOOTH",
"226 558 OFFCURVE",
"240 549 OFFCURVE"
);
},
{
closed = 1;
nodes = (
"109 497 CURVE SMOOTH",
"342 361 LINE SMOOTH",
"351 356 OFFCURVE",
"355 343 OFFCURVE",
"349 334 CURVE SMOOTH",
"344 325 OFFCURVE",
"331 321 OFFCURVE",
"322 327 CURVE SMOOTH",
"89 463 LINE SMOOTH",
"80 468 OFFCURVE",
"76 481 OFFCURVE",
"82 490 CURVE SMOOTH",
"87 499 OFFCURVE",
"100 503 OFFCURVE"
);
},
{
closed = 1;
nodes = (
"89 361 CURVE SMOOTH",
"322 497 LINE SMOOTH",
"331 503 OFFCURVE",
"344 499 OFFCURVE",
"349 490 CURVE SMOOTH",
"355 481 OFFCURVE",
"351 468 OFFCURVE",
"342 463 CURVE SMOOTH",
"109 327 LINE SMOOTH",
"100 321 OFFCURVE",
"87 325 OFFCURVE",
"82 334 CURVE SMOOTH",
"76 343 OFFCURVE",
"80 356 OFFCURVE"
);
}
);
width = 431;
},
{
associatedMasterId = "9609CB55-EFEB-482C-9A6C-237B4D7F8578";
layerId = "4C46F631-9344-4E50-8D1C-88AFF74AE310";
name = wire;
width = 431;
},
{
associatedMasterId = "9609CB55-EFEB-482C-9A6C-237B4D7F8578";
layerId = "3A2B8E82-4A7E-412B-9A55-8B3AF54ECC4E";
name = mask;
width = 431;
}
);
leftKerningGroup = asterisk;
rightKerningGroup = asterisk;
unicode = 002A;
userData = {
com.typemytype.robofont.layerData = {
mask = {
anchors = (
);
components = (
);
contours = (
);
lib = {
};
name = asterisk;
unicodes = (
);
width = 431;
};
wire = {
anchors = (
);
components = (
);
contours = (
);
lib = {
};
name = asterisk;
unicodes = (
);
width = 431;
};
};
};
},
{
glyphname = plus;
lastChange = "2016-04-08 02:21:04 +0000";
layers = (
{
guideLines = (
{
position = "{277, 570}";
}
);
layerId = "9609CB55-EFEB-482C-9A6C-237B4D7F8578";
paths = (
{
closed = 1;
nodes = (
"96 284 CURVE SMOOTH",
"433 284 LINE SMOOTH",
"444 284 OFFCURVE",
"453 275 OFFCURVE",
"453 264 CURVE SMOOTH",
"453 253 OFFCURVE",
"444 244 OFFCURVE",
"433 244 CURVE SMOOTH",
"96 244 LINE SMOOTH",
"85 244 OFFCURVE",
"76 253 OFFCURVE",
"76 264 CURVE SMOOTH",
"76 275 OFFCURVE",
"85 284 OFFCURVE"
);
},
{
closed = 1;
nodes = (
"240 100 CURVE SMOOTH",
"240 427 LINE SMOOTH",
"240 438 OFFCURVE",
"254 447 OFFCURVE",
"265 447 CURVE SMOOTH",
"276 447 OFFCURVE",
"290 438 OFFCURVE",
"290 427 CURVE SMOOTH",
"290 100 LINE SMOOTH",
"290 89 OFFCURVE",
"276 80 OFFCURVE",
"265 80 CURVE SMOOTH",
"254 80 OFFCURVE",
"240 89 OFFCURVE"
);
}
);
width = 530;
},
{
associatedMasterId = "9609CB55-EFEB-482C-9A6C-237B4D7F8578";
layerId = "54C53300-D0BB-40FA-B09C-F3A61801F23F";
name = wire;
width = 530;
},
{
associatedMasterId = "9609CB55-EFEB-482C-9A6C-237B4D7F8578";
layerId = "6102A5E8-C141-4613-AAB5-5BCE600F3B2D";
name = mask;
width = 530;
}
);
leftKerningGroup = hyphen;
rightKerningGroup = hyphen;
unicode = 002B;
userData = {
com.typemytype.robofont.guides = (
{
angle = 0;
isGlobal = 0;
x = 277;
y = 570;
}
);
com.typemytype.robofont.layerData = {
mask = {
anchors = (
);
components = (
);
contours = (
);
lib = {
};
name = plus;
unicodes = (
);
width = 530;
};
wire = {
anchors = (
);
components = (
);
contours = (
);
lib = {
};
name = plus;
unicodes = (
);
width = 530;
};
};
};
},
{
glyphname = comma;
lastChange = "2016-04-08 02:21:04 +0000";
layers = (
{
layerId = "9609CB55-EFEB-482C-9A6C-237B4D7F8578";
paths = (
{
closed = 1;
nodes = (
"133 85 CURVE SMOOTH",
"137 71 OFFCURVE",
"141 50 OFFCURVE",
"141 28 CURVE SMOOTH",
"141 -23 OFFCURVE",
"120 -73 OFFCURVE",
"91 -112 CURVE SMOOTH",
"85 -121 OFFCURVE",
"71 -121 OFFCURVE",
"62 -115 CURVE SMOOTH",
"53 -109 OFFCURVE",
"50 -95 OFFCURVE",
"57 -86 CURVE SMOOTH",
"80 -55 OFFCURVE",
"91 -13 OFFCURVE",
"91 28 CURVE SMOOTH",
"91 44 OFFCURVE",
"91 59 OFFCURVE",
"87 69 CURVE SMOOTH",
"84 80 OFFCURVE",
"93 93 OFFCURVE",
"104 96 CURVE SMOOTH",
"114 99 OFFCURVE",
"129 95 OFFCURVE"
);
}
);
width = 230;
},
{
associatedMasterId = "9609CB55-EFEB-482C-9A6C-237B4D7F8578";
layerId = "540CFA03-1485-410B-8B8A-DE310C69052A";
name = wire;
width = 230;
},
{
associatedMasterId = "9609CB55-EFEB-482C-9A6C-237B4D7F8578";
layerId = "F3284235-13B1-4A47-89A4-CB1571FB552D";
name = mask;
width = 230;
}
);
leftKerningGroup = period;
rightKerningGroup = period;
unicode = 002C;
userData = {
com.typemytype.robofont.layerData = {
mask = {
anchors = (
);
components = (
);
contours = (
);
lib = {
};
name = comma;
unicodes = (
);
width = 230;
};
wire = {
anchors = (
);
components = (
);
contours = (
);
lib = {
};
name = comma;
unicodes = (
);
width = 230;
};
};
};
},
{
glyphname = hyphen;
lastChange = "2016-04-08 02:21:04 +0000";
layers = (
{
guideLines = (
{
position = "{277, 570}";
}
);
layerId = "9609CB55-EFEB-482C-9A6C-237B4D7F8578";
paths = (
{
closed = 1;
nodes = (
"109 238 CURVE SMOOTH",
"311 238 LINE SMOOTH",
"322 238 OFFCURVE",
"331 229 OFFCURVE",
"331 218 CURVE SMOOTH",
"331 207 OFFCURVE",
"322 198 OFFCURVE",
"311 198 CURVE SMOOTH",
"109 198 LINE SMOOTH",
"98 198 OFFCURVE",
"89 207 OFFCURVE",
"89 218 CURVE SMOOTH",
"89 229 OFFCURVE",
"98 238 OFFCURVE"
);
}
);
width = 420;
},
{
associatedMasterId = "9609CB55-EFEB-482C-9A6C-237B4D7F8578";
layerId = "8C4BA21C-7804-45AC-B37A-D61BF81F5649";
name = wire;
width = 420;
},
{
associatedMasterId = "9609CB55-EFEB-482C-9A6C-237B4D7F8578";
layerId = "718F1430-144D-434E-A97A-F9598185A174";
name = mask;
width = 420;
}
);
leftKerningGroup = hyphen;
rightKerningGroup = hyphen;
unicode = 002D;
userData = {
com.typemytype.robofont.guides = (
{
angle = 0;
isGlobal = 0;
x = 277;
y = 570;
}
);
com.typemytype.robofont.layerData = {
mask = {
anchors = (
);
components = (
);
contours = (
);
lib = {
};
name = hyphen;
unicodes = (
);
width = 420;
};
wire = {
anchors = (
);
components = (
);
contours = (
);
lib = {
};
name = hyphen;
unicodes = (
);
width = 420;
};
};
};
},
{
color = (202,249,213,1);
glyphname = period;
lastChange = "2016-04-08 02:21:04 +0000";
layers = (
{
layerId = "9609CB55-EFEB-482C-9A6C-237B4D7F8578";
paths = (
{
closed = 1;
nodes = (
"113 96 CURVE SMOOTH",
"137 96 OFFCURVE",
"159 78 OFFCURVE",
"159 47 CURVE SMOOTH",
"159 9 OFFCURVE",
"138 -2 OFFCURVE",
"114 -2 CURVE SMOOTH",
"94 -2 OFFCURVE",
"68 10 OFFCURVE",
"68 47 CURVE SMOOTH",
"68 79 OFFCURVE",
"88 96 OFFCURVE"
);
}
);
width = 225;
},
{
associatedMasterId = "9609CB55-EFEB-482C-9A6C-237B4D7F8578";
layerId = "FBCE3184-FFEE-4B16-93B1-62361860EFDA";
name = wire;
width = 225;
},
{
associatedMasterId = "9609CB55-EFEB-482C-9A6C-237B4D7F8578";
layerId = "EAED9E40-E15F-40E6-A7E4-2A1C9DA955ED";
name = mask;
width = 225;
}
);
leftKerningGroup = period;
rightKerningGroup = period;
unicode = 002E;
userData = {
com.typemytype.robofont.layerData = {
mask = {
anchors = (
);
components = (
);
contours = (
);
lib = {
};
name = period;
unicodes = (
);
width = 225;
};
wire = {
anchors = (
);
components = (
);
contours = (
);
lib = {
};
name = period;
unicodes = (
);
width = 225;
};
};
com.typemytype.robofont.mark = (
0.7940,
0.9750,
0.8360,
1
);
};
},
{
glyphname = slash;
lastChange = "2016-04-08 02:21:04 +0000";
layers = (
{
guideLines = (
{
position = "{135, 606}";
},
{
position = "{160, -73}";
}
);
layerId = "9609CB55-EFEB-482C-9A6C-237B4D7F8578";
paths = (
{
closed = 1;
nodes = (
"341 595 CURVE SMOOTH",
"92 -85 LINE SMOOTH",
"88 -95 OFFCURVE",
"73 -99 OFFCURVE",
"63 -96 CURVE SMOOTH",
"53 -92 OFFCURVE",
"44 -79 OFFCURVE",
"48 -69 CURVE SMOOTH",
"297 611 LINE SMOOTH",
"301 621 OFFCURVE",
"316 625 OFFCURVE",
"326 622 CURVE SMOOTH",
"336 618 OFFCURVE",
"345 605 OFFCURVE"
);
}
);
width = 395;
},
{
associatedMasterId = "9609CB55-EFEB-482C-9A6C-237B4D7F8578";
layerId = "62A8848F-0698-4379-9582-1270F05C468E";
name = wire;
width = 395;
},
{
associatedMasterId = "9609CB55-EFEB-482C-9A6C-237B4D7F8578";
layerId = "E4B8F601-7E58-4F72-9B68-2010208D63F1";
name = mask;
width = 395;
}
);
unicode = 002F;
userData = {
com.typemytype.robofont.guides = (
{
angle = 0;
isGlobal = 0;
x = 135;
y = 606;
},
{
angle = 0;
isGlobal = 0;
x = 160;
y = -73;
}
);
com.typemytype.robofont.layerData = {
mask = {
anchors = (
);
components = (
);
contours = (
);
lib = {
};
name = slash;
unicodes = (
);
width = 395;
};
wire = {
anchors = (
);
components = (
);
contours = (
);
lib = {
};
name = slash;
unicodes = (
);
width = 395;
};
};
};
},
{
glyphname = zero;
lastChange = "2016-04-08 02:21:04 +0000";
layers = (
{
layerId = "9609CB55-EFEB-482C-9A6C-237B4D7F8578";
paths = (
{
closed = 1;
nodes = (
"284 536 CURVE SMOOTH",
"402 536 OFFCURVE",
"506 430 OFFCURVE",
"506 267 CURVE SMOOTH",
"506 113 OFFCURVE",
"420 -5 OFFCURVE",
"284 -5 CURVE SMOOTH",
"159 -5 OFFCURVE",
"59 113 OFFCURVE",
"59 265 CURVE",
"59 430 OFFCURVE",
"157 536 OFFCURVE"
);
},
{
closed = 1;
nodes = (
"284 496 CURVE SMOOTH",
"175 496 OFFCURVE",
"109 394 OFFCURVE",
"109 265 CURVE SMOOTH",
"109 147 OFFCURVE",
"177 35 OFFCURVE",
"284 35 CURVE SMOOTH",
"400 35 OFFCURVE",
"456 147 OFFCURVE",
"456 267 CURVE SMOOTH",
"456 394 OFFCURVE",
"384 496 OFFCURVE"
);
}
);
width = 566;
},
{
associatedMasterId = "9609CB55-EFEB-482C-9A6C-237B4D7F8578";
layerId = "40173B38-31A3-48F6-A0FD-05A9E6296364";
name = wire;
width = 566;
},
{
associatedMasterId = "9609CB55-EFEB-482C-9A6C-237B4D7F8578";
layerId = "4F86FB1F-AD5C-4BC2-87AB-F14908BD7C7F";
name = mask;
width = 566;
}
);
unicode = 0030;
userData = {
com.typemytype.robofont.layerData = {
mask = {
anchors = (
);
components = (
);
contours = (
);
lib = {
};
name = zero;
unicodes = (
);
width = 566;
};
wire = {
anchors = (
);
components = (
);
contours = (
);
lib = {
};
name = zero;
unicodes = (
);
width = 566;
};
};
};
},
{
glyphname = one;
lastChange = "2016-04-08 02:21:04 +0000";
layers = (
{
guideLines = (
{
position = "{277, 570}";
}
);
layerId = "9609CB55-EFEB-482C-9A6C-237B4D7F8578";
paths = (
{
closed = 1;
nodes = (
"230 501 CURVE SMOOTH",
"230 23 LINE SMOOTH",
"230 12 OFFCURVE",
"216 3 OFFCURVE",
"205 3 CURVE SMOOTH",
"194 3 OFFCURVE",
"180 12 OFFCURVE",
"180 23 CURVE SMOOTH",
"180 501 LINE SMOOTH",
"180 512 OFFCURVE",
"194 521 OFFCURVE",
"205 521 CURVE SMOOTH",
"216 521 OFFCURVE",
"230 512 OFFCURVE"
);
},
{
closed = 1;
nodes = (
"215 490 CURVE SMOOTH",
"85 419 LINE SMOOTH",
"75 414 OFFCURVE",
"63 418 OFFCURVE",
"57 427 CURVE SMOOTH",
"52 437 OFFCURVE",
"56 449 OFFCURVE",
"65 455 CURVE SMOOTH",
"195 526 LINE SMOOTH",
"205 531 OFFCURVE",
"217 527 OFFCURVE",
"223 518 CURVE SMOOTH",
"228 508 OFFCURVE",
"224 496 OFFCURVE"
);
}
);
width = 328;
},
{
associatedMasterId = "9609CB55-EFEB-482C-9A6C-237B4D7F8578";
layerId = "B9A8B79F-B03F-4DC0-861E-FDEB09D57DA7";
name = wire;
width = 328;
},
{
associatedMasterId = "9609CB55-EFEB-482C-9A6C-237B4D7F8578";
layerId = "FFE1108F-8FE8-437F-BDDC-6FF672F02EEF";
name = mask;
width = 328;
}
);
unicode = 0031;
userData = {
com.typemytype.robofont.guides = (
{
angle = 0;
isGlobal = 0;
x = 277;
y = 570;
}
);
com.typemytype.robofont.layerData = {
mask = {
anchors = (
);
components = (
);
contours = (
);
lib = {
};
name = one;
unicodes = (
);
width = 328;
};
wire = {
anchors = (
);
components = (
);
contours = (
);
lib = {
};
name = one;
unicodes = (
);
width = 328;
};
};
};
},
{
glyphname = two;
lastChange = "2016-04-08 02:21:04 +0000";
layers = (
{
layerId = "9609CB55-EFEB-482C-9A6C-237B4D7F8578";
paths = (
{
closed = 1;
nodes = (
"72 47 CURVE SMOOTH",
"238 206 LINE SMOOTH",
"339 303 OFFCURVE",
"370 345 OFFCURVE",
"370 403 CURVE SMOOTH",
"370 450 OFFCURVE",
"334 497 OFFCURVE",
"258 497 CURVE SMOOTH",
"210 497 OFFCURVE",
"161 483 OFFCURVE",
"118 456 CURVE SMOOTH",
"108 450 OFFCURVE",
"96 453 OFFCURVE",
"90 462 CURVE SMOOTH",
"84 472 OFFCURVE",
"87 485 OFFCURVE",
"96 490 CURVE SMOOTH",
"147 521 OFFCURVE",
"202 537 OFFCURVE",
"258 537 CURVE SMOOTH",
"366 537 OFFCURVE",
"420 472 OFFCURVE",
"420 403 CURVE SMOOTH",
"420 337 OFFCURVE",
"383 287 OFFCURVE",
"266 176 CURVE SMOOTH",
"100 17 LINE SMOOTH",
"93 10 OFFCURVE",
"79 10 OFFCURVE",
"72 18 CURVE SMOOTH",
"64 26 OFFCURVE",
"64 40 OFFCURVE"
);
},
{
closed = 1;
nodes = (
"428 3 CURVE SMOOTH",
"76 3 LINE SMOOTH",
"65 3 OFFCURVE",
"56 12 OFFCURVE",
"56 23 CURVE SMOOTH",
"56 34 OFFCURVE",
"65 43 OFFCURVE",
"76 43 CURVE SMOOTH",
"428 43 LINE SMOOTH",
"439 43 OFFCURVE",
"448 34 OFFCURVE",
"448 23 CURVE SMOOTH",
"448 12 OFFCURVE",
"439 3 OFFCURVE"
);
}
);
width = 508;
},
{
associatedMasterId = "9609CB55-EFEB-482C-9A6C-237B4D7F8578";
layerId = "5D200BA2-F6D2-4370-B935-63AEB6F8DF9F";
name = wire;
width = 508;
},
{
associatedMasterId = "9609CB55-EFEB-482C-9A6C-237B4D7F8578";
layerId = "97FA29E3-CDC4-4F30-BF3D-8EEBD9FCA3B9";
name = mask;
width = 508;
}
);
unicode = 0032;
userData = {
com.typemytype.robofont.layerData = {
mask = {
anchors = (
);
components = (
);
contours = (
);
lib = {
};
name = two;
unicodes = (
);
width = 508;
};
wire = {
anchors = (
);
components = (
);
contours = (
);
lib = {
};
name = two;
unicodes = (
);
width = 508;
};
};
};
},
{
glyphname = three;
lastChange = "2016-04-08 02:21:04 +0000";
layers = (
{
layerId = "9609CB55-EFEB-482C-9A6C-237B4D7F8578";
paths = (
{
closed = 1;
nodes = (
"115 528 CURVE SMOOTH",
"412 528 LINE SMOOTH",
"423 528 OFFCURVE",
"432 519 OFFCURVE",
"432 508 CURVE SMOOTH",
"432 497 OFFCURVE",
"423 488 OFFCURVE",
"412 488 CURVE SMOOTH",
"115 488 LINE SMOOTH",
"104 488 OFFCURVE",
"95 497 OFFCURVE",
"95 508 CURVE SMOOTH",
"95 519 OFFCURVE",
"104 528 OFFCURVE"
);
},
{
closed = 1;
nodes = (
"106 68 CURVE SMOOTH",
"146 51 OFFCURVE",
"196 39 OFFCURVE",
"255 39 CURVE SMOOTH",
"354 39 OFFCURVE",
"402 88 OFFCURVE",
"402 155 CURVE SMOOTH",
"402 220 OFFCURVE",
"351 265 OFFCURVE",
"266 265 CURVE SMOOTH",
"222 265 OFFCURVE",
"186 258 OFFCURVE",
"165 251 CURVE SMOOTH",
"155 248 OFFCURVE",
"143 254 OFFCURVE",
"140 264 CURVE SMOOTH",
"137 274 OFFCURVE",
"143 286 OFFCURVE",
"153 289 CURVE SMOOTH",
"176 296 OFFCURVE",
"216 305 OFFCURVE",
"266 305 CURVE SMOOTH",
"383 305 OFFCURVE",
"452 244 OFFCURVE",
"452 155 CURVE SMOOTH",
"452 66 OFFCURVE",
"388 -1 OFFCURVE",
"255 -1 CURVE SMOOTH",
"190 -1 OFFCURVE",
"134 13 OFFCURVE",
"90 32 CURVE SMOOTH",
"80 36 OFFCURVE",
"75 48 OFFCURVE",
"80 58 CURVE SMOOTH",
"84 68 OFFCURVE",
"96 73 OFFCURVE"
);
},
{
closed = 1;
nodes = (
"417 485 CURVE SMOOTH",
"178 259 LINE SMOOTH",
"170 251 OFFCURVE",
"157 252 OFFCURVE",
"149 260 CURVE SMOOTH",
"142 268 OFFCURVE",
"142 282 OFFCURVE",
"150 289 CURVE SMOOTH",
"389 515 LINE SMOOTH",
"397 523 OFFCURVE",
"410 522 OFFCURVE",
"418 514 CURVE SMOOTH",
"425 506 OFFCURVE",
"425 492 OFFCURVE"
);
}
);
width = 512;
},
{
associatedMasterId = "9609CB55-EFEB-482C-9A6C-237B4D7F8578";
layerId = "A7A16C44-014F-42FA-B7A4-FD2A33386310";
name = wire;
width = 512;
},
{
associatedMasterId = "9609CB55-EFEB-482C-9A6C-237B4D7F8578";
layerId = "5739045A-CE73-4CCA-8060-66AE3A3C06A0";
name = mask;
width = 512;
}
);
unicode = 0033;
userData = {
com.typemytype.robofont.layerData = {
mask = {
anchors = (
);
components = (
);
contours = (
);
lib = {
};
name = three;
unicodes = (
);
width = 512;
};
wire = {
anchors = (
);
components = (
);
contours = (
);
lib = {
};
name = three;
unicodes = (
);
width = 512;
};
};
};
},
{
glyphname = four;
lastChange = "2016-04-08 02:21:04 +0000";
layers = (
{
guideLines = (
{
position = "{277, 570}";
}
);
layerId = "9609CB55-EFEB-482C-9A6C-237B4D7F8578";
paths = (
{
closed = 1;
nodes = (
"392 518 CURVE SMOOTH",
"392 23 LINE SMOOTH",
"392 12 OFFCURVE",
"378 3 OFFCURVE",
"367 3 CURVE SMOOTH",
"356 3 OFFCURVE",
"342 12 OFFCURVE",
"342 23 CURVE SMOOTH",
"342 518 LINE SMOOTH",
"342 529 OFFCURVE",
"356 538 OFFCURVE",
"367 538 CURVE SMOOTH",
"378 538 OFFCURVE",
"392 529 OFFCURVE"
);
},
{
closed = 1;
nodes = (
"376 495 CURVE SMOOTH",
"77 133 LINE SMOOTH",
"71 125 OFFCURVE",
"57 125 OFFCURVE",
"48 132 CURVE SMOOTH",
"40 138 OFFCURVE",
"38 152 OFFCURVE",
"45 161 CURVE SMOOTH",
"344 523 LINE SMOOTH",
"350 531 OFFCURVE",
"364 531 OFFCURVE",
"373 524 CURVE SMOOTH",
"381 518 OFFCURVE",
"383 504 OFFCURVE"
);
},
{
closed = 1;
nodes = (
"71 167 CURVE SMOOTH",
"475 167 LINE SMOOTH",
"486 167 OFFCURVE",
"495 158 OFFCURVE",
"495 147 CURVE SMOOTH",
"495 136 OFFCURVE",
"486 127 OFFCURVE",
"475 127 CURVE SMOOTH",
"71 127 LINE SMOOTH",
"60 127 OFFCURVE",
"51 136 OFFCURVE",
"51 147 CURVE SMOOTH",
"51 158 OFFCURVE",
"60 167 OFFCURVE"
);
}
);
width = 531;
},
{
associatedMasterId = "9609CB55-EFEB-482C-9A6C-237B4D7F8578";
layerId = "3609E576-6028-4DA1-B1B3-7E30FEAABB81";
name = wire;
width = 531;
},
{
associatedMasterId = "9609CB55-EFEB-482C-9A6C-237B4D7F8578";
layerId = "45DA60C8-CA83-4825-8104-2E43A4F6B186";
name = mask;
width = 531;
}
);
unicode = 0034;
userData = {
com.typemytype.robofont.guides = (
{
angle = 0;
isGlobal = 0;
x = 277;
y = 570;
}
);
com.typemytype.robofont.layerData = {
mask = {
anchors = (
);
components = (
);
contours = (
);
lib = {
};
name = four;
unicodes = (
);
width = 531;
};
wire = {
anchors = (
);
components = (
);
contours = (
);
lib = {
};
name = four;
unicodes = (
);
width = 531;
};
};
};
},
{
glyphname = five;
lastChange = "2016-04-08 02:21:04 +0000";
layers = (
{
layerId = "9609CB55-EFEB-482C-9A6C-237B4D7F8578";
paths = (
{
closed = 1;
nodes = (
"144 528 CURVE SMOOTH",
"401 528 LINE SMOOTH",
"412 528 OFFCURVE",
"421 519 OFFCURVE",
"421 508 CURVE SMOOTH",
"421 497 OFFCURVE",
"412 488 OFFCURVE",
"401 488 CURVE SMOOTH",
"144 488 LINE SMOOTH",
"133 488 OFFCURVE",
"124 497 OFFCURVE",
"124 508 CURVE SMOOTH",
"124 519 OFFCURVE",
"133 528 OFFCURVE"
);
},
{
closed = 1;
nodes = (
"104 72 CURVE SMOOTH",
"145 53 OFFCURVE",
"203 39 OFFCURVE",
"266 39 CURVE SMOOTH",
"365 39 OFFCURVE",
"407 97 OFFCURVE",
"407 167 CURVE SMOOTH",
"407 233 OFFCURVE",
"356 283 OFFCURVE",
"270 283 CURVE SMOOTH",
"208 283 OFFCURVE",
"163 267 OFFCURVE",
"133 253 CURVE SMOOTH",
"123 248 OFFCURVE",
"110 253 OFFCURVE",
"106 263 CURVE SMOOTH",
"101 272 OFFCURVE",
"106 285 OFFCURVE",
"115 289 CURVE SMOOTH",
"149 305 OFFCURVE",
"200 323 OFFCURVE",
"270 323 CURVE SMOOTH",
"386 323 OFFCURVE",
"457 257 OFFCURVE",
"457 167 CURVE SMOOTH",
"457 72 OFFCURVE",
"395 -1 OFFCURVE",
"266 -1 CURVE SMOOTH",
"197 -1 OFFCURVE",
"133 15 OFFCURVE",
"88 36 CURVE SMOOTH",
"78 40 OFFCURVE",
"73 53 OFFCURVE",
"78 62 CURVE SMOOTH",
"82 72 OFFCURVE",
"95 77 OFFCURVE"
);
},
{
closed = 1;
nodes = (
"168 499 CURVE SMOOTH",
"149 274 LINE SMOOTH",
"148 263 OFFCURVE",
"133 255 OFFCURVE",
"122 256 CURVE SMOOTH",
"112 257 OFFCURVE",
"98 267 OFFCURVE",
"99 278 CURVE SMOOTH",
"118 503 LINE SMOOTH",
"119 514 OFFCURVE",
"134 522 OFFCURVE",
"145 521 CURVE SMOOTH",
"155 520 OFFCURVE",
"169 510 OFFCURVE"
);
}
);
width = 521;
},
{
associatedMasterId = "9609CB55-EFEB-482C-9A6C-237B4D7F8578";
layerId = "CCD17FA6-5CC4-4816-9BCA-73CDD41870DD";
name = wire;
width = 521;
},
{
associatedMasterId = "9609CB55-EFEB-482C-9A6C-237B4D7F8578";
layerId = "BFB5EEC1-56C9-4FE5-8050-56562FF171B7";
name = mask;
width = 521;
}
);
unicode = 0035;
userData = {
com.typemytype.robofont.layerData = {
mask = {
anchors = (
);
components = (
);
contours = (
);
lib = {
};
name = five;
unicodes = (
);
width = 521;
};
wire = {
anchors = (
);
components = (
);
contours = (
);
lib = {
};
name = five;
unicodes = (
);
width = 521;
};
};
};
},
{
glyphname = six;
lastChange = "2016-04-08 02:21:04 +0000";
layers = (
{
layerId = "9609CB55-EFEB-482C-9A6C-237B4D7F8578";
paths = (
{
closed = 1;
nodes = (
"382 484 CURVE SMOOTH",
"357 492 OFFCURVE",
"336 497 OFFCURVE",
"306 497 CURVE SMOOTH",
"185 497 OFFCURVE",
"120 395 OFFCURVE",
"120 249 CURVE SMOOTH",
"120 116 OFFCURVE",
"183 39 OFFCURVE",
"285 39 CURVE SMOOTH",
"388 39 OFFCURVE",
"427 108 OFFCURVE",
"427 171 CURVE SMOOTH",
"427 239 OFFCURVE",
"379 289 OFFCURVE",
"305 289 CURVE SMOOTH",
"223 289 OFFCURVE",
"161 229 OFFCURVE",
"134 134 CURVE SMOOTH",
"131 123 OFFCURVE",
"116 118 OFFCURVE",
"106 121 CURVE SMOOTH",
"95 124 OFFCURVE",
"85 136 OFFCURVE",
"88 146 CURVE SMOOTH",
"121 267 OFFCURVE",
"207 329 OFFCURVE",
"305 329 CURVE SMOOTH",
"405 329 OFFCURVE",
"477 267 OFFCURVE",
"477 171 CURVE SMOOTH",
"477 86 OFFCURVE",
"420 -1 OFFCURVE",
"285 -1 CURVE SMOOTH",
"163 -1 OFFCURVE",
"70 76 OFFCURVE",
"70 249 CURVE SMOOTH",
"70 435 OFFCURVE",
"165 537 OFFCURVE",
"306 537 CURVE SMOOTH",
"342 537 OFFCURVE",
"365 532 OFFCURVE",
"394 522 CURVE SMOOTH",
"405 519 OFFCURVE",
"410 507 OFFCURVE",
"407 497 CURVE SMOOTH",
"404 486 OFFCURVE",
"392 481 OFFCURVE"
);
}
);
width = 539;
},
{
associatedMasterId = "9609CB55-EFEB-482C-9A6C-237B4D7F8578";
layerId = "DD7BCCA1-6247-4B31-8BE8-B1F6A97A1369";
name = wire;
width = 539;
},
{
associatedMasterId = "9609CB55-EFEB-482C-9A6C-237B4D7F8578";
layerId = "79191217-4FC5-4ED3-9955-B1B98241499D";
name = mask;
width = 539;
}
);
unicode = 0036;
userData = {
com.typemytype.robofont.layerData = {
mask = {
anchors = (
);
components = (
);
contours = (
);
lib = {
};
name = six;
unicodes = (
);
width = 539;
};
wire = {
anchors = (
);
components = (
);
contours = (
);
lib = {
};
name = six;
unicodes = (
);
width = 539;
};
};
};
},
{
glyphname = seven;
lastChange = "2016-04-08 02:21:04 +0000";
layers = (
{
guideLines = (
{
position = "{277, 570}";
}
);
layerId = "9609CB55-EFEB-482C-9A6C-237B4D7F8578";
paths = (
{
closed = 1;
nodes = (
"431 496 CURVE SMOOTH",
"393 425 OFFCURVE",
"290 286 OFFCURVE",
"261 235 CURVE SMOOTH",
"236 189 OFFCURVE",
"217 133 OFFCURVE",
"217 78 CURVE SMOOTH",
"217 23 LINE SMOOTH",
"217 12 OFFCURVE",
"203 3 OFFCURVE",
"192 3 CURVE SMOOTH",
"181 3 OFFCURVE",
"167 12 OFFCURVE",
"167 23 CURVE SMOOTH",
"167 78 LINE SMOOTH",
"167 141 OFFCURVE",
"192 205 OFFCURVE",
"221 257 CURVE SMOOTH",
"250 308 OFFCURVE",
"353 447 OFFCURVE",
"391 518 CURVE SMOOTH",
"396 527 OFFCURVE",
"411 530 OFFCURVE",
"420 525 CURVE SMOOTH",
"430 520 OFFCURVE",
"436 506 OFFCURVE"
);
},
{
closed = 1;
nodes = (
"404 488 CURVE SMOOTH",
"61 488 LINE SMOOTH",
"50 488 OFFCURVE",
"41 497 OFFCURVE",
"41 508 CURVE SMOOTH",
"41 519 OFFCURVE",
"50 528 OFFCURVE",
"61 528 CURVE SMOOTH",
"404 528 LINE SMOOTH",
"415 528 OFFCURVE",
"424 519 OFFCURVE",
"424 508 CURVE SMOOTH",
"424 497 OFFCURVE",
"415 488 OFFCURVE"
);
}
);
width = 466;
},
{
associatedMasterId = "9609CB55-EFEB-482C-9A6C-237B4D7F8578";
layerId = "520DD02A-EC94-4FEA-A5A1-30A4C5F64EA8";
name = wire;
width = 466;
},
{
associatedMasterId = "9609CB55-EFEB-482C-9A6C-237B4D7F8578";
layerId = "E4073F74-1F9A-4F3D-9854-976F7C99AD35";
name = mask;
width = 466;
}
);
unicode = 0037;
userData = {
com.typemytype.robofont.guides = (
{
angle = 0;
isGlobal = 0;
x = 277;
y = 570;
}
);
com.typemytype.robofont.layerData = {
mask = {
anchors = (
);
components = (
);
contours = (
);
lib = {
};
name = seven;
unicodes = (
);
width = 466;
};
wire = {
anchors = (
);
components = (
);
contours = (
);
lib = {
};
name = seven;
unicodes = (
);
width = 466;
};
};
};
},
{
glyphname = eight;
lastChange = "2016-04-08 02:21:04 +0000";
layers = (
{
guideLines = (
{
angle = 90;
position = "{303, 351}";
}
);
layerId = "9609CB55-EFEB-482C-9A6C-237B4D7F8578";
paths = (
{
closed = 1;
nodes = (
"280 305 CURVE SMOOTH",
"407 305 OFFCURVE",
"488 242 OFFCURVE",
"488 150 CURVE SMOOTH",
"488 66 OFFCURVE",
"432 -5 OFFCURVE",
"280 -5 CURVE SMOOTH",
"137 -5 OFFCURVE",
"70 66 OFFCURVE",
"70 149 CURVE SMOOTH",
"70 242 OFFCURVE",
"145 305 OFFCURVE"
);
},
{
closed = 1;
nodes = (
"280 535 CURVE SMOOTH",
"393 535 OFFCURVE",
"462 482 OFFCURVE",
"462 402 CURVE SMOOTH",
"462 327 OFFCURVE",
"403 265 OFFCURVE",
"280 265 CURVE SMOOTH",
"151 265 OFFCURVE",
"96 327 OFFCURVE",
"96 402 CURVE SMOOTH",
"96 482 OFFCURVE",
"161 535 OFFCURVE"
);
},
{
closed = 1;
nodes = (
"280 265 CURVE SMOOTH",
"179 265 OFFCURVE",
"120 220 OFFCURVE",
"120 149 CURVE SMOOTH",
"120 86 OFFCURVE",
"175 35 OFFCURVE",
"280 35 CURVE SMOOTH",
"392 35 OFFCURVE",
"438 86 OFFCURVE",
"438 150 CURVE SMOOTH",
"438 220 OFFCURVE",
"375 265 OFFCURVE"
);
},
{
closed = 1;
nodes = (
"280 495 CURVE SMOOTH",
"197 495 OFFCURVE",
"146 460 OFFCURVE",
"146 402 CURVE SMOOTH",
"146 347 OFFCURVE",
"189 305 OFFCURVE",
"280 305 CURVE SMOOTH",
"367 305 OFFCURVE",
"412 347 OFFCURVE",
"412 402 CURVE SMOOTH",
"412 460 OFFCURVE",
"359 495 OFFCURVE"
);
}
);
width = 558;
},
{
associatedMasterId = "9609CB55-EFEB-482C-9A6C-237B4D7F8578";
layerId = "B58F6579-ACE9-49D6-9593-B7F8EF74FA16";
name = wire;
width = 558;
},
{
associatedMasterId = "9609CB55-EFEB-482C-9A6C-237B4D7F8578";
layerId = "D39BC66B-CFBE-459C-AD15-D07B60429637";
name = mask;
width = 558;
}
);
unicode = 0038;
userData = {
com.typemytype.robofont.guides = (
{
angle = 90;
isGlobal = 0;
x = 303;
y = 351;
}
);
com.typemytype.robofont.layerData = {
mask = {
anchors = (
);
components = (
);
contours = (
);
lib = {
};
name = eight;
unicodes = (
);
width = 558;
};
wire = {
anchors = (
);
components = (
);
contours = (
);
lib = {
};
name = eight;
unicodes = (
);
width = 558;
};
};
};
},
{
glyphname = nine;
lastChange = "2016-04-08 02:21:04 +0000";
layers = (
{
layerId = "9609CB55-EFEB-482C-9A6C-237B4D7F8578";
paths = (
{
closed = 1;
nodes = (
"156 52 CURVE SMOOTH",
"181 46 OFFCURVE",
"202 40 OFFCURVE",
"233 40 CURVE SMOOTH",
"361 40 OFFCURVE",
"416 129 OFFCURVE",
"416 268 CURVE SMOOTH",
"416 405 OFFCURVE",
"356 497 OFFCURVE",
"251 497 CURVE SMOOTH",
"155 497 OFFCURVE",
"112 430 OFFCURVE",
"112 367 CURVE SMOOTH",
"112 289 OFFCURVE",
"157 241 OFFCURVE",
"242 241 CURVE SMOOTH",
"326 241 OFFCURVE",
"375 289 OFFCURVE",
"415 354 CURVE SMOOTH",
"421 363 OFFCURVE",
"435 365 OFFCURVE",
"444 359 CURVE SMOOTH",
"454 353 OFFCURVE",
"459 340 OFFCURVE",
"453 330 CURVE SMOOTH",
"405 251 OFFCURVE",
"342 201 OFFCURVE",
"242 201 CURVE SMOOTH",
"129 201 OFFCURVE",
"62 259 OFFCURVE",
"62 367 CURVE",
"62 452 OFFCURVE",
"125 537 OFFCURVE",
"251 537 CURVE SMOOTH",
"374 537 OFFCURVE",
"466 447 OFFCURVE",
"466 268 CURVE SMOOTH",
"466 91 OFFCURVE",
"383 0 OFFCURVE",
"233 0 CURVE SMOOTH",
"198 0 OFFCURVE",
"173 6 OFFCURVE",
"146 14 CURVE SMOOTH",
"135 16 OFFCURVE",
"129 28 OFFCURVE",
"132 38 CURVE SMOOTH",
"134 49 OFFCURVE",
"146 55 OFFCURVE"
);
}
);
width = 536;
},
{
associatedMasterId = "9609CB55-EFEB-482C-9A6C-237B4D7F8578";
layerId = "7BD52188-339E-42E0-8024-B3D574D9C3F9";
name = wire;
width = 536;
},
{
associatedMasterId = "9609CB55-EFEB-482C-9A6C-237B4D7F8578";
layerId = "41228AD6-668A-44CD-8934-F9AC474D9C0F";
name = mask;
width = 536;
}
);
unicode = 0039;
userData = {
com.typemytype.robofont.layerData = {
mask = {
anchors = (
);
components = (
);
contours = (
);
lib = {
};
name = nine;
unicodes = (
);
width = 536;
};
wire = {
anchors = (
);
components = (
);
contours = (
);
lib = {
};
name = nine;
unicodes = (
);
width = 536;
};
};
};
},
{
glyphname = less;
lastChange = "2016-04-08 02:21:04 +0000";
layers = (
{
guideLines = (
{
position = "{277, 570}";
},
{
position = "{340, 340}";
},
{
position = "{343, 162}";
},
{
position = "{184, 254}";
}
);
layerId = "9609CB55-EFEB-482C-9A6C-237B4D7F8578";
paths = (
{
closed = 1;
nodes = (
"96 285 CURVE SMOOTH",
"406 425 LINE SMOOTH",
"416 430 OFFCURVE",
"428 425 OFFCURVE",
"432 415 CURVE SMOOTH",
"437 405 OFFCURVE",
"432 393 OFFCURVE",
"422 389 CURVE SMOOTH",
"112 249 LINE SMOOTH",
"102 244 OFFCURVE",
"90 249 OFFCURVE",
"86 259 CURVE SMOOTH",
"81 269 OFFCURVE",
"86 281 OFFCURVE"
);
},
{
closed = 1;
nodes = (
"412 99 CURVE SMOOTH",
"90 245 LINE SMOOTH",
"80 249 OFFCURVE",
"75 261 OFFCURVE",
"80 271 CURVE SMOOTH",
"84 281 OFFCURVE",
"96 286 OFFCURVE",
"106 281 CURVE SMOOTH",
"428 135 LINE SMOOTH",
"438 131 OFFCURVE",
"443 119 OFFCURVE",
"438 109 CURVE SMOOTH",
"434 99 OFFCURVE",
"422 94 OFFCURVE"
);
}
);
width = 530;
},
{
associatedMasterId = "9609CB55-EFEB-482C-9A6C-237B4D7F8578";
layerId = "CDE19FC8-166E-4083-811C-FB053DAF5087";
name = wire;
width = 530;
},
{
associatedMasterId = "9609CB55-EFEB-482C-9A6C-237B4D7F8578";
layerId = "42A67933-697E-4347-9BD0-82DB8ED5E7F9";
name = mask;
width = 530;
}
);
leftKerningGroup = hyphen;
unicode = 003C;
userData = {
com.typemytype.robofont.guides = (
{
angle = 0;
isGlobal = 0;
x = 277;
y = 570;
},
{
angle = 0;
isGlobal = 0;
x = 340;
y = 340;
},
{
angle = 0;
isGlobal = 0;
x = 343;
y = 162;
},
{
angle = 0;
isGlobal = 0;
x = 184;
y = 254;
}
);
com.typemytype.robofont.layerData = {
mask = {
anchors = (
);
components = (
);
contours = (
);
lib = {
};
name = less;
unicodes = (
);
width = 530;
};
wire = {
anchors = (
);
components = (
);
contours = (
);
lib = {
};
name = less;
unicodes = (
);
width = 530;
};
};
};
},
{
glyphname = equal;
lastChange = "2016-04-08 02:21:04 +0000";
layers = (
{
guideLines = (
{
position = "{277, 570}";
}
);
layerId = "9609CB55-EFEB-482C-9A6C-237B4D7F8578";
paths = (
{
closed = 1;
nodes = (
"96 377 CURVE SMOOTH",
"433 377 LINE SMOOTH",
"444 377 OFFCURVE",
"453 368 OFFCURVE",
"453 357 CURVE SMOOTH",
"453 346 OFFCURVE",
"444 337 OFFCURVE",
"433 337 CURVE SMOOTH",
"96 337 LINE SMOOTH",
"85 337 OFFCURVE",
"76 346 OFFCURVE",
"76 357 CURVE SMOOTH",
"76 368 OFFCURVE",
"85 377 OFFCURVE"
);
},
{
closed = 1;
nodes = (
"96 179 CURVE SMOOTH",
"433 179 LINE SMOOTH",
"444 179 OFFCURVE",
"453 170 OFFCURVE",
"453 159 CURVE SMOOTH",
"453 148 OFFCURVE",
"444 139 OFFCURVE",
"433 139 CURVE SMOOTH",
"96 139 LINE SMOOTH",
"85 139 OFFCURVE",
"76 148 OFFCURVE",
"76 159 CURVE SMOOTH",
"76 170 OFFCURVE",
"85 179 OFFCURVE"
);
}
);
width = 530;
},
{
associatedMasterId = "9609CB55-EFEB-482C-9A6C-237B4D7F8578";
layerId = "4C0B63E8-F290-49FF-BD6B-70E563D4138E";
name = wire;
width = 530;
},
{
associatedMasterId = "9609CB55-EFEB-482C-9A6C-237B4D7F8578";
layerId = "D4FE22AC-CD86-42B8-A20E-8424C726F7DE";
name = mask;
width = 530;
}
);
unicode = 003D;
userData = {
com.typemytype.robofont.guides = (
{
angle = 0;
isGlobal = 0;
x = 277;
y = 570;
}
);
com.typemytype.robofont.layerData = {
mask = {
anchors = (
);
components = (
);
contours = (
);
lib = {
};
name = equal;
unicodes = (
);
width = 530;
};
wire = {
anchors = (
);
components = (
);
contours = (
);
lib = {
};
name = equal;
unicodes = (
);
width = 530;
};
};
};
},
{
glyphname = question;
lastChange = "2016-04-08 02:21:04 +0000";
layers = (
{
components = (
{
name = period;
transform = "{1, 0, 0, 1, 50, 0}";
},
{
name = period;
transform = "{1, 0, 0, 1, 50, 0}";
}
);
layerId = "9609CB55-EFEB-482C-9A6C-237B4D7F8578";
paths = (
{
closed = 1;
nodes = (
"58 499 CURVE SMOOTH",
"96 523 OFFCURVE",
"133 537 OFFCURVE",
"194 537 CURVE SMOOTH",
"290 537 OFFCURVE",
"342 480 OFFCURVE",
"342 415 CURVE SMOOTH",
"342 356 OFFCURVE",
"296 315 OFFCURVE",
"239 286 CURVE SMOOTH",
"194 263 OFFCURVE",
"185 245 OFFCURVE",
"183 204 CURVE SMOOTH",
"182 193 OFFCURVE",
"168 184 OFFCURVE",
"157 185 CURVE SMOOTH",
"146 186 OFFCURVE",
"132 196 OFFCURVE",
"133 206 CURVE SMOOTH",
"137 267 OFFCURVE",
"158 289 OFFCURVE",
"221 322 CURVE SMOOTH",
"262 343 OFFCURVE",
"292 374 OFFCURVE",
"292 415 CURVE SMOOTH",
"292 458 OFFCURVE",
"258 497 OFFCURVE",
"194 497 CURVE SMOOTH",
"143 497 OFFCURVE",
"112 485 OFFCURVE",
"80 465 CURVE SMOOTH",
"71 459 OFFCURVE",
"58 462 OFFCURVE",
"52 471 CURVE SMOOTH",
"46 481 OFFCURVE",
"49 493 OFFCURVE"
);
}
);
width = 371;
},
{
associatedMasterId = "9609CB55-EFEB-482C-9A6C-237B4D7F8578";
layerId = "EA5CDAE9-BEE9-438E-AB3A-5D1F3E352681";
name = wire;
width = 371;
},
{
associatedMasterId = "9609CB55-EFEB-482C-9A6C-237B4D7F8578";
layerId = "02F019CD-ECBD-4CD5-9D80-2D325A9AB4F7";
name = mask;
width = 371;
}
);
unicode = 003F;
userData = {
com.typemytype.robofont.layerData = {
mask = {
anchors = (
);
components = (
);
contours = (
);
lib = {
};
name = question;
unicodes = (
);
width = 371;
};
wire = {
anchors = (
);
components = (
);
contours = (
);
lib = {
};
name = question;
unicodes = (
);
width = 371;
};
};
};
},
{
glyphname = at;
lastChange = "2016-04-08 02:21:04 +0000";
layers = (
{
layerId = "9609CB55-EFEB-482C-9A6C-237B4D7F8578";
paths = (
{
closed = 1;
nodes = (
"447 380 CURVE SMOOTH",
"447 250 LINE SMOOTH",
"447 208 OFFCURVE",
"468 173 OFFCURVE",
"504 173 CURVE SMOOTH",
"546 173 OFFCURVE",
"566 219 OFFCURVE",
"566 275 CURVE SMOOTH",
"566 389 OFFCURVE",
"484 498 OFFCURVE",
"336 498 CURVE SMOOTH",
"198 498 OFFCURVE",
"101 388 OFFCURVE",
"101 261 CURVE SMOOTH",
"101 134 OFFCURVE",
"196 33 OFFCURVE",
"339 33 CURVE SMOOTH",
"398 33 OFFCURVE",
"447 46 OFFCURVE",
"484 62 CURVE SMOOTH",
"494 67 OFFCURVE",
"506 62 OFFCURVE",
"510 52 CURVE SMOOTH",
"515 42 OFFCURVE",
"510 30 OFFCURVE",
"500 26 CURVE SMOOTH",
"459 8 OFFCURVE",
"404 -7 OFFCURVE",
"339 -7 CURVE SMOOTH",
"170 -7 OFFCURVE",
"51 108 OFFCURVE",
"51 261 CURVE",
"51 414 OFFCURVE",
"174 538 OFFCURVE",
"336 538 CURVE SMOOTH",
"510 538 OFFCURVE",
"616 413 OFFCURVE",
"616 275 CURVE SMOOTH",
"616 175 OFFCURVE",
"562 133 OFFCURVE",
"504 133 CURVE SMOOTH",
"450 133 OFFCURVE",
"397 170 OFFCURVE",
"397 250 CURVE SMOOTH",
"397 380 LINE SMOOTH",
"397 391 OFFCURVE",
"411 400 OFFCURVE",
"422 400 CURVE SMOOTH",
"433 400 OFFCURVE",
"447 391 OFFCURVE"
);
},
{
closed = 1;
nodes = (
"411 336 CURVE SMOOTH",
"388 351 OFFCURVE",
"364 360 OFFCURVE",
"331 360 CURVE SMOOTH",
"281 360 OFFCURVE",
"245 317 OFFCURVE",
"245 257 CURVE SMOOTH",
"245 209 OFFCURVE",
"274 174 OFFCURVE",
"313 174 CURVE SMOOTH",
"347 174 OFFCURVE",
"379 197 OFFCURVE",
"402 236 CURVE SMOOTH",
"407 246 OFFCURVE",
"422 248 OFFCURVE",
"431 242 CURVE SMOOTH",
"440 237 OFFCURVE",
"446 223 OFFCURVE",
"440 214 CURVE SMOOTH",
"407 157 OFFCURVE",
"359 134 OFFCURVE",
"313 134 CURVE SMOOTH",
"256 134 OFFCURVE",
"195 175 OFFCURVE",
"195 257 CURVE SMOOTH",
"195 351 OFFCURVE",
"261 400 OFFCURVE",
"331 400 CURVE SMOOTH",
"372 400 OFFCURVE",
"404 389 OFFCURVE",
"433 370 CURVE SMOOTH",
"442 364 OFFCURVE",
"445 351 OFFCURVE",
"439 342 CURVE SMOOTH",
"433 333 OFFCURVE",
"420 330 OFFCURVE"
);
}
);
width = 665;
},
{
associatedMasterId = "9609CB55-EFEB-482C-9A6C-237B4D7F8578";
layerId = "3BB583D4-1BB8-48EB-9DCD-443BA5CF84B7";
name = wire;
width = 665;
},
{
associatedMasterId = "9609CB55-EFEB-482C-9A6C-237B4D7F8578";
layerId = "6AA8369B-7956-428B-A7E2-6D7BB4D24731";
name = mask;
width = 665;
}
);
leftKerningGroup = O;
rightKerningGroup = O;
unicode = 0040;
userData = {
com.typemytype.robofont.layerData = {
mask = {
anchors = (
);
components = (
);
contours = (
);
lib = {
};
name = at;
unicodes = (
);
width = 665;
};
wire = {
anchors = (
);
components = (
);
contours = (
);
lib = {
};
name = at;
unicodes = (
);
width = 665;
};
};
};
},
{
glyphname = A;
lastChange = "2016-04-08 02:22:56 +0000";
layers = (
{
anchors = (
{
name = top;
position = "{284, 534}";
}
);
guideLines = (
{
position = "{277, 570}";
}
);
layerId = "9609CB55-EFEB-482C-9A6C-237B4D7F8578";
paths = (
{
closed = 1;
nodes = (
"302 508 CURVE SMOOTH",
"234 355 OFFCURVE",
"140 141 OFFCURVE",
"95 15 CURVE SMOOTH",
"92 5 OFFCURVE",
"76 1 OFFCURVE",
"66 4 CURVE SMOOTH",
"56 8 OFFCURVE",
"47 21 OFFCURVE",
"51 31 CURVE SMOOTH",
"96 157 OFFCURVE",
"192 373 OFFCURVE",
"260 526 CURVE SMOOTH",
"264 536 OFFCURVE",
"279 540 OFFCURVE",
"289 535 CURVE SMOOTH",
"299 531 OFFCURVE",
"307 517 OFFCURVE"
);
},
{
closed = 1;
nodes = (
"308 527 CURVE SMOOTH",
"380 372 OFFCURVE",
"479 155 OFFCURVE",
"527 32 CURVE SMOOTH",
"531 21 OFFCURVE",
"522 8 OFFCURVE",
"512 4 CURVE SMOOTH",
"502 0 OFFCURVE",
"487 4 OFFCURVE",
"483 14 CURVE SMOOTH",
"435 137 OFFCURVE",
"338 354 OFFCURVE",
"266 507 CURVE SMOOTH",
"262 517 OFFCURVE",
"269 531 OFFCURVE",
"279 535 CURVE SMOOTH",
"288 540 OFFCURVE",
"303 537 OFFCURVE"
);
},
{
closed = 1;
nodes = (
"142 188 CURVE SMOOTH",
"433 188 LINE SMOOTH",
"444 188 OFFCURVE",
"453 179 OFFCURVE",
"453 168 CURVE SMOOTH",
"453 157 OFFCURVE",
"444 148 OFFCURVE",
"433 148 CURVE SMOOTH",
"142 148 LINE SMOOTH",
"131 148 OFFCURVE",
"122 157 OFFCURVE",
"122 168 CURVE SMOOTH",
"122 179 OFFCURVE",
"131 188 OFFCURVE"
);
}
);
width = 580;
},
{
associatedMasterId = "9609CB55-EFEB-482C-9A6C-237B4D7F8578";
layerId = "D9F88339-CB49-4CE1-A405-4A7AA3AFA22D";
name = wire;
width = 580;
},
{
associatedMasterId = "9609CB55-EFEB-482C-9A6C-237B4D7F8578";
layerId = "1613432B-E672-468D-8CC2-111E52C875C6";
name = mask;
width = 580;
}
);
leftKerningGroup = A;
rightKerningGroup = A;
unicode = 0041;
userData = {
com.typemytype.robofont.guides = (
{
angle = 0;
isGlobal = 0;
x = 277;
y = 570;
}
);
com.typemytype.robofont.layerData = {
mask = {
anchors = (
);
components = (
);
contours = (
);
lib = {
};
name = A;
unicodes = (
);
width = 580;
};
wire = {
anchors = (
);
components = (
);
contours = (
);
lib = {
};
name = A;
unicodes = (
);
width = 580;
};
};
};
},
{
glyphname = B;
lastChange = "2016-04-08 02:21:04 +0000";
layers = (
{
layerId = "9609CB55-EFEB-482C-9A6C-237B4D7F8578";
paths = (
{
closed = 1;
nodes = (
"132 303 CURVE SMOOTH",
"281 303 LINE SMOOTH",
"339 303 OFFCURVE",
"392 283 OFFCURVE",
"423 252 CURVE SMOOTH",
"452 223 OFFCURVE",
"470 190 OFFCURVE",
"470 150 CURVE SMOOTH",
"470 114 OFFCURVE",
"453 79 OFFCURVE",
"426 52 CURVE SMOOTH",
"397 23 OFFCURVE",
"353 3 OFFCURVE",
"278 3 CURVE SMOOTH",
"123 3 LINE SMOOTH",
"109 3 OFFCURVE",
"98 12 OFFCURVE",
"98 23 CURVE SMOOTH",
"98 508 LINE SMOOTH",
"98 519 OFFCURVE",
"109 528 OFFCURVE",
"123 528 CURVE SMOOTH",
"262 528 LINE SMOOTH",
"319 528 OFFCURVE",
"358 510 OFFCURVE",
"382 486 CURVE SMOOTH",
"403 464 OFFCURVE",
"422 429 OFFCURVE",
"422 397 CURVE SMOOTH",
"422 361 OFFCURVE",
"403 329 OFFCURVE",
"382 307 CURVE SMOOTH",
"361 287 OFFCURVE",
"321 266 OFFCURVE",
"274 263 CURVE SMOOTH",
"264 262 OFFCURVE",
"254 271 OFFCURVE",
"253 282 CURVE SMOOTH",
"252 292 OFFCURVE",
"261 302 OFFCURVE",
"272 303 CURVE SMOOTH",
"307 306 OFFCURVE",
"337 321 OFFCURVE",
"352 337 CURVE SMOOTH",
"367 351 OFFCURVE",
"372 375 OFFCURVE",
"372 397 CURVE SMOOTH",
"372 417 OFFCURVE",
"367 442 OFFCURVE",
"352 456 CURVE SMOOTH",
"334 474 OFFCURVE",
"305 488 OFFCURVE",
"262 488 CURVE SMOOTH",
"123 488 LINE",
"148 508 LINE",
"148 23 LINE",
"123 43 LINE",
"278 43 LINE SMOOTH",
"337 43 OFFCURVE",
"373 59 OFFCURVE",
"396 82 CURVE SMOOTH",
"415 101 OFFCURVE",
"420 126 OFFCURVE",
"420 150 CURVE SMOOTH",
"420 176 OFFCURVE",
"414 201 OFFCURVE",
"393 222 CURVE SMOOTH",
"368 247 OFFCURVE",
"327 263 OFFCURVE",
"281 263 CURVE SMOOTH",
"132 263 LINE SMOOTH",
"121 263 OFFCURVE",
"112 272 OFFCURVE",
"112 283 CURVE SMOOTH",
"112 294 OFFCURVE",
"121 303 OFFCURVE"
);
}
);
width = 528;
},
{
associatedMasterId = "9609CB55-EFEB-482C-9A6C-237B4D7F8578";
layerId = "F35AE7F8-8AC5-4A2F-8C93-2E9D07ECD846";
name = wire;
width = 528;
},
{
associatedMasterId = "9609CB55-EFEB-482C-9A6C-237B4D7F8578";
layerId = "4E7938D1-6263-4C5F-BA75-FAF2C1CEB3F2";
name = mask;
width = 528;
}
);
unicode = 0042;
userData = {
com.typemytype.robofont.layerData = {
mask = {
anchors = (
);
components = (
);
contours = (
);
lib = {
};
name = B;
unicodes = (
);
width = 528;
};
wire = {
anchors = (
);
components = (
);
contours = (
);
lib = {
};
name = B;
unicodes = (
);
width = 528;
};
};
};
},
{
glyphname = C;
lastChange = "2016-04-08 02:23:38 +0000";
layers = (
{
anchors = (
{
name = bottom;
position = "{340, -6}";
},
{
name = top;
position = "{327, 537}";
}
);
layerId = "9609CB55-EFEB-482C-9A6C-237B4D7F8578";
paths = (
{
closed = 1;
nodes = (
"460 470 CURVE SMOOTH",
"430 487 OFFCURVE",
"383 497 OFFCURVE",
"334 497 CURVE SMOOTH",
"211 497 OFFCURVE",
"111 400 OFFCURVE",
"111 262 CURVE SMOOTH",
"111 136 OFFCURVE",
"192 34 OFFCURVE",
"340 34 CURVE SMOOTH",
"388 34 OFFCURVE",
"431 44 OFFCURVE",
"466 62 CURVE SMOOTH",
"475 67 OFFCURVE",
"488 63 OFFCURVE",
"493 53 CURVE SMOOTH",
"498 44 OFFCURVE",
"494 31 OFFCURVE",
"484 26 CURVE SMOOTH",
"445 6 OFFCURVE",
"396 -6 OFFCURVE",
"340 -6 CURVE SMOOTH",
"166 -6 OFFCURVE",
"61 108 OFFCURVE",
"61 262 CURVE",
"61 430 OFFCURVE",
"191 537 OFFCURVE",
"334 537 CURVE SMOOTH",
"391 537 OFFCURVE",
"444 525 OFFCURVE",
"480 506 CURVE SMOOTH",
"489 500 OFFCURVE",
"493 488 OFFCURVE",
"488 478 CURVE SMOOTH",
"482 469 OFFCURVE",
"470 465 OFFCURVE"
);
}
);
width = 566;
},
{
associatedMasterId = "9609CB55-EFEB-482C-9A6C-237B4D7F8578";
layerId = "A6630B6B-E131-418B-B5EA-6BF96E3C3E46";
name = wire;
width = 566;
},
{
associatedMasterId = "9609CB55-EFEB-482C-9A6C-237B4D7F8578";
layerId = "4FB9D8D7-4E8A-4F26-AB4B-838363E84B00";
name = mask;
width = 566;
}
);
leftKerningGroup = O;
rightKerningGroup = C;
unicode = 0043;
userData = {
com.typemytype.robofont.layerData = {
mask = {
anchors = (
);
components = (
);
contours = (
);
lib = {
};
name = C;
unicodes = (
);
width = 566;
};
wire = {
anchors = (
);
components = (
);
contours = (
);
lib = {
};
name = C;
unicodes = (
);
width = 566;
};
};
};
},
{
glyphname = D;
lastChange = "2016-04-08 02:23:49 +0000";
layers = (
{
anchors = (
{
name = top;
position = "{264, 527}";
}
);
layerId = "9609CB55-EFEB-482C-9A6C-237B4D7F8578";
paths = (
{
closed = 1;
nodes = (
"299 3 CURVE SMOOTH",
"123 3 LINE SMOOTH",
"109 3 OFFCURVE",
"98 12 OFFCURVE",
"98 23 CURVE SMOOTH",
"98 508 LINE SMOOTH",
"98 519 OFFCURVE",
"109 528 OFFCURVE",
"123 528 CURVE SMOOTH",
"299 528 LINE SMOOTH",
"429 528 OFFCURVE",
"551 424 OFFCURVE",
"551 266 CURVE SMOOTH",
"551 116 OFFCURVE",
"448 3 OFFCURVE"
);
},
{
closed = 1;
nodes = (
"299 43 LINE SMOOTH",
"426 43 OFFCURVE",
"501 146 OFFCURVE",
"501 266 CURVE SMOOTH",
"501 392 OFFCURVE",
"409 488 OFFCURVE",
"299 488 CURVE SMOOTH",
"123 488 LINE",
"148 508 LINE",
"148 23 LINE",
"123 43 LINE"
);
}
);
width = 612;
},
{
associatedMasterId = "9609CB55-EFEB-482C-9A6C-237B4D7F8578";
layerId = "3834DF38-966F-4669-88B1-2FB08C37FE57";
name = wire;
width = 612;
},
{
associatedMasterId = "9609CB55-EFEB-482C-9A6C-237B4D7F8578";
layerId = "7444FE4A-69D2-4880-873F-71A49E5F22A1";
name = mask;
width = 612;
}
);
rightKerningGroup = O;
unicode = 0044;
userData = {
com.typemytype.robofont.layerData = {
mask = {
anchors = (
);
components = (
);
contours = (
);
lib = {
};
name = D;
unicodes = (
);
width = 612;
};
wire = {
anchors = (
);
components = (
);
contours = (
);
lib = {
};
name = D;
unicodes = (
);
width = 612;
};
};
};
},
{
glyphname = E;
lastChange = "2016-04-08 02:24:03 +0000";
layers = (
{
anchors = (
{
name = top;
position = "{265, 528}";
}
);
guideLines = (
{
position = "{277, 570}";
}
);
layerId = "9609CB55-EFEB-482C-9A6C-237B4D7F8578";
paths = (
{
closed = 1;
nodes = (
"148 508 CURVE SMOOTH",
"148 23 LINE SMOOTH",
"148 12 OFFCURVE",
"134 3 OFFCURVE",
"123 3 CURVE SMOOTH",
"112 3 OFFCURVE",
"98 12 OFFCURVE",
"98 23 CURVE SMOOTH",
"98 508 LINE SMOOTH",
"98 519 OFFCURVE",
"112 528 OFFCURVE",
"123 528 CURVE SMOOTH",
"134 528 OFFCURVE",
"148 519 OFFCURVE"
);
},
{
closed = 1;
nodes = (
"131 43 CURVE SMOOTH",
"402 43 LINE SMOOTH",
"413 43 OFFCURVE",
"422 34 OFFCURVE",
"422 23 CURVE SMOOTH",
"422 12 OFFCURVE",
"413 3 OFFCURVE",
"402 3 CURVE SMOOTH",
"131 3 LINE SMOOTH",
"120 3 OFFCURVE",
"111 12 OFFCURVE",
"111 23 CURVE SMOOTH",
"111 34 OFFCURVE",
"120 43 OFFCURVE"
);
},
{
closed = 1;
nodes = (
"131 528 CURVE SMOOTH",
"400 528 LINE SMOOTH",
"411 528 OFFCURVE",
"420 519 OFFCURVE",
"420 508 CURVE SMOOTH",
"420 497 OFFCURVE",
"411 488 OFFCURVE",
"400 488 CURVE SMOOTH",
"131 488 LINE SMOOTH",
"120 488 OFFCURVE",
"111 497 OFFCURVE",
"111 508 CURVE SMOOTH",
"111 519 OFFCURVE",
"120 528 OFFCURVE"
);
},
{
closed = 1;
nodes = (
"131 304 CURVE SMOOTH",
"357 304 LINE SMOOTH",
"368 304 OFFCURVE",
"377 295 OFFCURVE",
"377 284 CURVE SMOOTH",
"377 273 OFFCURVE",
"368 264 OFFCURVE",
"357 264 CURVE SMOOTH",
"131 264 LINE SMOOTH",
"120 264 OFFCURVE",
"111 273 OFFCURVE",
"111 284 CURVE SMOOTH",
"111 295 OFFCURVE",
"120 304 OFFCURVE"
);
}
);
width = 487;
},
{
associatedMasterId = "9609CB55-EFEB-482C-9A6C-237B4D7F8578";
layerId = "76ABBE9E-D005-4F92-8456-D4E5894269AC";
name = wire;
width = 487;
},
{
associatedMasterId = "9609CB55-EFEB-482C-9A6C-237B4D7F8578";
layerId = "C1DB3C69-CAE1-4ABD-85FE-5038706AD50A";
name = mask;
width = 487;
}
);
rightKerningGroup = E;
unicode = 0045;
userData = {
com.typemytype.robofont.guides = (
{
angle = 0;
isGlobal = 0;
x = 277;
y = 570;
}
);
com.typemytype.robofont.layerData = {
mask = {
anchors = (
);
components = (
);
contours = (
);
lib = {
};
name = E;
unicodes = (
);
width = 487;
};
wire = {
anchors = (
);
components = (
);
contours = (
);
lib = {
};
name = E;
unicodes = (
);
width = 487;
};
};
};
},
{
glyphname = F;
lastChange = "2016-04-08 02:21:04 +0000";
layers = (
{
guideLines = (
{
position = "{277, 570}";
}
);
layerId = "9609CB55-EFEB-482C-9A6C-237B4D7F8578";
paths = (
{
closed = 1;
nodes = (
"148 508 CURVE SMOOTH",
"148 23 LINE SMOOTH",
"148 12 OFFCURVE",
"134 3 OFFCURVE",
"123 3 CURVE SMOOTH",
"112 3 OFFCURVE",
"98 12 OFFCURVE",
"98 23 CURVE SMOOTH",
"98 508 LINE SMOOTH",
"98 519 OFFCURVE",
"112 528 OFFCURVE",
"123 528 CURVE SMOOTH",
"134 528 OFFCURVE",
"148 519 OFFCURVE"
);
},
{
closed = 1;
nodes = (
"131 528 CURVE SMOOTH",
"408 528 LINE SMOOTH",
"419 528 OFFCURVE",
"428 519 OFFCURVE",
"428 508 CURVE SMOOTH",
"428 497 OFFCURVE",
"419 488 OFFCURVE",
"408 488 CURVE SMOOTH",
"131 488 LINE SMOOTH",
"120 488 OFFCURVE",
"111 497 OFFCURVE",
"111 508 CURVE SMOOTH",
"111 519 OFFCURVE",
"120 528 OFFCURVE"
);
},
{
closed = 1;
nodes = (
"131 285 CURVE SMOOTH",
"357 285 LINE SMOOTH",
"368 285 OFFCURVE",
"377 276 OFFCURVE",
"377 265 CURVE SMOOTH",
"377 254 OFFCURVE",
"368 245 OFFCURVE",
"357 245 CURVE SMOOTH",
"131 245 LINE SMOOTH",
"120 245 OFFCURVE",
"111 254 OFFCURVE",
"111 265 CURVE SMOOTH",
"111 276 OFFCURVE",
"120 285 OFFCURVE"
);
}
);
width = 475;
},
{
associatedMasterId = "9609CB55-EFEB-482C-9A6C-237B4D7F8578";
layerId = "8E8044FC-93F6-4901-AF2E-295E427B3E0A";
name = wire;
width = 475;
},
{
associatedMasterId = "9609CB55-EFEB-482C-9A6C-237B4D7F8578";
layerId = "2A126B0D-DA32-47ED-A185-0745A75EC83E";
name = mask;
width = 475;
}
);
unicode = 0046;
userData = {
com.typemytype.robofont.guides = (
{
angle = 0;
isGlobal = 0;
x = 277;
y = 570;
}
);
com.typemytype.robofont.layerData = {
mask = {
anchors = (
);
components = (
);
contours = (
);
lib = {
};
name = F;
unicodes = (
);
width = 475;
};
wire = {
anchors = (
);
components = (
);
contours = (
);
lib = {
};
name = F;
unicodes = (
);
width = 475;
};
};
};
},
{
glyphname = G;
lastChange = "2016-04-08 02:24:22 +0000";
layers = (
{
anchors = (
{
name = top;
position = "{326, 537}";
}
);
layerId = "9609CB55-EFEB-482C-9A6C-237B4D7F8578";
paths = (
{
closed = 1;
nodes = (
"496 473 OFFCURVE",
"484 467 OFFCURVE",
"474 471 CURVE SMOOTH",
"434 487 OFFCURVE",
"388 497 OFFCURVE",
"335 497 CURVE SMOOTH",
"202 497 OFFCURVE",
"111 400 OFFCURVE",
"111 262 CURVE SMOOTH",
"111 138 OFFCURVE",
"189 34 OFFCURVE",
"332 34 CURVE SMOOTH",
"404 34 OFFCURVE",
"457 53 OFFCURVE",
"500 80 CURVE SMOOTH",
"509 86 OFFCURVE",
"522 83 OFFCURVE",
"528 74 CURVE SMOOTH",
"534 65 OFFCURVE",
"531 52 OFFCURVE",
"522 46 CURVE SMOOTH",
"473 15 OFFCURVE",
"414 -6 OFFCURVE",
"332 -6 CURVE SMOOTH",
"163 -6 OFFCURVE",
"61 110 OFFCURVE",
"61 262 CURVE",
"61 430 OFFCURVE",
"180 537 OFFCURVE",
"335 537 CURVE SMOOTH",
"394 537 OFFCURVE",
"444 525 OFFCURVE",
"488 509 CURVE SMOOTH",
"498 505 OFFCURVE",
"504 493 OFFCURVE",
"500 483 CURVE SMOOTH"
);
},
{
closed = 1;
nodes = (
"501 53 OFFCURVE",
"487 62 OFFCURVE",
"487 73 CURVE SMOOTH",
"487 247 LINE SMOOTH",
"487 258 OFFCURVE",
"501 267 OFFCURVE",
"512 267 CURVE SMOOTH",
"523 267 OFFCURVE",
"537 258 OFFCURVE",
"537 247 CURVE SMOOTH",
"537 73 LINE SMOOTH",
"537 62 OFFCURVE",
"523 53 OFFCURVE",
"512 53 CURVE SMOOTH"
);
},
{
closed = 1;
nodes = (
"521 236 OFFCURVE",
"512 227 OFFCURVE",
"501 227 CURVE SMOOTH",
"348 227 LINE SMOOTH",
"337 227 OFFCURVE",
"328 236 OFFCURVE",
"328 247 CURVE SMOOTH",
"328 258 OFFCURVE",
"337 267 OFFCURVE",
"348 267 CURVE SMOOTH",
"501 267 LINE SMOOTH",
"512 267 OFFCURVE",
"521 258 OFFCURVE",
"521 247 CURVE SMOOTH"
);
}
);
width = 618;
},
{
associatedMasterId = "9609CB55-EFEB-482C-9A6C-237B4D7F8578";
layerId = "D4420F66-C3D4-48C0-BE6F-DCF55A1E05BC";
name = wire;
width = 618;
},
{
associatedMasterId = "9609CB55-EFEB-482C-9A6C-237B4D7F8578";
layerId = "F3975DF5-C89F-4164-81BD-0E8F96BF1496";
name = mask;
width = 618;
}
);
leftKerningGroup = O;
unicode = 0047;
userData = {
com.typemytype.robofont.layerData = {
mask = {
anchors = (
);
components = (
);
contours = (
);
lib = {
};
name = G;
unicodes = (
);
width = 618;
};
wire = {
anchors = (
);
components = (
);
contours = (
);
lib = {
};
name = G;
unicodes = (
);
width = 618;
};
};
};
},
{
glyphname = H;
lastChange = "2016-04-08 02:21:04 +0000";
layers = (
{
guideLines = (
{
position = "{277, 570}";
}
);
layerId = "9609CB55-EFEB-482C-9A6C-237B4D7F8578";
paths = (
{
closed = 1;
nodes = (
"148 508 CURVE SMOOTH",
"148 23 LINE SMOOTH",
"148 12 OFFCURVE",
"134 3 OFFCURVE",
"123 3 CURVE SMOOTH",
"112 3 OFFCURVE",
"98 12 OFFCURVE",
"98 23 CURVE SMOOTH",
"98 508 LINE SMOOTH",
"98 519 OFFCURVE",
"112 528 OFFCURVE",
"123 528 CURVE SMOOTH",
"134 528 OFFCURVE",
"148 519 OFFCURVE"
);
},
{
closed = 1;
nodes = (
"533 508 CURVE SMOOTH",
"533 23 LINE SMOOTH",
"533 12 OFFCURVE",
"519 3 OFFCURVE",
"508 3 CURVE SMOOTH",
"497 3 OFFCURVE",
"483 12 OFFCURVE",
"483 23 CURVE SMOOTH",
"483 508 LINE SMOOTH",
"483 519 OFFCURVE",
"497 528 OFFCURVE",
"508 528 CURVE SMOOTH",
"519 528 OFFCURVE",
"533 519 OFFCURVE"
);
},
{
closed = 1;
nodes = (
"127 303 CURVE SMOOTH",
"507 303 LINE SMOOTH",
"518 303 OFFCURVE",
"527 294 OFFCURVE",
"527 283 CURVE SMOOTH",
"527 272 OFFCURVE",
"518 263 OFFCURVE",
"507 263 CURVE SMOOTH",
"127 263 LINE SMOOTH",
"116 263 OFFCURVE",
"107 272 OFFCURVE",
"107 283 CURVE SMOOTH",
"107 294 OFFCURVE",
"116 303 OFFCURVE"
);
}
);
width = 631;
},
{
associatedMasterId = "9609CB55-EFEB-482C-9A6C-237B4D7F8578";
layerId = "A18353A7-208F-4014-B213-6DF8DF9FC6F5";
name = wire;
width = 631;
},
{
associatedMasterId = "9609CB55-EFEB-482C-9A6C-237B4D7F8578";
layerId = "A81BBC6A-E31A-499E-A3DA-859653D392E7";
name = mask;
width = 631;
}
);
unicode = 0048;
userData = {
com.typemytype.robofont.guides = (
{
angle = 0;
isGlobal = 0;
x = 277;
y = 570;
}
);
com.typemytype.robofont.layerData = {
mask = {
anchors = (
);
components = (
);
contours = (
);
lib = {
};
name = H;
unicodes = (
);
width = 631;
};
wire = {
anchors = (
);
components = (
);
contours = (
);
lib = {
};
name = H;
unicodes = (
);
width = 631;
};
};
};
},
{
glyphname = I;
lastChange = "2016-04-08 02:24:34 +0000";
layers = (
{
anchors = (
{
name = top;
position = "{128, 528}";
}
);
guideLines = (
{
position = "{277, 570}";
}
);
layerId = "9609CB55-EFEB-482C-9A6C-237B4D7F8578";
paths = (
{
closed = 1;
nodes = (
"153 508 CURVE SMOOTH",
"153 23 LINE SMOOTH",
"153 12 OFFCURVE",
"139 3 OFFCURVE",
"128 3 CURVE SMOOTH",
"117 3 OFFCURVE",
"103 12 OFFCURVE",
"103 23 CURVE SMOOTH",
"103 508 LINE SMOOTH",
"103 519 OFFCURVE",
"117 528 OFFCURVE",
"128 528 CURVE SMOOTH",
"139 528 OFFCURVE",
"153 519 OFFCURVE"
);
}
);
width = 256;
},
{
associatedMasterId = "9609CB55-EFEB-482C-9A6C-237B4D7F8578";
layerId = "9ED04604-F840-47E4-A19D-8BBAF53696EA";
name = wire;
width = 256;
},
{
associatedMasterId = "9609CB55-EFEB-482C-9A6C-237B4D7F8578";
layerId = "5DBE2624-E198-4F01-B2C3-89E0F6A4C58A";
name = mask;
width = 256;
}
);
unicode = 0049;
userData = {
com.typemytype.robofont.guides = (
{
angle = 0;
isGlobal = 0;
x = 277;
y = 570;
}
);
com.typemytype.robofont.layerData = {
mask = {
anchors = (
);
components = (
);
contours = (
);
lib = {
};
name = I;
unicodes = (
);
width = 256;
};
wire = {
anchors = (
);
components = (
);
contours = (
);
lib = {
};
name = I;
unicodes = (
);
width = 256;
};
};
};
},
{
glyphname = J;
lastChange = "2016-04-08 02:21:04 +0000";
layers = (
{
layerId = "9609CB55-EFEB-482C-9A6C-237B4D7F8578";
paths = (
{
closed = 1;
nodes = (
"79 51 CURVE SMOOTH",
"106 40 OFFCURVE",
"133 34 OFFCURVE",
"160 34 CURVE SMOOTH",
"228 34 OFFCURVE",
"253 86 OFFCURVE",
"253 165 CURVE SMOOTH",
"253 508 LINE SMOOTH",
"253 519 OFFCURVE",
"267 528 OFFCURVE",
"278 528 CURVE SMOOTH",
"289 528 OFFCURVE",
"303 519 OFFCURVE",
"303 508 CURVE SMOOTH",
"303 165 LINE SMOOTH",
"303 44 OFFCURVE",
"248 -6 OFFCURVE",
"160 -6 CURVE SMOOTH",
"127 -6 OFFCURVE",
"94 0 OFFCURVE",
"63 15 CURVE SMOOTH",
"53 19 OFFCURVE",
"48 31 OFFCURVE",
"53 41 CURVE SMOOTH",
"57 51 OFFCURVE",
"69 56 OFFCURVE"
);
}
);
width = 389;
},
{
associatedMasterId = "9609CB55-EFEB-482C-9A6C-237B4D7F8578";
layerId = "6DA50A9D-B51F-476E-8211-0178179FDC1B";
name = wire;
width = 389;
},
{
associatedMasterId = "9609CB55-EFEB-482C-9A6C-237B4D7F8578";
layerId = "C95736CF-8692-45EA-995C-B6202DAAC04E";
name = mask;
width = 389;
}
);
unicode = 004A;
userData = {
com.typemytype.robofont.layerData = {
mask = {
anchors = (
);
components = (
);
contours = (
);
lib = {
};
name = J;
unicodes = (
);
width = 389;
};
wire = {
anchors = (
);
components = (
);
contours = (
);
lib = {
};
name = J;
unicodes = (
);
width = 389;
};
};
};
},
{
glyphname = K;
lastChange = "2016-04-08 02:24:58 +0000";
layers = (
{
anchors = (
{
name = bottom;
position = "{291, 9}";
}
);
guideLines = (
{
position = "{277, 570}";
}
);
layerId = "9609CB55-EFEB-482C-9A6C-237B4D7F8578";
paths = (
{
closed = 1;
nodes = (
"148 508 CURVE SMOOTH",
"148 23 LINE SMOOTH",
"148 12 OFFCURVE",
"134 3 OFFCURVE",
"123 3 CURVE SMOOTH",
"112 3 OFFCURVE",
"98 12 OFFCURVE",
"98 23 CURVE SMOOTH",
"98 508 LINE SMOOTH",
"98 519 OFFCURVE",
"112 528 OFFCURVE",
"123 528 CURVE SMOOTH",
"134 528 OFFCURVE",
"148 519 OFFCURVE"
);
},
{
closed = 1;
nodes = (
"263 315 CURVE SMOOTH",
"320 246 OFFCURVE",
"440 100 OFFCURVE",
"495 37 CURVE SMOOTH",
"502 29 OFFCURVE",
"500 15 OFFCURVE",
"492 8 CURVE SMOOTH",
"484 1 OFFCURVE",
"470 1 OFFCURVE",
"463 9 CURVE SMOOTH",
"408 72 OFFCURVE",
"288 218 OFFCURVE",
"231 287 CURVE SMOOTH",
"224 296 OFFCURVE",
"226 310 OFFCURVE",
"234 316 CURVE SMOOTH",
"243 323 OFFCURVE",
"257 323 OFFCURVE"
);
},
{
closed = 1;
nodes = (
"109 206 CURVE SMOOTH",
"157 250 OFFCURVE",
"344 418 OFFCURVE",
"444 522 CURVE SMOOTH",
"451 530 OFFCURVE",
"465 530 OFFCURVE",
"473 522 CURVE SMOOTH",
"481 515 OFFCURVE",
"482 501 OFFCURVE",
"474 494 CURVE SMOOTH",
"374 388 OFFCURVE",
"185 220 OFFCURVE",
"137 176 CURVE SMOOTH",
"129 168 OFFCURVE",
"116 170 OFFCURVE",
"108 177 CURVE SMOOTH",
"101 185 OFFCURVE",
"101 199 OFFCURVE"
);
}
);
width = 557;
},
{
associatedMasterId = "9609CB55-EFEB-482C-9A6C-237B4D7F8578";
layerId = "A84D0E49-0091-433E-B029-103AC6261E2F";
name = wire;
width = 557;
},
{
associatedMasterId = "9609CB55-EFEB-482C-9A6C-237B4D7F8578";
layerId = "42EE0F4E-4400-4743-880F-8F6A02C58E40";
name = mask;
width = 557;
}
);
rightKerningGroup = K;
unicode = 004B;
userData = {
com.typemytype.robofont.guides = (
{
angle = 0;
isGlobal = 0;
x = 277;
y = 570;
}
);
com.typemytype.robofont.layerData = {
mask = {
anchors = (
);
components = (
);
contours = (
);
lib = {
};
name = K;
unicodes = (
);
width = 557;
};
wire = {
anchors = (
);
components = (
);
contours = (
);
lib = {
};
name = K;
unicodes = (
);
width = 557;
};
};
};
},
{
glyphname = L;
lastChange = "2016-04-08 02:25:36 +0000";
layers = (
{
anchors = (
{
name = bottom;
position = "{243, 3}";
},
{
name = top;
position = "{124, 528}";
}
);
guideLines = (
{
position = "{277, 570}";
}
);
layerId = "9609CB55-EFEB-482C-9A6C-237B4D7F8578";
paths = (
{
closed = 1;
nodes = (
"148 508 CURVE SMOOTH",
"148 23 LINE SMOOTH",
"148 12 OFFCURVE",
"134 3 OFFCURVE",
"123 3 CURVE SMOOTH",
"112 3 OFFCURVE",
"98 12 OFFCURVE",
"98 23 CURVE SMOOTH",
"98 508 LINE SMOOTH",
"98 519 OFFCURVE",
"112 528 OFFCURVE",
"123 528 CURVE SMOOTH",
"134 528 OFFCURVE",
"148 519 OFFCURVE"
);
},
{
closed = 1;
nodes = (
"131 43 CURVE SMOOTH",
"394 43 LINE SMOOTH",
"405 43 OFFCURVE",
"414 34 OFFCURVE",
"414 23 CURVE SMOOTH",
"414 12 OFFCURVE",
"405 3 OFFCURVE",
"394 3 CURVE SMOOTH",
"131 3 LINE SMOOTH",
"120 3 OFFCURVE",
"111 12 OFFCURVE",
"111 23 CURVE SMOOTH",
"111 34 OFFCURVE",
"120 43 OFFCURVE"
);
}
);
width = 459;
},
{
associatedMasterId = "9609CB55-EFEB-482C-9A6C-237B4D7F8578";
layerId = "D730DB12-4DBC-402A-81E3-0206ADF4150D";
name = wire;
width = 459;
},
{
associatedMasterId = "9609CB55-EFEB-482C-9A6C-237B4D7F8578";
layerId = "1F87D7AC-73F3-426C-A50C-8530877148FB";
name = mask;
width = 459;
}
);
rightKerningGroup = L;
unicode = 004C;
userData = {
com.typemytype.robofont.guides = (
{
angle = 0;
isGlobal = 0;
x = 277;
y = 570;
}
);
com.typemytype.robofont.layerData = {
mask = {
anchors = (
);
components = (
);
contours = (
);
lib = {
};
name = L;
unicodes = (
);
width = 459;
};
wire = {
anchors = (
);
components = (
);
contours = (
);
lib = {
};
name = L;
unicodes = (
);
width = 459;
};
};
};
},
{
glyphname = M;
lastChange = "2016-04-08 02:21:04 +0000";
layers = (
{
guideLines = (
{
position = "{277, 570}";
}
);
layerId = "9609CB55-EFEB-482C-9A6C-237B4D7F8578";
paths = (
{
closed = 1;
nodes = (
"197 513 CURVE SMOOTH",
"173 370 OFFCURVE",
"142 134 OFFCURVE",
"130 18 CURVE SMOOTH",
"129 8 OFFCURVE",
"114 0 OFFCURVE",
"103 1 CURVE SMOOTH",
"92 2 OFFCURVE",
"79 13 OFFCURVE",
"80 24 CURVE SMOOTH",
"92 140 OFFCURVE",
"125 378 OFFCURVE",
"149 521 CURVE SMOOTH",
"150 532 OFFCURVE",
"166 539 OFFCURVE",
"176 537 CURVE SMOOTH",
"187 535 OFFCURVE",
"199 524 OFFCURVE"
);
},
{
closed = 1;
nodes = (
"656 523 CURVE SMOOTH",
"687 366 OFFCURVE",
"721 159 OFFCURVE",
"739 24 CURVE SMOOTH",
"740 14 OFFCURVE",
"727 3 OFFCURVE",
"717 1 CURVE SMOOTH",
"706 0 OFFCURVE",
"691 7 OFFCURVE",
"689 18 CURVE SMOOTH",
"671 151 OFFCURVE",
"639 358 OFFCURVE",
"608 513 CURVE SMOOTH",
"606 524 OFFCURVE",
"618 536 OFFCURVE",
"628 538 CURVE SMOOTH",
"639 540 OFFCURVE",
"654 533 OFFCURVE"
);
},
{
closed = 1;
nodes = (
"206 514 CURVE SMOOTH",
"268 387 OFFCURVE",
"362 190 OFFCURVE",
"429 50 CURVE SMOOTH",
"433 40 OFFCURVE",
"426 27 OFFCURVE",
"417 22 CURVE SMOOTH",
"407 17 OFFCURVE",
"392 20 OFFCURVE",
"387 30 CURVE SMOOTH",
"320 170 OFFCURVE",
"226 367 OFFCURVE",
"164 494 CURVE SMOOTH",
"160 504 OFFCURVE",
"167 517 OFFCURVE",
"176 522 CURVE SMOOTH",
"186 527 OFFCURVE",
"201 524 OFFCURVE"
);
},
{
closed = 1;
nodes = (
"390 61 CURVE SMOOTH",
"450 198 OFFCURVE",
"530 374 OFFCURVE",
"605 520 CURVE SMOOTH",
"610 530 OFFCURVE",
"624 533 OFFCURVE",
"634 528 CURVE SMOOTH",
"644 523 OFFCURVE",
"650 509 OFFCURVE",
"645 500 CURVE SMOOTH",
"572 354 OFFCURVE",
"492 178 OFFCURVE",
"432 43 CURVE SMOOTH",
"428 33 OFFCURVE",
"413 29 OFFCURVE",
"403 34 CURVE SMOOTH",
"393 38 OFFCURVE",
"385 51 OFFCURVE"
);
}
);
width = 820;
},
{
associatedMasterId = "9609CB55-EFEB-482C-9A6C-237B4D7F8578";
layerId = "46B496FE-40B4-47F9-A869-729B9EDA7840";
name = wire;
width = 820;
},
{
associatedMasterId = "9609CB55-EFEB-482C-9A6C-237B4D7F8578";
layerId = "A2DB7E7E-7E73-48AF-B666-0653A383F79F";
name = mask;
width = 820;
}
);
unicode = 004D;
userData = {
com.typemytype.robofont.guides = (
{
angle = 0;
isGlobal = 0;
x = 277;
y = 570;
}
);
com.typemytype.robofont.layerData = {
mask = {
anchors = (
);
components = (
);
contours = (
);
lib = {
};
name = M;
unicodes = (
);
width = 820;
};
wire = {
anchors = (
);
components = (
);
contours = (
);
lib = {
};
name = M;
unicodes = (
);
width = 820;
};
};
};
},
{
glyphname = N;
lastChange = "2016-04-08 02:26:45 +0000";
layers = (
{
anchors = (
{
name = bottom;
position = "{304, 17}";
},
{
name = top;
position = "{315, 517}";
}
);
guideLines = (
{
position = "{277, 570}";
}
);
layerId = "9609CB55-EFEB-482C-9A6C-237B4D7F8578";
paths = (
{
closed = 1;
nodes = (
"148 508 CURVE SMOOTH",
"148 23 LINE SMOOTH",
"148 12 OFFCURVE",
"134 3 OFFCURVE",
"123 3 CURVE SMOOTH",
"112 3 OFFCURVE",
"98 12 OFFCURVE",
"98 23 CURVE SMOOTH",
"98 508 LINE SMOOTH",
"98 519 OFFCURVE",
"112 528 OFFCURVE",
"123 528 CURVE SMOOTH",
"134 528 OFFCURVE",
"148 519 OFFCURVE"
);
},
{
closed = 1;
nodes = (
"537 508 CURVE SMOOTH",
"537 23 LINE SMOOTH",
"537 12 OFFCURVE",
"523 3 OFFCURVE",
"512 3 CURVE SMOOTH",
"501 3 OFFCURVE",
"487 12 OFFCURVE",
"487 23 CURVE SMOOTH",
"487 508 LINE SMOOTH",
"487 519 OFFCURVE",
"501 528 OFFCURVE",
"512 528 CURVE SMOOTH",
"523 528 OFFCURVE",
"537 519 OFFCURVE"
);
},
{
closed = 1;
nodes = (
"146 521 CURVE SMOOTH",
"221 421 OFFCURVE",
"416 179 OFFCURVE",
"523 36 CURVE SMOOTH",
"530 27 OFFCURVE",
"527 13 OFFCURVE",
"518 7 CURVE SMOOTH",
"509 1 OFFCURVE",
"495 1 OFFCURVE",
"489 10 CURVE SMOOTH",
"382 153 OFFCURVE",
"187 395 OFFCURVE",
"112 495 CURVE SMOOTH",
"105 504 OFFCURVE",
"108 518 OFFCURVE",
"117 524 CURVE SMOOTH",
"126 530 OFFCURVE",
"140 530 OFFCURVE"
);
}
);
width = 635;
},
{
associatedMasterId = "9609CB55-EFEB-482C-9A6C-237B4D7F8578";
layerId = "434CF21F-8BAA-4E63-8CC6-58A447B5C4A4";
name = wire;
width = 635;
},
{
associatedMasterId = "9609CB55-EFEB-482C-9A6C-237B4D7F8578";
layerId = "137DCDEB-9D62-47AA-8A33-F038C029A4F4";
name = mask;
width = 635;
}
);
unicode = 004E;
userData = {
com.typemytype.robofont.guides = (
{
angle = 0;
isGlobal = 0;
x = 277;
y = 570;
}
);
com.typemytype.robofont.layerData = {
mask = {
anchors = (
);
components = (
);
contours = (
);
lib = {
};
name = N;
unicodes = (
);
width = 635;
};
wire = {
anchors = (
);
components = (
);
contours = (
);
lib = {
};
name = N;
unicodes = (
);
width = 635;
};
};
};
},
{
glyphname = O;
lastChange = "2016-04-08 02:27:36 +0000";
layers = (
{
anchors = (
{
name = bottom;
position = "{322, -6}";
},
{
name = top;
position = "{322, 537}";
}
);
layerId = "9609CB55-EFEB-482C-9A6C-237B4D7F8578";
paths = (
{
closed = 1;
nodes = (
"322 537 CURVE SMOOTH",
"461 537 OFFCURVE",
"579 429 OFFCURVE",
"579 265 CURVE SMOOTH",
"579 109 OFFCURVE",
"481 -6 OFFCURVE",
"322 -6 CURVE SMOOTH",
"172 -6 OFFCURVE",
"61 109 OFFCURVE",
"61 262 CURVE",
"61 429 OFFCURVE",
"170 537 OFFCURVE"
);
},
{
closed = 1;
nodes = (
"322 497 CURVE SMOOTH",
"192 497 OFFCURVE",
"111 397 OFFCURVE",
"111 262 CURVE SMOOTH",
"111 139 OFFCURVE",
"194 34 OFFCURVE",
"322 34 CURVE SMOOTH",
"457 34 OFFCURVE",
"529 139 OFFCURVE",
"529 265 CURVE SMOOTH",
"529 397 OFFCURVE",
"441 497 OFFCURVE"
);
}
);
width = 640;
},
{
associatedMasterId = "9609CB55-EFEB-482C-9A6C-237B4D7F8578";
layerId = "B9DF25D9-4929-4C78-B3D0-594E21A4E9DB";
name = wire;
width = 640;
},
{
associatedMasterId = "9609CB55-EFEB-482C-9A6C-237B4D7F8578";
layerId = "F47FB328-A545-4275-BEDE-E39B0FF139FF";
name = mask;
width = 640;
}
);
leftKerningGroup = O;
rightKerningGroup = O;
unicode = 004F;
userData = {
com.typemytype.robofont.layerData = {
mask = {
anchors = (
);
components = (
);
contours = (
);
lib = {
};
name = O;
unicodes = (
);
width = 640;
};
wire = {
anchors = (
);
components = (
);
contours = (
);
lib = {
};
name = O;
unicodes = (
);
width = 640;
};
};
};
},
{
glyphname = P;
lastChange = "2016-04-08 02:21:04 +0000";
layers = (
{
layerId = "9609CB55-EFEB-482C-9A6C-237B4D7F8578";
paths = (
{
closed = 1;
nodes = (
"149 219 CURVE SMOOTH",
"266 219 LINE SMOOTH",
"364 219 OFFCURVE",
"412 281 OFFCURVE",
"412 354 CURVE SMOOTH",
"412 431 OFFCURVE",
"354 488 OFFCURVE",
"266 488 CURVE SMOOTH",
"123 488 LINE",
"148 508 LINE",
"148 23 LINE SMOOTH",
"148 12 OFFCURVE",
"134 3 OFFCURVE",
"123 3 CURVE SMOOTH",
"112 3 OFFCURVE",
"98 12 OFFCURVE",
"98 23 CURVE SMOOTH",
"98 508 LINE SMOOTH",
"98 519 OFFCURVE",
"109 528 OFFCURVE",
"123 528 CURVE SMOOTH",
"266 528 LINE SMOOTH",
"380 528 OFFCURVE",
"462 457 OFFCURVE",
"462 354 CURVE SMOOTH",
"462 257 OFFCURVE",
"394 179 OFFCURVE",
"266 179 CURVE SMOOTH",
"149 179 LINE SMOOTH",
"138 179 OFFCURVE",
"129 188 OFFCURVE",
"129 199 CURVE SMOOTH",
"129 210 OFFCURVE",
"138 219 OFFCURVE"
);
}
);
width = 510;
},
{
associatedMasterId = "9609CB55-EFEB-482C-9A6C-237B4D7F8578";
layerId = "2F3FADC1-C867-4EFD-A9F6-2406B16C4831";
name = wire;
width = 510;
},
{
associatedMasterId = "9609CB55-EFEB-482C-9A6C-237B4D7F8578";
layerId = "42295AC9-E80D-43D0-BBA7-98B3FCEF91E1";
name = mask;
width = 510;
}
);
rightKerningGroup = P;
unicode = 0050;
userData = {
com.typemytype.robofont.layerData = {
mask = {
anchors = (
);
components = (
);
contours = (
);
lib = {
};
name = P;
unicodes = (
);
width = 510;
};
wire = {
anchors = (
);
components = (
);
contours = (
);
lib = {
};
name = P;
unicodes = (
);
width = 510;
};
};
};
},
{
glyphname = Q;
lastChange = "2016-04-08 02:21:04 +0000";
layers = (
{
components = (
{
name = O;
},
{
name = O;
}
);
layerId = "9609CB55-EFEB-482C-9A6C-237B4D7F8578";
paths = (
{
closed = 1;
nodes = (
"341 17 CURVE SMOOTH",
"358 -47 OFFCURVE",
"418 -100 OFFCURVE",
"512 -100 CURVE SMOOTH",
"523 -100 OFFCURVE",
"532 -109 OFFCURVE",
"532 -120 CURVE SMOOTH",
"532 -131 OFFCURVE",
"523 -140 OFFCURVE",
"512 -140 CURVE SMOOTH",
"394 -140 OFFCURVE",
"316 -77 OFFCURVE",
"295 5 CURVE SMOOTH",
"292 15 OFFCURVE",
"303 28 OFFCURVE",
"313 30 CURVE SMOOTH",
"323 33 OFFCURVE",
"339 28 OFFCURVE"
);
}
);
width = 640;
},
{
associatedMasterId = "9609CB55-EFEB-482C-9A6C-237B4D7F8578";
layerId = "E29CD10F-7146-4A9C-9D09-D5DB4D09AC76";
name = wire;
width = 640;
},
{
associatedMasterId = "9609CB55-EFEB-482C-9A6C-237B4D7F8578";
layerId = "8DBB1F71-6F99-48EA-AA5C-E1CF24997A6D";
name = mask;
width = 640;
}
);
leftKerningGroup = O;
rightKerningGroup = O;
unicode = 0051;
userData = {
com.typemytype.robofont.layerData = {
mask = {
anchors = (
);
components = (
);
contours = (
);
lib = {
};
name = Q;
unicodes = (
);
width = 640;
};
wire = {
anchors = (
);
components = (
);
contours = (
);
lib = {
};
name = Q;
unicodes = (
);
width = 640;
};
};
};
},
{
glyphname = R;
lastChange = "2016-04-08 02:28:16 +0000";
layers = (
{
anchors = (
{
name = bottom;
position = "{277, 11}";
},
{
name = top;
position = "{243, 528}";
}
);
layerId = "9609CB55-EFEB-482C-9A6C-237B4D7F8578";
paths = (
{
closed = 1;
nodes = (
"139 242 CURVE SMOOTH",
"270 242 LINE SMOOTH",
"365 242 OFFCURVE",
"411 299 OFFCURVE",
"411 365 CURVE SMOOTH",
"411 436 OFFCURVE",
"356 488 OFFCURVE",
"270 488 CURVE SMOOTH",
"123 488 LINE",
"148 508 LINE",
"148 23 LINE SMOOTH",
"148 12 OFFCURVE",
"134 3 OFFCURVE",
"123 3 CURVE SMOOTH",
"112 3 OFFCURVE",
"98 12 OFFCURVE",
"98 23 CURVE SMOOTH",
"98 508 LINE SMOOTH",
"98 519 OFFCURVE",
"109 528 OFFCURVE",
"123 528 CURVE SMOOTH",
"270 528 LINE SMOOTH",
"384 528 OFFCURVE",
"461 462 OFFCURVE",
"461 365 CURVE SMOOTH",
"461 275 OFFCURVE",
"397 202 OFFCURVE",
"270 202 CURVE SMOOTH",
"139 202 LINE SMOOTH",
"128 202 OFFCURVE",
"119 211 OFFCURVE",
"119 222 CURVE SMOOTH",
"119 233 OFFCURVE",
"128 242 OFFCURVE"
);
},
{
closed = 1;
nodes = (
"315 230 CURVE SMOOTH",
"480 37 LINE SMOOTH",
"487 29 OFFCURVE",
"485 15 OFFCURVE",
"477 8 CURVE SMOOTH",
"469 1 OFFCURVE",
"455 1 OFFCURVE",
"448 9 CURVE SMOOTH",
"283 202 LINE SMOOTH",
"276 210 OFFCURVE",
"278 224 OFFCURVE",
"286 231 CURVE SMOOTH",
"294 238 OFFCURVE",
"308 238 OFFCURVE"
);
}
);
width = 541;
},
{
associatedMasterId = "9609CB55-EFEB-482C-9A6C-237B4D7F8578";
layerId = "DA434FB9-A0EF-4B1A-9B1F-676FD6957D31";
name = wire;
width = 541;
},
{
associatedMasterId = "9609CB55-EFEB-482C-9A6C-237B4D7F8578";
layerId = "771BC350-E8D4-46E9-A334-60E97F6B09E8";
name = mask;
width = 541;
}
);
rightKerningGroup = R;
unicode = 0052;
userData = {
com.typemytype.robofont.layerData = {
mask = {
anchors = (
);
components = (
);
contours = (
);
lib = {
};
name = R;
unicodes = (
);
width = 541;
};
wire = {
anchors = (
);
components = (
);
contours = (
);
lib = {
};
name = R;
unicodes = (
);
width = 541;
};
};
};
},
{
glyphname = S;
lastChange = "2016-04-08 02:28:33 +0000";
layers = (
{
anchors = (
{
name = bottom;
position = "{256, -6}";
},
{
name = top;
position = "{251, 534}";
}
);
layerId = "9609CB55-EFEB-482C-9A6C-237B4D7F8578";
paths = (
{
closed = 1;
nodes = (
"385 465 CURVE SMOOTH",
"341 483 OFFCURVE",
"309 494 OFFCURVE",
"243 494 CURVE SMOOTH",
"174 494 OFFCURVE",
"132 453 OFFCURVE",
"132 410 CURVE SMOOTH",
"132 367 OFFCURVE",
"154 320 OFFCURVE",
"268 298 CURVE SMOOTH",
"407 267 OFFCURVE",
"452 208 OFFCURVE",
"452 136 CURVE SMOOTH",
"452 62 OFFCURVE",
"396 -6 OFFCURVE",
"263 -6 CURVE SMOOTH",
"200 -6 OFFCURVE",
"139 9 OFFCURVE",
"84 39 CURVE SMOOTH",
"75 45 OFFCURVE",
"71 57 OFFCURVE",
"77 67 CURVE SMOOTH",
"82 76 OFFCURVE",
"94 80 OFFCURVE",
"104 75 CURVE SMOOTH",
"153 47 OFFCURVE",
"206 34 OFFCURVE",
"263 34 CURVE SMOOTH",
"358 34 OFFCURVE",
"402 82 OFFCURVE",
"402 136 CURVE SMOOTH",
"402 192 OFFCURVE",
"365 235 OFFCURVE",
"260 258 CURVE SMOOTH",
"106 288 OFFCURVE",
"82 353 OFFCURVE",
"82 410 CURVE SMOOTH",
"82 473 OFFCURVE",
"142 534 OFFCURVE",
"243 534 CURVE SMOOTH",
"315 534 OFFCURVE",
"351 523 OFFCURVE",
"401 503 CURVE SMOOTH",
"411 499 OFFCURVE",
"416 487 OFFCURVE",
"412 477 CURVE SMOOTH",
"407 466 OFFCURVE",
"396 461 OFFCURVE"
);
}
);
width = 525;
},
{
associatedMasterId = "9609CB55-EFEB-482C-9A6C-237B4D7F8578";
layerId = "B93D9488-FE07-4C9D-B996-793C26E77DB7";
name = wire;
width = 525;
},
{
associatedMasterId = "9609CB55-EFEB-482C-9A6C-237B4D7F8578";
layerId = "37D1C64B-E9EC-461E-BA86-B5507D1D45E2";
name = mask;
width = 525;
}
);
leftKerningGroup = S;
rightKerningGroup = S;
unicode = 0053;
userData = {
com.typemytype.robofont.layerData = {
mask = {
anchors = (
);
components = (
);
contours = (
);
lib = {
};
name = S;
unicodes = (
);
width = 525;
};
wire = {
anchors = (
);
components = (
);
contours = (
);
lib = {
};
name = S;
unicodes = (
);
width = 525;
};
};
};
},
{
glyphname = T;
lastChange = "2016-04-08 02:28:58 +0000";
layers = (
{
anchors = (
{
name = bottom;
position = "{271, 3}";
},
{
name = top;
position = "{271, 528}";
}
);
guideLines = (
{
position = "{277, 570}";
}
);
layerId = "9609CB55-EFEB-482C-9A6C-237B4D7F8578";
paths = (
{
closed = 1;
nodes = (
"296 508 CURVE SMOOTH",
"296 23 LINE SMOOTH",
"296 12 OFFCURVE",
"282 3 OFFCURVE",
"271 3 CURVE SMOOTH",
"260 3 OFFCURVE",
"246 12 OFFCURVE",
"246 23 CURVE SMOOTH",
"246 508 LINE SMOOTH",
"246 519 OFFCURVE",
"260 528 OFFCURVE",
"271 528 CURVE SMOOTH",
"282 528 OFFCURVE",
"296 519 OFFCURVE"
);
},
{
closed = 1;
nodes = (
"59 528 CURVE SMOOTH",
"487 528 LINE SMOOTH",
"498 528 OFFCURVE",
"507 519 OFFCURVE",
"507 508 CURVE SMOOTH",
"507 497 OFFCURVE",
"498 488 OFFCURVE",
"487 488 CURVE SMOOTH",
"59 488 LINE SMOOTH",
"48 488 OFFCURVE",
"39 497 OFFCURVE",
"39 508 CURVE SMOOTH",
"39 519 OFFCURVE",
"48 528 OFFCURVE"
);
}
);
width = 546;
},
{
associatedMasterId = "9609CB55-EFEB-482C-9A6C-237B4D7F8578";
layerId = "59A9C3ED-8F60-49CE-AF0C-36D6F63B63B3";
name = wire;
width = 546;
},
{
associatedMasterId = "9609CB55-EFEB-482C-9A6C-237B4D7F8578";
layerId = "96E39F90-F92A-4362-8651-BE3FB95FDB3B";
name = mask;
width = 546;
}
);
leftKerningGroup = T;
rightKerningGroup = T;
unicode = 0054;
userData = {
com.typemytype.robofont.guides = (
{
angle = 0;
isGlobal = 0;
x = 277;
y = 570;
}
);
com.typemytype.robofont.layerData = {
mask = {
anchors = (
);
components = (
);
contours = (
);
lib = {
};
name = T;
unicodes = (
);
width = 546;
};
wire = {
anchors = (
);
components = (
);
contours = (
);
lib = {
};
name = T;
unicodes = (
);
width = 546;
};
};
};
},
{
glyphname = U;
lastChange = "2016-04-08 02:29:18 +0000";
layers = (
{
anchors = (
{
name = top;
position = "{304, 509}";
}
);
layerId = "9609CB55-EFEB-482C-9A6C-237B4D7F8578";
paths = (
{
closed = 1;
nodes = (
"136 508 CURVE SMOOTH",
"136 212 LINE SMOOTH",
"136 101 OFFCURVE",
"203 34 OFFCURVE",
"306 34 CURVE SMOOTH",
"420 34 OFFCURVE",
"480 101 OFFCURVE",
"480 215 CURVE SMOOTH",
"480 508 LINE SMOOTH",
"480 519 OFFCURVE",
"494 528 OFFCURVE",
"505 528 CURVE SMOOTH",
"516 528 OFFCURVE",
"530 519 OFFCURVE",
"530 508 CURVE SMOOTH",
"530 215 LINE SMOOTH",
"530 69 OFFCURVE",
"446 -6 OFFCURVE",
"306 -6 CURVE SMOOTH",
"179 -6 OFFCURVE",
"86 69 OFFCURVE",
"86 212 CURVE SMOOTH",
"86 508 LINE SMOOTH",
"86 519 OFFCURVE",
"100 528 OFFCURVE",
"111 528 CURVE SMOOTH",
"122 528 OFFCURVE",
"136 519 OFFCURVE"
);
}
);
width = 616;
},
{
associatedMasterId = "9609CB55-EFEB-482C-9A6C-237B4D7F8578";
layerId = "2F664275-9DA2-4136-B2A1-B425B8E41714";
name = wire;
width = 616;
},
{
associatedMasterId = "9609CB55-EFEB-482C-9A6C-237B4D7F8578";
layerId = "FF3B4C2E-2BF3-456F-AEB4-2E527D11A243";
name = mask;
width = 616;
}
);
leftKerningGroup = U;
rightKerningGroup = U;
unicode = 0055;
userData = {
com.typemytype.robofont.layerData = {
mask = {
anchors = (
);
components = (
);
contours = (
);
lib = {
};
name = U;
unicodes = (
);
width = 616;
};
wire = {
anchors = (
);
components = (
);
contours = (
);
lib = {
};
name = U;
unicodes = (
);
width = 616;
};
};
};
},
{
glyphname = V;
lastChange = "2016-04-08 02:21:04 +0000";
layers = (
{
guideLines = (
{
position = "{277, 570}";
}
);
layerId = "9609CB55-EFEB-482C-9A6C-237B4D7F8578";
paths = (
{
closed = 1;
nodes = (
"98 516 CURVE SMOOTH",
"137 393 OFFCURVE",
"270 103 OFFCURVE",
"310 30 CURVE SMOOTH",
"315 20 OFFCURVE",
"309 7 OFFCURVE",
"300 1 CURVE SMOOTH",
"290 -4 OFFCURVE",
"275 -1 OFFCURVE",
"270 8 CURVE SMOOTH",
"230 83 OFFCURVE",
"93 377 OFFCURVE",
"52 502 CURVE SMOOTH",
"49 512 OFFCURVE",
"59 525 OFFCURVE",
"69 528 CURVE SMOOTH",
"79 531 OFFCURVE",
"94 527 OFFCURVE"
);
},
{
closed = 1;
nodes = (
"273 24 CURVE SMOOTH",
"317 107 OFFCURVE",
"439 374 OFFCURVE",
"487 516 CURVE SMOOTH",
"491 526 OFFCURVE",
"506 530 OFFCURVE",
"516 527 CURVE SMOOTH",
"527 523 OFFCURVE",
"536 511 OFFCURVE",
"533 500 CURVE SMOOTH",
"483 356 OFFCURVE",
"357 87 OFFCURVE",
"313 2 CURVE SMOOTH",
"308 -7 OFFCURVE",
"293 -10 OFFCURVE",
"284 -5 CURVE SMOOTH",
"274 0 OFFCURVE",
"268 14 OFFCURVE"
);
}
);
width = 585;
},
{
associatedMasterId = "9609CB55-EFEB-482C-9A6C-237B4D7F8578";
layerId = "FC6DAF78-E0F8-4441-9249-BE073C9D273D";
name = wire;
width = 585;
},
{
associatedMasterId = "9609CB55-EFEB-482C-9A6C-237B4D7F8578";
layerId = "3DE206E6-C910-4BC5-9054-8D1DBB08A972";
name = mask;
width = 585;
}
);
unicode = 0056;
userData = {
com.typemytype.robofont.guides = (
{
angle = 0;
isGlobal = 0;
x = 277;
y = 570;
}
);
com.typemytype.robofont.layerData = {
mask = {
anchors = (
);
components = (
);
contours = (
);
lib = {
};
name = V;
unicodes = (
);
width = 585;
};
wire = {
anchors = (
);
components = (
);
contours = (
);
lib = {
};
name = V;
unicodes = (
);
width = 585;
};
};
};
},
{
glyphname = W;
lastChange = "2016-04-08 02:21:04 +0000";
layers = (
{
guideLines = (
{
position = "{277, 570}";
}
);
layerId = "9609CB55-EFEB-482C-9A6C-237B4D7F8578";
paths = (
{
closed = 1;
nodes = (
"114 513 CURVE SMOOTH",
"148 390 OFFCURVE",
"246 103 OFFCURVE",
"281 30 CURVE SMOOTH",
"285 20 OFFCURVE",
"278 7 OFFCURVE",
"269 2 CURVE SMOOTH",
"259 -3 OFFCURVE",
"244 0 OFFCURVE",
"239 10 CURVE SMOOTH",
"204 85 OFFCURVE",
"102 376 OFFCURVE",
"68 501 CURVE SMOOTH",
"65 511 OFFCURVE",
"75 523 OFFCURVE",
"86 526 CURVE SMOOTH",
"96 529 OFFCURVE",
"111 524 OFFCURVE"
);
},
{
closed = 1;
nodes = (
"243 23 CURVE SMOOTH",
"280 107 OFFCURVE",
"383 371 OFFCURVE",
"426 511 CURVE SMOOTH",
"429 521 OFFCURVE",
"445 526 OFFCURVE",
"455 523 CURVE SMOOTH",
"465 520 OFFCURVE",
"475 507 OFFCURVE",
"472 497 CURVE SMOOTH",
"429 355 OFFCURVE",
"322 89 OFFCURVE",
"285 5 CURVE SMOOTH",
"281 -5 OFFCURVE",
"266 -9 OFFCURVE",
"256 -4 CURVE SMOOTH",
"246 0 OFFCURVE",
"238 13 OFFCURVE"
);
},
{
closed = 1;
nodes = (
"476 499 CURVE SMOOTH",
"514 378 OFFCURVE",
"615 103 OFFCURVE",
"651 29 CURVE SMOOTH",
"655 19 OFFCURVE",
"648 6 OFFCURVE",
"639 1 CURVE SMOOTH",
"629 -4 OFFCURVE",
"614 -1 OFFCURVE",
"609 9 CURVE SMOOTH",
"573 83 OFFCURVE",
"468 362 OFFCURVE",
"430 485 CURVE SMOOTH",
"427 495 OFFCURVE",
"437 508 OFFCURVE",
"447 511 CURVE SMOOTH",
"457 514 OFFCURVE",
"473 509 OFFCURVE"
);
},
{
closed = 1;
nodes = (
"613 22 CURVE SMOOTH",
"650 106 OFFCURVE",
"743 372 OFFCURVE",
"784 514 CURVE SMOOTH",
"787 524 OFFCURVE",
"802 529 OFFCURVE",
"813 526 CURVE SMOOTH",
"823 523 OFFCURVE",
"833 511 OFFCURVE",
"830 500 CURVE SMOOTH",
"789 356 OFFCURVE",
"692 88 OFFCURVE",
"655 4 CURVE SMOOTH",
"651 -6 OFFCURVE",
"636 -10 OFFCURVE",
"626 -5 CURVE SMOOTH",
"616 -1 OFFCURVE",
"608 12 OFFCURVE"
);
}
);
width = 897;
},
{
associatedMasterId = "9609CB55-EFEB-482C-9A6C-237B4D7F8578";
layerId = "7AA7D2A5-ABC1-4DE3-BD4B-6E1CCE398C2F";
name = wire;
width = 897;
},
{
associatedMasterId = "9609CB55-EFEB-482C-9A6C-237B4D7F8578";
layerId = "ECA27D32-F109-4EE0-9BC1-E38A5B580545";
name = mask;
width = 897;
}
);
unicode = 0057;
userData = {
com.typemytype.robofont.guides = (
{
angle = 0;
isGlobal = 0;
x = 277;
y = 570;
}
);
com.typemytype.robofont.layerData = {
mask = {
anchors = (
);
components = (
);
contours = (
);
lib = {
};
name = W;
unicodes = (
);
width = 897;
};
wire = {
anchors = (
);
components = (
);
contours = (
);
lib = {
};
name = W;
unicodes = (
);
width = 897;
};
};
};
},
{
glyphname = X;
lastChange = "2016-04-08 02:21:04 +0000";
layers = (
{
guideLines = (
{
position = "{277, 570}";
}
);
layerId = "9609CB55-EFEB-482C-9A6C-237B4D7F8578";
paths = (
{
closed = 1;
nodes = (
"116 520 CURVE SMOOTH",
"212 380 OFFCURVE",
"438 120 OFFCURVE",
"497 36 CURVE SMOOTH",
"503 27 OFFCURVE",
"499 13 OFFCURVE",
"490 7 CURVE SMOOTH",
"482 0 OFFCURVE",
"467 2 OFFCURVE",
"461 10 CURVE SMOOTH",
"402 94 OFFCURVE",
"176 356 OFFCURVE",
"80 496 CURVE SMOOTH",
"74 505 OFFCURVE",
"78 518 OFFCURVE",
"87 524 CURVE SMOOTH",
"96 531 OFFCURVE",
"110 529 OFFCURVE"
);
},
{
closed = 1;
nodes = (
"68 36 CURVE SMOOTH",
"146 143 OFFCURVE",
"355 387 OFFCURVE",
"440 520 CURVE SMOOTH",
"446 529 OFFCURVE",
"461 531 OFFCURVE",
"470 525 CURVE SMOOTH",
"479 519 OFFCURVE",
"483 505 OFFCURVE",
"478 496 CURVE SMOOTH",
"391 363 OFFCURVE",
"182 117 OFFCURVE",
"102 10 CURVE SMOOTH",
"96 1 OFFCURVE",
"82 0 OFFCURVE",
"73 7 CURVE SMOOTH",
"64 13 OFFCURVE",
"61 27 OFFCURVE"
);
}
);
width = 563;
},
{
associatedMasterId = "9609CB55-EFEB-482C-9A6C-237B4D7F8578";
layerId = "938026A7-97D3-43BB-B00C-F1DAFD4557DB";
name = wire;
width = 563;
},
{
associatedMasterId = "9609CB55-EFEB-482C-9A6C-237B4D7F8578";
layerId = "25F5E4C5-FCE7-48D6-BA47-66F620C22CE4";
name = mask;
width = 563;
}
);
unicode = 0058;
userData = {
com.typemytype.robofont.guides = (
{
angle = 0;
isGlobal = 0;
x = 277;
y = 570;
}
);
com.typemytype.robofont.layerData = {
mask = {
anchors = (
);
components = (
);
contours = (
);
lib = {
};
name = X;
unicodes = (
);
width = 563;
};
wire = {
anchors = (
);
components = (
);
contours = (
);
lib = {
};
name = X;
unicodes = (
);
width = 563;
};
};
};
},
{
glyphname = Y;
lastChange = "2016-04-08 02:29:30 +0000";
layers = (
{
anchors = (
{
name = top;
position = "{280, 517}";
}
);
guideLines = (
{
position = "{277, 570}";
}
);
layerId = "9609CB55-EFEB-482C-9A6C-237B4D7F8578";
paths = (
{
closed = 1;
nodes = (
"307 191 CURVE SMOOTH",
"307 23 LINE SMOOTH",
"307 12 OFFCURVE",
"293 3 OFFCURVE",
"282 3 CURVE SMOOTH",
"271 3 OFFCURVE",
"257 12 OFFCURVE",
"257 23 CURVE SMOOTH",
"257 191 LINE SMOOTH",
"257 202 OFFCURVE",
"271 211 OFFCURVE",
"282 211 CURVE SMOOTH",
"293 211 OFFCURVE",
"307 202 OFFCURVE"
);
},
{
closed = 1;
nodes = (
"93 519 CURVE SMOOTH",
"135 450 OFFCURVE",
"254 273 OFFCURVE",
"296 216 CURVE SMOOTH",
"303 207 OFFCURVE",
"300 194 OFFCURVE",
"291 187 CURVE SMOOTH",
"282 181 OFFCURVE",
"268 181 OFFCURVE",
"262 190 CURVE SMOOTH",
"218 247 OFFCURVE",
"97 426 OFFCURVE",
"55 497 CURVE SMOOTH",
"49 506 OFFCURVE",
"54 520 OFFCURVE",
"64 525 CURVE SMOOTH",
"73 531 OFFCURVE",
"88 529 OFFCURVE"
);
},
{
closed = 1;
nodes = (
"265 210 CURVE SMOOTH",
"313 276 OFFCURVE",
"426 451 OFFCURVE",
"467 519 CURVE SMOOTH",
"472 529 OFFCURVE",
"487 531 OFFCURVE",
"496 525 CURVE SMOOTH",
"506 520 OFFCURVE",
"511 506 OFFCURVE",
"505 497 CURVE SMOOTH",
"464 427 OFFCURVE",
"349 250 OFFCURVE",
"299 184 CURVE SMOOTH",
"293 175 OFFCURVE",
"279 175 OFFCURVE",
"270 181 CURVE SMOOTH",
"261 187 OFFCURVE",
"258 201 OFFCURVE"
);
}
);
width = 560;
},
{
associatedMasterId = "9609CB55-EFEB-482C-9A6C-237B4D7F8578";
layerId = "17CB18B7-14A4-420C-8E58-B583DE9037F4";
name = wire;
width = 560;
},
{
associatedMasterId = "9609CB55-EFEB-482C-9A6C-237B4D7F8578";
layerId = "82374C3B-389F-4241-A4CE-817984054A75";
name = mask;
width = 560;
}
);
leftKerningGroup = Y;
rightKerningGroup = Y;
unicode = 0059;
userData = {
com.typemytype.robofont.guides = (
{
angle = 0;
isGlobal = 0;
x = 277;
y = 570;
}
);
com.typemytype.robofont.layerData = {
mask = {
anchors = (
);
components = (
);
contours = (
);
lib = {
};
name = Y;
unicodes = (
);
width = 560;
};
wire = {
anchors = (
);
components = (
);
contours = (
);
lib = {
};
name = Y;
unicodes = (
);
width = 560;
};
};
};
},
{
glyphname = Z;
lastChange = "2016-04-08 02:29:44 +0000";
layers = (
{
anchors = (
{
name = top;
position = "{276, 527}";
}
);
guideLines = (
{
position = "{277, 570}";
}
);
layerId = "9609CB55-EFEB-482C-9A6C-237B4D7F8578";
paths = (
{
closed = 1;
nodes = (
"480 496 CURVE SMOOTH",
"417 401 OFFCURVE",
"165 101 OFFCURVE",
"112 19 CURVE SMOOTH",
"106 10 OFFCURVE",
"91 8 OFFCURVE",
"82 14 CURVE SMOOTH",
"73 20 OFFCURVE",
"69 34 OFFCURVE",
"74 43 CURVE SMOOTH",
"127 125 OFFCURVE",
"381 425 OFFCURVE",
"444 520 CURVE SMOOTH",
"450 529 OFFCURVE",
"464 531 OFFCURVE",
"473 525 CURVE SMOOTH",
"482 519 OFFCURVE",
"486 505 OFFCURVE"
);
},
{
closed = 1;
nodes = (
"102 528 CURVE SMOOTH",
"451 528 LINE SMOOTH",
"462 528 OFFCURVE",
"471 519 OFFCURVE",
"471 508 CURVE SMOOTH",
"471 497 OFFCURVE",
"462 488 OFFCURVE",
"451 488 CURVE SMOOTH",
"102 488 LINE SMOOTH",
"91 488 OFFCURVE",
"82 497 OFFCURVE",
"82 508 CURVE SMOOTH",
"82 519 OFFCURVE",
"91 528 OFFCURVE"
);
},
{
closed = 1;
nodes = (
"89 43 CURVE SMOOTH",
"474 43 LINE SMOOTH",
"485 43 OFFCURVE",
"494 34 OFFCURVE",
"494 23 CURVE SMOOTH",
"494 12 OFFCURVE",
"485 3 OFFCURVE",
"474 3 CURVE SMOOTH",
"89 3 LINE SMOOTH",
"78 3 OFFCURVE",
"69 12 OFFCURVE",
"69 23 CURVE SMOOTH",
"69 34 OFFCURVE",
"78 43 OFFCURVE"
);
}
);
width = 563;
},
{
associatedMasterId = "9609CB55-EFEB-482C-9A6C-237B4D7F8578";
layerId = "BE8BE3BB-CC0A-466F-8628-D0B7098D5CAC";
name = wire;
width = 563;
},
{
associatedMasterId = "9609CB55-EFEB-482C-9A6C-237B4D7F8578";
layerId = "7D3FC0D3-0BB9-4714-AB5E-F5B984245A22";
name = mask;
width = 563;
}
);
leftKerningGroup = Z;
rightKerningGroup = o;
unicode = 005A;
userData = {
com.typemytype.robofont.guides = (
{
angle = 0;
isGlobal = 0;
x = 277;
y = 570;
}
);
com.typemytype.robofont.layerData = {
mask = {
anchors = (
);
components = (
);
contours = (
);
lib = {
};
name = Z;
unicodes = (
);
width = 563;
};
wire = {
anchors = (
);
components = (
);
contours = (
);
lib = {
};
name = Z;
unicodes = (
);
width = 563;
};
};
};
},
{
glyphname = bracketleft;
lastChange = "2016-04-08 02:21:04 +0000";
layers = (
{
guideLines = (
{
position = "{181, 267}";
}
);
layerId = "9609CB55-EFEB-482C-9A6C-237B4D7F8578";
paths = (
{
closed = 1;
nodes = (
"233 583 CURVE SMOOTH",
"98 583 LINE",
"123 603 LINE",
"123 -76 LINE",
"98 -56 LINE",
"233 -56 LINE SMOOTH",
"244 -56 OFFCURVE",
"253 -65 OFFCURVE",
"253 -76 CURVE SMOOTH",
"253 -87 OFFCURVE",
"244 -96 OFFCURVE",
"233 -96 CURVE SMOOTH",
"98 -96 LINE SMOOTH",
"84 -96 OFFCURVE",
"73 -87 OFFCURVE",
"73 -76 CURVE SMOOTH",
"73 603 LINE SMOOTH",
"73 614 OFFCURVE",
"84 623 OFFCURVE",
"98 623 CURVE SMOOTH",
"233 623 LINE SMOOTH",
"244 623 OFFCURVE",
"253 614 OFFCURVE",
"253 603 CURVE SMOOTH",
"253 592 OFFCURVE",
"244 583 OFFCURVE"
);
}
);
width = 335;
},
{
associatedMasterId = "9609CB55-EFEB-482C-9A6C-237B4D7F8578";
layerId = "1259838B-CA7E-4FD2-96DF-0D940295F01A";
name = wire;
width = 335;
},
{
associatedMasterId = "9609CB55-EFEB-482C-9A6C-237B4D7F8578";
layerId = "833564F8-EA9B-461C-9FE1-E68ACEB7133F";
name = mask;
width = 335;
}
);
rightKerningGroup = parenleft;
unicode = 005B;
userData = {
com.typemytype.robofont.guides = (
{
angle = 0;
isGlobal = 0;
x = 181;
y = 267;
}
);
com.typemytype.robofont.layerData = {
mask = {
anchors = (
);
components = (
);
contours = (
);
lib = {
};
name = bracketleft;
unicodes = (
);
width = 335;
};
wire = {
anchors = (
);
components = (
);
contours = (
);
lib = {
};
name = bracketleft;
unicodes = (
);
width = 335;
};
};
};
},
{
glyphname = asciicircum;
lastChange = "2016-04-08 02:21:04 +0000";
layers = (
{
layerId = "9609CB55-EFEB-482C-9A6C-237B4D7F8578";
paths = (
{
closed = 1;
nodes = (
"261 505 CURVE SMOOTH",
"213 414 OFFCURVE",
"162 319 OFFCURVE",
"121 239 CURVE SMOOTH",
"116 229 OFFCURVE",
"101 226 OFFCURVE",
"92 231 CURVE SMOOTH",
"82 236 OFFCURVE",
"76 250 OFFCURVE",
"81 259 CURVE SMOOTH",
"122 339 OFFCURVE",
"173 434 OFFCURVE",
"221 527 CURVE SMOOTH",
"226 536 OFFCURVE",
"241 539 OFFCURVE",
"250 534 CURVE SMOOTH",
"260 529 OFFCURVE",
"266 515 OFFCURVE"
);
},
{
closed = 1;
nodes = (
"370 239 CURVE SMOOTH",
"329 318 OFFCURVE",
"280 413 OFFCURVE",
"230 505 CURVE SMOOTH",
"225 515 OFFCURVE",
"231 528 OFFCURVE",
"240 534 CURVE SMOOTH",
"250 539 OFFCURVE",
"265 536 OFFCURVE",
"270 527 CURVE SMOOTH",
"320 435 OFFCURVE",
"369 340 OFFCURVE",
"410 259 CURVE SMOOTH",
"415 250 OFFCURVE",
"409 236 OFFCURVE",
"399 231 CURVE SMOOTH",
"390 226 OFFCURVE",
"375 229 OFFCURVE"
);
}
);
width = 490;
},
{
associatedMasterId = "9609CB55-EFEB-482C-9A6C-237B4D7F8578";
layerId = "16432B78-CEC2-4A30-84CF-C00FAA4662B3";
name = wire;
width = 490;
},
{
associatedMasterId = "9609CB55-EFEB-482C-9A6C-237B4D7F8578";
layerId = "24B6B3B4-76D4-4124-93FD-93D595C49FD9";
name = mask;
width = 490;
}
);
unicode = 005E;
userData = {
com.typemytype.robofont.layerData = {
mask = {
anchors = (
);
components = (
);
contours = (
);
lib = {
};
name = asciicircum;
unicodes = (
);
width = 490;
};
wire = {
anchors = (
);
components = (
);
contours = (
);
lib = {
};
name = asciicircum;
unicodes = (
);
width = 490;
};
};
};
},
{
glyphname = underscore;
lastChange = "2016-04-08 02:21:04 +0000";
layers = (
{
layerId = "9609CB55-EFEB-482C-9A6C-237B4D7F8578";
paths = (
{
closed = 1;
nodes = (
"40 -81 CURVE SMOOTH",
"455 -81 LINE SMOOTH",
"466 -81 OFFCURVE",
"475 -90 OFFCURVE",
"475 -101 CURVE SMOOTH",
"475 -112 OFFCURVE",
"466 -121 OFFCURVE",
"455 -121 CURVE SMOOTH",
"40 -121 LINE SMOOTH",
"29 -121 OFFCURVE",
"20 -112 OFFCURVE",
"20 -101 CURVE SMOOTH",
"20 -90 OFFCURVE",
"29 -81 OFFCURVE"
);
}
);
width = 495;
},
{
associatedMasterId = "9609CB55-EFEB-482C-9A6C-237B4D7F8578";
layerId = "18A777CB-AE62-4DEB-A61A-4BE55FEA5E81";
name = wire;
width = 495;
},
{
associatedMasterId = "9609CB55-EFEB-482C-9A6C-237B4D7F8578";
layerId = "53D7AB1B-BAE2-45D9-8E3A-B39888CEF918";
name = mask;
width = 495;
}
);
unicode = 005F;
userData = {
com.typemytype.robofont.layerData = {
mask = {
anchors = (
);
components = (
);
contours = (
);
lib = {
};
name = underscore;
unicodes = (
);
width = 495;
};
wire = {
anchors = (
);
components = (
);
contours = (
);
lib = {
};
name = underscore;
unicodes = (
);
width = 495;
};
};
};
},
{
glyphname = grave;
lastChange = "2016-04-08 02:21:04 +0000";
layers = (
{
layerId = "9609CB55-EFEB-482C-9A6C-237B4D7F8578";
paths = (
{
closed = 1;
nodes = (
"229 609 CURVE SMOOTH",
"256 574 OFFCURVE",
"274 553 OFFCURVE",
"300 513 CURVE SMOOTH",
"305 504 OFFCURVE",
"301 490 OFFCURVE",
"292 484 CURVE SMOOTH",
"283 478 OFFCURVE",
"268 480 OFFCURVE",
"262 489 CURVE SMOOTH",
"238 527 OFFCURVE",
"222 548 OFFCURVE",
"195 583 CURVE SMOOTH",
"188 591 OFFCURVE",
"191 605 OFFCURVE",
"200 612 CURVE SMOOTH",
"208 618 OFFCURVE",
"222 618 OFFCURVE"
);
}
);
width = 490;
},
{
associatedMasterId = "9609CB55-EFEB-482C-9A6C-237B4D7F8578";
layerId = "4BA95B1A-0F13-4CA2-B519-698D84CC7104";
name = wire;
width = 490;
},
{
associatedMasterId = "9609CB55-EFEB-482C-9A6C-237B4D7F8578";
layerId = "EBC85D00-564D-415E-9C77-439E8CF08B3E";
name = mask;
width = 490;
}
);
unicode = 0060;
userData = {
com.typemytype.robofont.layerData = {
mask = {
anchors = (
);
components = (
);
contours = (
);
lib = {
};
name = grave;
unicodes = (
);
width = 490;
};
wire = {
anchors = (
);
components = (
);
contours = (
);
lib = {
};
name = grave;
unicodes = (
);
width = 490;
};
};
};
},
{
glyphname = a;
lastChange = "2016-04-08 02:29:55 +0000";
layers = (
{
anchors = (
{
name = top;
position = "{215, 385}";
}
);
layerId = "9609CB55-EFEB-482C-9A6C-237B4D7F8578";
paths = (
{
closed = 1;
nodes = (
"116 368 CURVE SMOOTH",
"138 375 OFFCURVE",
"180 385 OFFCURVE",
"215 385 CURVE SMOOTH",
"320 385 OFFCURVE",
"374 324 OFFCURVE",
"374 228 CURVE SMOOTH",
"374 137 LINE SMOOTH",
"374 91 OFFCURVE",
"381 61 OFFCURVE",
"401 38 CURVE SMOOTH",
"409 30 OFFCURVE",
"408 17 OFFCURVE",
"400 9 CURVE SMOOTH",
"392 2 OFFCURVE",
"378 2 OFFCURVE",
"371 10 CURVE SMOOTH",
"343 39 OFFCURVE",
"324 73 OFFCURVE",
"324 137 CURVE SMOOTH",
"324 228 LINE SMOOTH",
"324 294 OFFCURVE",
"294 345 OFFCURVE",
"215 345 CURVE SMOOTH",
"184 345 OFFCURVE",
"148 337 OFFCURVE",
"128 330 CURVE SMOOTH",
"118 327 OFFCURVE",
"106 332 OFFCURVE",
"103 343 CURVE SMOOTH",
"100 353 OFFCURVE",
"105 365 OFFCURVE"
);
},
{
closed = 1;
nodes = (
"347 197 CURVE SMOOTH",
"314 198 OFFCURVE",
"284 200 OFFCURVE",
"255 200 CURVE SMOOTH",
"189 200 OFFCURVE",
"145 184 OFFCURVE",
"118 157 CURVE SMOOTH",
"101 141 OFFCURVE",
"100 122 OFFCURVE",
"100 104 CURVE SMOOTH",
"100 77 OFFCURVE",
"119 43 OFFCURVE",
"172 43 CURVE SMOOTH",
"239 43 OFFCURVE",
"288 72 OFFCURVE",
"332 131 CURVE SMOOTH",
"338 140 OFFCURVE",
"352 141 OFFCURVE",
"361 134 CURVE SMOOTH",
"370 128 OFFCURVE",
"373 114 OFFCURVE",
"366 105 CURVE SMOOTH",
"314 34 OFFCURVE",
"253 3 OFFCURVE",
"172 3 CURVE SMOOTH",
"83 3 OFFCURVE",
"50 59 OFFCURVE",
"50 104 CURVE",
"50 136 OFFCURVE",
"63 163 OFFCURVE",
"88 187 CURVE SMOOTH",
"121 220 OFFCURVE",
"175 240 OFFCURVE",
"255 240 CURVE SMOOTH",
"284 240 OFFCURVE",
"314 238 OFFCURVE",
"349 237 CURVE SMOOTH",
"359 237 OFFCURVE",
"368 227 OFFCURVE",
"368 216 CURVE SMOOTH",
"368 206 OFFCURVE",
"358 197 OFFCURVE"
);
}
);
width = 450;
},
{
associatedMasterId = "9609CB55-EFEB-482C-9A6C-237B4D7F8578";
layerId = "E7D25C14-292C-47D9-9214-8C080CCDF6BF";
name = wire;
width = 450;
},
{
associatedMasterId = "9609CB55-EFEB-482C-9A6C-237B4D7F8578";
layerId = "D769E292-55C1-411C-9E02-C78A8C76DEC1";
name = mask;
width = 450;
}
);
leftKerningGroup = a;
rightKerningGroup = a;
unicode = 0061;
userData = {
com.typemytype.robofont.layerData = {
mask = {
anchors = (
);
components = (
);
contours = (
);
lib = {
};
name = a;
unicodes = (
);
width = 450;
};
wire = {
anchors = (
);
components = (
);
contours = (
);
lib = {
};
name = a;
unicodes = (
);
width = 450;
};
};
};
},
{
glyphname = b;
lastChange = "2016-04-08 02:21:04 +0000";
layers = (
{
guideLines = (
{
position = "{445, 406}";
}
);
layerId = "9609CB55-EFEB-482C-9A6C-237B4D7F8578";
paths = (
{
closed = 1;
nodes = (
"85 24 CURVE SMOOTH",
"85 534 LINE SMOOTH",
"85 545 OFFCURVE",
"99 554 OFFCURVE",
"110 554 CURVE SMOOTH",
"121 554 OFFCURVE",
"135 545 OFFCURVE",
"135 534 CURVE SMOOTH",
"135 24 LINE SMOOTH",
"135 13 OFFCURVE",
"121 4 OFFCURVE",
"110 4 CURVE SMOOTH",
"99 4 OFFCURVE",
"85 13 OFFCURVE"
);
},
{
closed = 1;
nodes = (
"120 80 CURVE SMOOTH",
"165 55 OFFCURVE",
"213 43 OFFCURVE",
"268 43 CURVE SMOOTH",
"353 43 OFFCURVE",
"407 105 OFFCURVE",
"407 193 CURVE SMOOTH",
"407 279 OFFCURVE",
"355 345 OFFCURVE",
"281 345 CURVE SMOOTH",
"225 345 OFFCURVE",
"170 301 OFFCURVE",
"130 237 CURVE SMOOTH",
"124 228 OFFCURVE",
"110 226 OFFCURVE",
"100 232 CURVE SMOOTH",
"91 238 OFFCURVE",
"86 252 OFFCURVE",
"92 261 CURVE SMOOTH",
"142 341 OFFCURVE",
"213 385 OFFCURVE",
"281 385 CURVE SMOOTH",
"375 385 OFFCURVE",
"457 313 OFFCURVE",
"457 193 CURVE SMOOTH",
"457 73 OFFCURVE",
"375 3 OFFCURVE",
"268 3 CURVE SMOOTH",
"205 3 OFFCURVE",
"151 17 OFFCURVE",
"100 44 CURVE SMOOTH",
"91 49 OFFCURVE",
"87 62 OFFCURVE",
"92 72 CURVE SMOOTH",
"98 81 OFFCURVE",
"110 85 OFFCURVE"
);
}
);
width = 505;
},
{
associatedMasterId = "9609CB55-EFEB-482C-9A6C-237B4D7F8578";
layerId = "16BE98BA-C213-40CF-97BC-9AE9F89D868E";
name = wire;
width = 505;
},
{
associatedMasterId = "9609CB55-EFEB-482C-9A6C-237B4D7F8578";
layerId = "45E740A9-C489-49C3-BD4E-06DE609A8675";
name = mask;
width = 505;
}
);
rightKerningGroup = o;
unicode = 0062;
userData = {
com.typemytype.robofont.guides = (
{
angle = 0;
isGlobal = 0;
x = 445;
y = 406;
}
);
com.typemytype.robofont.layerData = {
mask = {
anchors = (
);
components = (
);
contours = (
);
lib = {
};
name = b;
unicodes = (
);
width = 505;
};
wire = {
anchors = (
);
components = (
);
contours = (
);
lib = {
};
name = b;
unicodes = (
);
width = 505;
};
};
};
},
{
glyphname = c;
lastChange = "2016-04-08 02:30:30 +0000";
layers = (
{
anchors = (
{
name = bottom;
position = "{247, 3}";
},
{
name = top;
position = "{248, 386}";
}
);
layerId = "9609CB55-EFEB-482C-9A6C-237B4D7F8578";
paths = (
{
closed = 1;
nodes = (
"343 331 CURVE SMOOTH",
"318 339 OFFCURVE",
"287 345 OFFCURVE",
"260 345 CURVE SMOOTH",
"155 345 OFFCURVE",
"99 275 OFFCURVE",
"99 185 CURVE SMOOTH",
"99 106 OFFCURVE",
"155 43 OFFCURVE",
"259 43 CURVE SMOOTH",
"297 43 OFFCURVE",
"328 50 OFFCURVE",
"354 61 CURVE SMOOTH",
"364 65 OFFCURVE",
"376 59 OFFCURVE",
"380 49 CURVE SMOOTH",
"384 39 OFFCURVE",
"378 27 OFFCURVE",
"368 23 CURVE SMOOTH",
"338 12 OFFCURVE",
"303 3 OFFCURVE",
"259 3 CURVE SMOOTH",
"125 3 OFFCURVE",
"49 82 OFFCURVE",
"49 185 CURVE",
"49 303 OFFCURVE",
"129 385 OFFCURVE",
"260 385 CURVE SMOOTH",
"291 385 OFFCURVE",
"326 379 OFFCURVE",
"355 369 CURVE SMOOTH",
"366 366 OFFCURVE",
"371 354 OFFCURVE",
"368 344 CURVE SMOOTH",
"365 333 OFFCURVE",
"353 328 OFFCURVE"
);
}
);
width = 436;
},
{
associatedMasterId = "9609CB55-EFEB-482C-9A6C-237B4D7F8578";
layerId = "9C792AA4-6F73-4413-ACE2-47728E9A6B6C";
name = wire;
width = 436;
},
{
associatedMasterId = "9609CB55-EFEB-482C-9A6C-237B4D7F8578";
layerId = "1AE9127A-5520-4E52-8F04-45027E7EFE27";
name = mask;
width = 436;
}
);
leftKerningGroup = o;
rightKerningGroup = c;
unicode = 0063;
userData = {
com.typemytype.robofont.guides = (
);
com.typemytype.robofont.layerData = {
mask = {
anchors = (
);
components = (
);
contours = (
);
lib = {
};
name = c;
unicodes = (
);
width = 436;
};
wire = {
anchors = (
);
components = (
);
contours = (
);
lib = {
};
name = c;
unicodes = (
);
width = 436;
};
};
};
},
{
glyphname = d;
lastChange = "2016-04-08 02:21:04 +0000";
layers = (
{
guideLines = (
{
position = "{445, 406}";
}
);
layerId = "9609CB55-EFEB-482C-9A6C-237B4D7F8578";
paths = (
{
closed = 1;
nodes = (
"382 290 CURVE SMOOTH",
"341 324 OFFCURVE",
"300 345 OFFCURVE",
"245 345 CURVE SMOOTH",
"158 345 OFFCURVE",
"99 275 OFFCURVE",
"99 186 CURVE SMOOTH",
"99 104 OFFCURVE",
"149 43 OFFCURVE",
"224 43 CURVE SMOOTH",
"293 43 OFFCURVE",
"340 93 OFFCURVE",
"375 151 CURVE SMOOTH",
"380 161 OFFCURVE",
"395 163 OFFCURVE",
"404 157 CURVE SMOOTH",
"413 152 OFFCURVE",
"419 138 OFFCURVE",
"413 129 CURVE SMOOTH",
"370 55 OFFCURVE",
"307 3 OFFCURVE",
"224 3 CURVE SMOOTH",
"129 3 OFFCURVE",
"49 71 OFFCURVE",
"49 186 CURVE",
"49 305 OFFCURVE",
"136 385 OFFCURVE",
"245 385 CURVE SMOOTH",
"310 385 OFFCURVE",
"359 362 OFFCURVE",
"408 322 CURVE SMOOTH",
"416 315 OFFCURVE",
"417 302 OFFCURVE",
"410 293 CURVE SMOOTH",
"404 285 OFFCURVE",
"390 283 OFFCURVE"
);
},
{
closed = 1;
nodes = (
"420 534 CURVE SMOOTH",
"420 23 LINE SMOOTH",
"420 12 OFFCURVE",
"406 3 OFFCURVE",
"395 3 CURVE SMOOTH",
"384 3 OFFCURVE",
"370 12 OFFCURVE",
"370 23 CURVE SMOOTH",
"370 534 LINE SMOOTH",
"370 545 OFFCURVE",
"384 554 OFFCURVE",
"395 554 CURVE SMOOTH",
"406 554 OFFCURVE",
"420 545 OFFCURVE"
);
}
);
width = 505;
},
{
associatedMasterId = "9609CB55-EFEB-482C-9A6C-237B4D7F8578";
layerId = "C7E2EC5A-6C14-46A4-8AD5-7EC7D6FCE6FD";
name = wire;
width = 505;
},
{
associatedMasterId = "9609CB55-EFEB-482C-9A6C-237B4D7F8578";
layerId = "510151B7-E95F-4A09-B8B3-9D70DF7DA9B7";
name = mask;
width = 505;
}
);
leftKerningGroup = o;
unicode = 0064;
userData = {
com.typemytype.robofont.guides = (
{
angle = 0;
isGlobal = 0;
x = 445;
y = 406;
}
);
com.typemytype.robofont.layerData = {
mask = {
anchors = (
);
components = (
);
contours = (
);
lib = {
};
name = d;
unicodes = (
);
width = 505;
};
wire = {
anchors = (
);
components = (
);
contours = (
);
lib = {
};
name = d;
unicodes = (
);
width = 505;
};
};
};
},
{
glyphname = e;
lastChange = "2016-04-08 02:30:56 +0000";
layers = (
{
anchors = (
{
name = bottom;
position = "{243, 4}";
},
{
name = top;
position = "{236, 386}";
}
);
layerId = "9609CB55-EFEB-482C-9A6C-237B4D7F8578";
paths = (
{
closed = 1;
nodes = (
"87 213 CURVE SMOOTH",
"296 213 LINE SMOOTH",
"337 213 OFFCURVE",
"353 229 OFFCURVE",
"353 255 CURVE SMOOTH",
"353 294 OFFCURVE",
"310 345 OFFCURVE",
"242 345 CURVE SMOOTH",
"160 345 OFFCURVE",
"99 278 OFFCURVE",
"99 189 CURVE SMOOTH",
"99 95 OFFCURVE",
"164 43 OFFCURVE",
"262 43 CURVE SMOOTH",
"295 43 OFFCURVE",
"328 50 OFFCURVE",
"352 60 CURVE SMOOTH",
"362 64 OFFCURVE",
"374 58 OFFCURVE",
"378 48 CURVE SMOOTH",
"382 38 OFFCURVE",
"376 26 OFFCURVE",
"366 22 CURVE SMOOTH",
"338 12 OFFCURVE",
"301 3 OFFCURVE",
"262 3 CURVE SMOOTH",
"138 3 OFFCURVE",
"49 67 OFFCURVE",
"49 189 CURVE",
"49 310 OFFCURVE",
"138 385 OFFCURVE",
"242 385 CURVE SMOOTH",
"340 385 OFFCURVE",
"403 312 OFFCURVE",
"403 255 CURVE SMOOTH",
"403 205 OFFCURVE",
"375 173 OFFCURVE",
"296 173 CURVE SMOOTH",
"87 173 LINE SMOOTH",
"76 173 OFFCURVE",
"67 182 OFFCURVE",
"67 193 CURVE SMOOTH",
"67 204 OFFCURVE",
"76 213 OFFCURVE"
);
}
);
width = 460;
},
{
associatedMasterId = "9609CB55-EFEB-482C-9A6C-237B4D7F8578";
layerId = "9D2913EB-FD8D-4551-BA43-66E8768F74AC";
name = wire;
width = 460;
},
{
associatedMasterId = "9609CB55-EFEB-482C-9A6C-237B4D7F8578";
layerId = "10A3ACE9-B6B0-47F7-A8F4-F5A758C994A2";
name = mask;
width = 460;
}
);
leftKerningGroup = o;
rightKerningGroup = o;
unicode = 0065;
userData = {
com.typemytype.robofont.guides = (
);
com.typemytype.robofont.layerData = {
mask = {
anchors = (
);
components = (
);
contours = (
);
lib = {
};
name = e;
unicodes = (
);
width = 460;
};
wire = {
anchors = (
);
components = (
);
contours = (
);
lib = {
};
name = e;
unicodes = (
);
width = 460;
};
};
};
},
{
glyphname = f;
lastChange = "2016-04-08 02:21:04 +0000";
layers = (
{
guideLines = (
{
position = "{445, 406}";
}
);
layerId = "9609CB55-EFEB-482C-9A6C-237B4D7F8578";
paths = (
{
closed = 1;
nodes = (
"271 540 CURVE SMOOTH",
"184 535 OFFCURVE",
"159 496 OFFCURVE",
"159 438 CURVE SMOOTH",
"159 23 LINE SMOOTH",
"159 12 OFFCURVE",
"145 3 OFFCURVE",
"134 3 CURVE SMOOTH",
"123 3 OFFCURVE",
"109 12 OFFCURVE",
"109 23 CURVE SMOOTH",
"109 438 LINE SMOOTH",
"109 520 OFFCURVE",
"148 573 OFFCURVE",
"269 580 CURVE SMOOTH",
"280 581 OFFCURVE",
"289 572 OFFCURVE",
"290 561 CURVE SMOOTH",
"291 550 OFFCURVE",
"282 541 OFFCURVE"
);
},
{
closed = 1;
nodes = (
"46 385 CURVE SMOOTH",
"272 385 LINE SMOOTH",
"283 385 OFFCURVE",
"292 376 OFFCURVE",
"292 365 CURVE SMOOTH",
"292 354 OFFCURVE",
"283 345 OFFCURVE",
"272 345 CURVE SMOOTH",
"46 345 LINE SMOOTH",
"35 345 OFFCURVE",
"26 354 OFFCURVE",
"26 365 CURVE SMOOTH",
"26 376 OFFCURVE",
"35 385 OFFCURVE"
);
}
);
width = 318;
},
{
associatedMasterId = "9609CB55-EFEB-482C-9A6C-237B4D7F8578";
layerId = "D19119EF-CF0B-4ED0-AD74-3ECEDA6417C2";
name = wire;
width = 318;
},
{
associatedMasterId = "9609CB55-EFEB-482C-9A6C-237B4D7F8578";
layerId = "9E9886C3-EC4B-4568-9BEF-AE2636124C1A";
name = mask;
width = 318;
}
);
leftKerningGroup = f;
unicode = 0066;
userData = {
com.typemytype.robofont.guides = (
{
angle = 0;
isGlobal = 0;
x = 445;
y = 406;
}
);
com.typemytype.robofont.layerData = {
mask = {
anchors = (
);
components = (
);
contours = (
);
lib = {
};
name = f;
unicodes = (
);
width = 318;
};
wire = {
anchors = (
);
components = (
);
contours = (
);
lib = {
};
name = f;
unicodes = (
);
width = 318;
};
};
};
},
{
glyphname = g;
lastChange = "2016-04-08 02:31:17 +0000";
layers = (
{
anchors = (
{
name = top;
position = "{241, 385}";
}
);
guideLines = (
{
position = "{445, 406}";
}
);
layerId = "9609CB55-EFEB-482C-9A6C-237B4D7F8578";
paths = (
{
closed = 1;
nodes = (
"384 310 CURVE SMOOTH",
"335 333 OFFCURVE",
"303 345 OFFCURVE",
"250 345 CURVE SMOOTH",
"171 345 OFFCURVE",
"99 279 OFFCURVE",
"99 185 CURVE SMOOTH",
"99 98 OFFCURVE",
"154 55 OFFCURVE",
"216 55 CURVE SMOOTH",
"276 55 OFFCURVE",
"334 91 OFFCURVE",
"373 154 CURVE SMOOTH",
"379 163 OFFCURVE",
"393 165 OFFCURVE",
"403 159 CURVE SMOOTH",
"412 153 OFFCURVE",
"417 139 OFFCURVE",
"411 130 CURVE SMOOTH",
"362 53 OFFCURVE",
"288 15 OFFCURVE",
"216 15 CURVE SMOOTH",
"136 15 OFFCURVE",
"49 62 OFFCURVE",
"49 185 CURVE",
"49 311 OFFCURVE",
"151 385 OFFCURVE",
"250 385 CURVE SMOOTH",
"309 385 OFFCURVE",
"347 373 OFFCURVE",
"402 346 CURVE SMOOTH",
"411 341 OFFCURVE",
"416 329 OFFCURVE",
"411 319 CURVE SMOOTH",
"406 310 OFFCURVE",
"394 305 OFFCURVE"
);
},
{
closed = 1;
nodes = (
"162 -138 CURVE SMOOTH",
"308 -138 OFFCURVE",
"368 -53 OFFCURVE",
"368 69 CURVE SMOOTH",
"368 365 LINE SMOOTH",
"368 376 OFFCURVE",
"382 385 OFFCURVE",
"393 385 CURVE SMOOTH",
"404 385 OFFCURVE",
"418 376 OFFCURVE",
"418 365 CURVE SMOOTH",
"418 69 LINE SMOOTH",
"418 -83 OFFCURVE",
"336 -178 OFFCURVE",
"162 -178 CURVE SMOOTH",
"151 -178 OFFCURVE",
"142 -169 OFFCURVE",
"142 -158 CURVE SMOOTH",
"142 -147 OFFCURVE",
"151 -138 OFFCURVE"
);
}
);
width = 503;
},
{
associatedMasterId = "9609CB55-EFEB-482C-9A6C-237B4D7F8578";
layerId = "A23EACFD-2C98-41D4-859B-70EA302C28C2";
name = wire;
width = 503;
},
{
associatedMasterId = "9609CB55-EFEB-482C-9A6C-237B4D7F8578";
layerId = "86318F30-0D8D-452E-8B69-BA2683F18EAE";
name = mask;
width = 503;
}
);
leftKerningGroup = o;
unicode = 0067;
userData = {
com.typemytype.robofont.guides = (
{
angle = 0;
isGlobal = 0;
x = 445;
y = 406;
}
);
com.typemytype.robofont.layerData = {
mask = {
anchors = (
);
components = (
);
contours = (
);
lib = {
};
name = g;
unicodes = (
);
width = 503;
};
wire = {
anchors = (
);
components = (
);
contours = (
);
lib = {
};
name = g;
unicodes = (
);
width = 503;
};
};
};
},
{
glyphname = h;
lastChange = "2016-04-08 02:21:04 +0000";
layers = (
{
guideLines = (
{
position = "{445, 406}";
}
);
layerId = "9609CB55-EFEB-482C-9A6C-237B4D7F8578";
paths = (
{
closed = 1;
nodes = (
"85 23 CURVE SMOOTH",
"85 534 LINE SMOOTH",
"85 545 OFFCURVE",
"99 554 OFFCURVE",
"110 554 CURVE SMOOTH",
"121 554 OFFCURVE",
"135 545 OFFCURVE",
"135 534 CURVE SMOOTH",
"135 23 LINE SMOOTH",
"135 12 OFFCURVE",
"121 3 OFFCURVE",
"110 3 CURVE SMOOTH",
"99 3 OFFCURVE",
"85 12 OFFCURVE"
);
},
{
closed = 1;
nodes = (
"372 23 CURVE SMOOTH",
"372 223 LINE SMOOTH",
"372 305 OFFCURVE",
"340 345 OFFCURVE",
"285 345 CURVE SMOOTH",
"227 345 OFFCURVE",
"173 307 OFFCURVE",
"129 263 CURVE SMOOTH",
"121 256 OFFCURVE",
"107 256 OFFCURVE",
"100 264 CURVE SMOOTH",
"92 271 OFFCURVE",
"92 285 OFFCURVE",
"99 293 CURVE SMOOTH",
"151 345 OFFCURVE",
"217 385 OFFCURVE",
"285 385 CURVE SMOOTH",
"358 385 OFFCURVE",
"422 351 OFFCURVE",
"422 223 CURVE SMOOTH",
"422 23 LINE SMOOTH",
"422 12 OFFCURVE",
"408 3 OFFCURVE",
"397 3 CURVE SMOOTH",
"386 3 OFFCURVE",
"372 12 OFFCURVE"
);
}
);
width = 497;
},
{
associatedMasterId = "9609CB55-EFEB-482C-9A6C-237B4D7F8578";
layerId = "48C3E333-1645-4F78-9419-DD5936B7B58E";
name = wire;
width = 497;
},
{
associatedMasterId = "9609CB55-EFEB-482C-9A6C-237B4D7F8578";
layerId = "D8F9BD79-D26B-4815-BAAA-C11FA0C9CB61";
name = mask;
width = 497;
}
);
unicode = 0068;
userData = {
com.typemytype.robofont.guides = (
{
angle = 0;
isGlobal = 0;
x = 445;
y = 406;
}
);
com.typemytype.robofont.layerData = {
mask = {
anchors = (
);
components = (
);
contours = (
);
lib = {
};
name = h;
unicodes = (
);
width = 497;
};
wire = {
anchors = (
);
components = (
);
contours = (
);
lib = {
};
name = h;
unicodes = (
);
width = 497;
};
};
};
},
{
color = (202,249,213,1);
glyphname = i;
lastChange = "2016-04-08 02:21:04 +0000";
layers = (
{
guideLines = (
{
position = "{445, 406}";
}
);
layerId = "9609CB55-EFEB-482C-9A6C-237B4D7F8578";
paths = (
{
closed = 1;
nodes = (
"116 593 CURVE SMOOTH",
"137 593 OFFCURVE",
"159 578 OFFCURVE",
"159 547 CURVE SMOOTH",
"159 515 OFFCURVE",
"137 503 OFFCURVE",
"117 503 CURVE SMOOTH",
"95 503 OFFCURVE",
"73 517 OFFCURVE",
"73 547 CURVE SMOOTH",
"73 578 OFFCURVE",
"95 593 OFFCURVE"
);
},
{
closed = 1;
nodes = (
"91 23 CURVE SMOOTH",
"91 365 LINE SMOOTH",
"91 376 OFFCURVE",
"105 385 OFFCURVE",
"116 385 CURVE SMOOTH",
"127 385 OFFCURVE",
"141 376 OFFCURVE",
"141 365 CURVE SMOOTH",
"141 23 LINE SMOOTH",
"141 12 OFFCURVE",
"127 3 OFFCURVE",
"116 3 CURVE SMOOTH",
"105 3 OFFCURVE",
"91 12 OFFCURVE"
);
}
);
width = 232;
},
{
associatedMasterId = "9609CB55-EFEB-482C-9A6C-237B4D7F8578";
layerId = "025768E9-7ACC-4499-9B1E-9057C8DE831F";
name = wire;
width = 232;
},
{
associatedMasterId = "9609CB55-EFEB-482C-9A6C-237B4D7F8578";
layerId = "B412C482-B77F-4B41-AEFC-3AB05CEEA07F";
name = mask;
width = 232;
}
);
leftKerningGroup = r;
unicode = 0069;
userData = {
com.typemytype.robofont.guides = (
{
angle = 0;
isGlobal = 0;
x = 445;
y = 406;
}
);
com.typemytype.robofont.layerData = {
mask = {
anchors = (
);
components = (
);
contours = (
);
lib = {
};
name = i;
unicodes = (
);
width = 232;
};
wire = {
anchors = (
);
components = (
);
contours = (
);
lib = {
};
name = i;
unicodes = (
);
width = 232;
};
};
com.typemytype.robofont.mark = (
0.7940,
0.9750,
0.8360,
1
);
};
},
{
color = (202,249,213,1);
glyphname = j;
lastChange = "2016-04-08 02:21:04 +0000";
layers = (
{
guideLines = (
{
position = "{445, 406}";
}
);
layerId = "9609CB55-EFEB-482C-9A6C-237B4D7F8578";
paths = (
{
closed = 1;
nodes = (
"116 593 CURVE SMOOTH",
"137 593 OFFCURVE",
"159 578 OFFCURVE",
"159 547 CURVE SMOOTH",
"159 515 OFFCURVE",
"137 503 OFFCURVE",
"117 503 CURVE SMOOTH",
"95 503 OFFCURVE",
"73 517 OFFCURVE",
"73 547 CURVE SMOOTH",
"73 578 OFFCURVE",
"95 593 OFFCURVE"
);
},
{
closed = 1;
nodes = (
"-1 -116 CURVE SMOOTH",
"61 -92 OFFCURVE",
"91 -43 OFFCURVE",
"91 42 CURVE SMOOTH",
"91 365 LINE SMOOTH",
"91 376 OFFCURVE",
"105 385 OFFCURVE",
"116 385 CURVE SMOOTH",
"127 385 OFFCURVE",
"141 376 OFFCURVE",
"141 365 CURVE SMOOTH",
"141 42 LINE SMOOTH",
"141 -71 OFFCURVE",
"91 -124 OFFCURVE",
"13 -154 CURVE SMOOTH",
"3 -158 OFFCURVE",
"-9 -152 OFFCURVE",
"-13 -142 CURVE SMOOTH",
"-17 -132 OFFCURVE",
"-11 -120 OFFCURVE"
);
}
);
width = 232;
},
{
associatedMasterId = "9609CB55-EFEB-482C-9A6C-237B4D7F8578";
layerId = "B714D92D-FF7F-46B3-896D-6634232AC2C9";
name = wire;
width = 232;
},
{
associatedMasterId = "9609CB55-EFEB-482C-9A6C-237B4D7F8578";
layerId = "A392F6AC-73A7-46E9-8A00-7A0BDA43DCC3";
name = mask;
width = 232;
}
);
unicode = 006A;
userData = {
com.typemytype.robofont.guides = (
{
angle = 0;
isGlobal = 0;
x = 445;
y = 406;
}
);
com.typemytype.robofont.layerData = {
mask = {
anchors = (
);
components = (
);
contours = (
);
lib = {
};
name = j;
unicodes = (
);
width = 232;
};
wire = {
anchors = (
);
components = (
);
contours = (
);
lib = {
};
name = j;
unicodes = (
);
width = 232;
};
};
com.typemytype.robofont.mark = (
0.7940,
0.9750,
0.8360,
1
);
};
},
{
glyphname = k;
lastChange = "2016-04-08 02:31:29 +0000";
layers = (
{
anchors = (
{
name = bottom;
position = "{240, 11}";
}
);
guideLines = (
{
position = "{445, 406}";
}
);
layerId = "9609CB55-EFEB-482C-9A6C-237B4D7F8578";
paths = (
{
closed = 1;
nodes = (
"85 23 CURVE SMOOTH",
"85 534 LINE SMOOTH",
"85 545 OFFCURVE",
"99 554 OFFCURVE",
"110 554 CURVE SMOOTH",
"121 554 OFFCURVE",
"135 545 OFFCURVE",
"135 534 CURVE SMOOTH",
"135 23 LINE SMOOTH",
"135 12 OFFCURVE",
"121 3 OFFCURVE",
"110 3 CURVE SMOOTH",
"99 3 OFFCURVE",
"85 12 OFFCURVE"
);
},
{
closed = 1;
nodes = (
"252 262 CURVE SMOOTH",
"413 36 LINE SMOOTH",
"419 27 OFFCURVE",
"415 13 OFFCURVE",
"407 7 CURVE SMOOTH",
"398 0 OFFCURVE",
"384 2 OFFCURVE",
"377 10 CURVE SMOOTH",
"216 236 LINE SMOOTH",
"210 245 OFFCURVE",
"214 259 OFFCURVE",
"222 265 CURVE SMOOTH",
"231 272 OFFCURVE",
"245 270 OFFCURVE"
);
},
{
closed = 1;
nodes = (
"395 349 CURVE SMOOTH",
"125 137 LINE SMOOTH",
"116 130 OFFCURVE",
"103 132 OFFCURVE",
"96 141 CURVE SMOOTH",
"90 149 OFFCURVE",
"91 162 OFFCURVE",
"99 169 CURVE SMOOTH",
"369 381 LINE SMOOTH",
"378 388 OFFCURVE",
"391 386 OFFCURVE",
"398 377 CURVE SMOOTH",
"404 369 OFFCURVE",
"403 356 OFFCURVE"
);
}
);
width = 469;
},
{
associatedMasterId = "9609CB55-EFEB-482C-9A6C-237B4D7F8578";
layerId = "5C733FC6-6265-48E8-8F64-AD4E5322602E";
name = wire;
width = 469;
},
{
associatedMasterId = "9609CB55-EFEB-482C-9A6C-237B4D7F8578";
layerId = "82279817-8E54-405D-9D1F-8B37E1C08C38";
name = mask;
width = 469;
}
);
rightKerningGroup = k;
unicode = 006B;
userData = {
com.typemytype.robofont.guides = (
{
angle = 0;
isGlobal = 0;
x = 445;
y = 406;
}
);
com.typemytype.robofont.layerData = {
mask = {
anchors = (
);
components = (
);
contours = (
);
lib = {
};
name = k;
unicodes = (
);
width = 469;
};
wire = {
anchors = (
);
components = (
);
contours = (
);
lib = {
};
name = k;
unicodes = (
);
width = 469;
};
};
};
},
{
glyphname = l;
lastChange = "2016-04-08 02:31:55 +0000";
layers = (
{
anchors = (
{
name = bottom;
position = "{116, 3}";
},
{
name = top;
position = "{117, 554}";
}
);
guideLines = (
{
position = "{445, 406}";
}
);
layerId = "9609CB55-EFEB-482C-9A6C-237B4D7F8578";
paths = (
{
closed = 1;
nodes = (
"91 23 CURVE SMOOTH",
"91 534 LINE SMOOTH",
"91 545 OFFCURVE",
"105 554 OFFCURVE",
"116 554 CURVE SMOOTH",
"127 554 OFFCURVE",
"141 545 OFFCURVE",
"141 534 CURVE SMOOTH",
"141 23 LINE SMOOTH",
"141 12 OFFCURVE",
"127 3 OFFCURVE",
"116 3 CURVE SMOOTH",
"105 3 OFFCURVE",
"91 12 OFFCURVE"
);
}
);
width = 232;
},
{
associatedMasterId = "9609CB55-EFEB-482C-9A6C-237B4D7F8578";
layerId = "ADE51C50-E67B-43F2-B08D-D504FA6DE4B1";
name = wire;
width = 232;
},
{
associatedMasterId = "9609CB55-EFEB-482C-9A6C-237B4D7F8578";
layerId = "3DFD072F-3B48-482B-ADB6-EFAD822B85A7";
name = mask;
width = 232;
}
);
unicode = 006C;
userData = {
com.typemytype.robofont.guides = (
{
angle = 0;
isGlobal = 0;
x = 445;
y = 406;
}
);
com.typemytype.robofont.layerData = {
mask = {
anchors = (
);
components = (
);
contours = (
);
lib = {
};
name = l;
unicodes = (
);
width = 232;
};
wire = {
anchors = (
);
components = (
);
contours = (
);
lib = {
};
name = l;
unicodes = (
);
width = 232;
};
};
};
},
{
glyphname = m;
lastChange = "2016-04-08 02:21:04 +0000";
layers = (
{
guideLines = (
{
position = "{445, 406}";
}
);
layerId = "9609CB55-EFEB-482C-9A6C-237B4D7F8578";
paths = (
{
closed = 1;
nodes = (
"85 23 CURVE SMOOTH",
"85 365 LINE SMOOTH",
"85 376 OFFCURVE",
"99 385 OFFCURVE",
"110 385 CURVE SMOOTH",
"121 385 OFFCURVE",
"135 376 OFFCURVE",
"135 365 CURVE SMOOTH",
"135 23 LINE SMOOTH",
"135 12 OFFCURVE",
"121 3 OFFCURVE",
"110 3 CURVE SMOOTH",
"99 3 OFFCURVE",
"85 12 OFFCURVE"
);
},
{
closed = 1;
nodes = (
"357 23 CURVE SMOOTH",
"357 233 LINE SMOOTH",
"357 312 OFFCURVE",
"325 345 OFFCURVE",
"273 345 CURVE SMOOTH",
"221 345 OFFCURVE",
"167 306 OFFCURVE",
"128 262 CURVE SMOOTH",
"121 254 OFFCURVE",
"107 254 OFFCURVE",
"99 261 CURVE SMOOTH",
"91 268 OFFCURVE",
"89 282 OFFCURVE",
"96 290 CURVE SMOOTH",
"145 344 OFFCURVE",
"211 385 OFFCURVE",
"273 385 CURVE SMOOTH",
"343 385 OFFCURVE",
"407 360 OFFCURVE",
"407 233 CURVE SMOOTH",
"407 23 LINE SMOOTH",
"407 12 OFFCURVE",
"393 3 OFFCURVE",
"382 3 CURVE SMOOTH",
"371 3 OFFCURVE",
"357 12 OFFCURVE"
);
},
{
closed = 1;
nodes = (
"627 23 CURVE SMOOTH",
"627 233 LINE SMOOTH",
"627 312 OFFCURVE",
"595 345 OFFCURVE",
"543 345 CURVE SMOOTH",
"491 345 OFFCURVE",
"438 306 OFFCURVE",
"398 262 CURVE SMOOTH",
"390 254 OFFCURVE",
"376 254 OFFCURVE",
"368 261 CURVE SMOOTH",
"361 269 OFFCURVE",
"359 282 OFFCURVE",
"366 290 CURVE SMOOTH",
"416 344 OFFCURVE",
"481 385 OFFCURVE",
"543 385 CURVE SMOOTH",
"613 385 OFFCURVE",
"677 360 OFFCURVE",
"677 233 CURVE SMOOTH",
"677 23 LINE SMOOTH",
"677 12 OFFCURVE",
"663 3 OFFCURVE",
"652 3 CURVE SMOOTH",
"641 3 OFFCURVE",
"627 12 OFFCURVE"
);
}
);
width = 752;
},
{
associatedMasterId = "9609CB55-EFEB-482C-9A6C-237B4D7F8578";
layerId = "C6D81999-D7BD-42B5-800A-96E758922CA4";
name = wire;
width = 752;
},
{
associatedMasterId = "9609CB55-EFEB-482C-9A6C-237B4D7F8578";
layerId = "949269AE-1E37-4FC9-8D42-12C9F7A01D00";
name = mask;
width = 752;
}
);
leftKerningGroup = r;
unicode = 006D;
userData = {
com.typemytype.robofont.guides = (
{
angle = 0;
isGlobal = 0;
x = 445;
y = 406;
}
);
com.typemytype.robofont.layerData = {
mask = {
anchors = (
);
components = (
);
contours = (
);
lib = {
};
name = m;
unicodes = (
);
width = 752;
};
wire = {
anchors = (
);
components = (
);
contours = (
);
lib = {
};
name = m;
unicodes = (
);
width = 752;
};
};
};
},
{
glyphname = n;
lastChange = "2016-04-08 02:32:14 +0000";
layers = (
{
anchors = (
{
name = bottom;
position = "{242, 21}";
},
{
name = top;
position = "{283, 386}";
}
);
guideLines = (
{
position = "{445, 406}";
}
);
layerId = "9609CB55-EFEB-482C-9A6C-237B4D7F8578";
paths = (
{
closed = 1;
nodes = (
"85 23 CURVE SMOOTH",
"85 365 LINE SMOOTH",
"85 376 OFFCURVE",
"99 385 OFFCURVE",
"110 385 CURVE SMOOTH",
"121 385 OFFCURVE",
"135 376 OFFCURVE",
"135 365 CURVE SMOOTH",
"135 23 LINE SMOOTH",
"135 12 OFFCURVE",
"121 3 OFFCURVE",
"110 3 CURVE SMOOTH",
"99 3 OFFCURVE",
"85 12 OFFCURVE"
);
},
{
closed = 1;
nodes = (
"372 23 CURVE SMOOTH",
"372 223 LINE SMOOTH",
"372 305 OFFCURVE",
"340 345 OFFCURVE",
"285 345 CURVE SMOOTH",
"227 345 OFFCURVE",
"173 307 OFFCURVE",
"129 263 CURVE SMOOTH",
"121 256 OFFCURVE",
"107 256 OFFCURVE",
"100 264 CURVE SMOOTH",
"92 271 OFFCURVE",
"92 285 OFFCURVE",
"99 293 CURVE SMOOTH",
"151 345 OFFCURVE",
"217 385 OFFCURVE",
"285 385 CURVE SMOOTH",
"358 385 OFFCURVE",
"422 351 OFFCURVE",
"422 223 CURVE SMOOTH",
"422 23 LINE SMOOTH",
"422 12 OFFCURVE",
"408 3 OFFCURVE",
"397 3 CURVE SMOOTH",
"386 3 OFFCURVE",
"372 12 OFFCURVE"
);
}
);
width = 497;
},
{
associatedMasterId = "9609CB55-EFEB-482C-9A6C-237B4D7F8578";
layerId = "181FE1F8-5CA7-4F0B-AAD4-D43E05188208";
name = wire;
width = 497;
},
{
associatedMasterId = "9609CB55-EFEB-482C-9A6C-237B4D7F8578";
layerId = "14E5E4A8-E76E-4719-B54B-65140A138DD4";
name = mask;
width = 497;
}
);
leftKerningGroup = r;
unicode = 006E;
userData = {
com.typemytype.robofont.guides = (
{
angle = 0;
isGlobal = 0;
x = 445;
y = 406;
}
);
com.typemytype.robofont.layerData = {
mask = {
anchors = (
);
components = (
);
contours = (
);
lib = {
};
name = n;
unicodes = (
);
width = 497;
};
wire = {
anchors = (
);
components = (
);
contours = (
);
lib = {
};
name = n;
unicodes = (
);
width = 497;
};
};
};
},
{
glyphname = o;
lastChange = "2016-04-08 02:32:37 +0000";
layers = (
{
anchors = (
{
name = bottom;
position = "{247, 0}";
},
{
name = top;
position = "{247, 389}";
}
);
guideLines = (
{
position = "{215, 411}";
}
);
layerId = "9609CB55-EFEB-482C-9A6C-237B4D7F8578";
paths = (
{
closed = 1;
nodes = (
"247 389 CURVE SMOOTH",
"366 389 OFFCURVE",
"446 302 OFFCURVE",
"446 189 CURVE SMOOTH",
"446 79 OFFCURVE",
"365 -1 OFFCURVE",
"247 -1 CURVE SMOOTH",
"129 -1 OFFCURVE",
"48 80 OFFCURVE",
"48 191 CURVE",
"48 302 OFFCURVE",
"127 389 OFFCURVE"
);
},
{
closed = 1;
nodes = (
"247 349 CURVE SMOOTH",
"151 349 OFFCURVE",
"98 274 OFFCURVE",
"98 191 CURVE SMOOTH",
"98 108 OFFCURVE",
"153 39 OFFCURVE",
"247 39 CURVE SMOOTH",
"341 39 OFFCURVE",
"396 107 OFFCURVE",
"396 189 CURVE SMOOTH",
"396 274 OFFCURVE",
"342 349 OFFCURVE"
);
}
);
width = 495;
},
{
associatedMasterId = "9609CB55-EFEB-482C-9A6C-237B4D7F8578";
layerId = "8934FDBD-8420-4C33-AD72-2B4EF5B0F06C";
name = wire;
width = 495;
},
{
associatedMasterId = "9609CB55-EFEB-482C-9A6C-237B4D7F8578";
layerId = "805F18AD-CD53-45E0-8D4B-06AC64B1A41C";
name = mask;
width = 495;
}
);
leftKerningGroup = o;
rightKerningGroup = o;
unicode = 006F;
userData = {
com.typemytype.robofont.guides = (
{
angle = 0;
isGlobal = 0;
x = 215;
y = 411;
}
);
com.typemytype.robofont.layerData = {
mask = {
anchors = (
);
components = (
);
contours = (
);
lib = {
};
name = o;
unicodes = (
);
width = 495;
};
wire = {
anchors = (
);
components = (
);
contours = (
);
lib = {
};
name = o;
unicodes = (
);
width = 495;
};
};
};
},
{
glyphname = p;
lastChange = "2016-04-08 02:21:04 +0000";
layers = (
{
guideLines = (
{
position = "{445, 406}";
}
);
layerId = "9609CB55-EFEB-482C-9A6C-237B4D7F8578";
paths = (
{
closed = 1;
nodes = (
"85 -168 CURVE SMOOTH",
"85 365 LINE SMOOTH",
"85 376 OFFCURVE",
"99 385 OFFCURVE",
"110 385 CURVE SMOOTH",
"121 385 OFFCURVE",
"135 376 OFFCURVE",
"135 365 CURVE SMOOTH",
"135 -168 LINE SMOOTH",
"135 -179 OFFCURVE",
"121 -188 OFFCURVE",
"110 -188 CURVE SMOOTH",
"99 -188 OFFCURVE",
"85 -179 OFFCURVE"
);
},
{
closed = 1;
nodes = (
"123 103 CURVE SMOOTH",
"165 68 OFFCURVE",
"215 43 OFFCURVE",
"265 43 CURVE SMOOTH",
"352 43 OFFCURVE",
"405 112 OFFCURVE",
"405 194 CURVE SMOOTH",
"405 287 OFFCURVE",
"349 345 OFFCURVE",
"277 345 CURVE SMOOTH",
"218 345 OFFCURVE",
"169 303 OFFCURVE",
"129 245 CURVE SMOOTH",
"123 237 OFFCURVE",
"108 235 OFFCURVE",
"99 242 CURVE SMOOTH",
"91 248 OFFCURVE",
"87 262 OFFCURVE",
"93 271 CURVE SMOOTH",
"143 341 OFFCURVE",
"206 385 OFFCURVE",
"277 385 CURVE SMOOTH",
"367 385 OFFCURVE",
"455 323 OFFCURVE",
"455 194 CURVE SMOOTH",
"455 82 OFFCURVE",
"374 3 OFFCURVE",
"265 3 CURVE SMOOTH",
"207 3 OFFCURVE",
"147 30 OFFCURVE",
"97 71 CURVE SMOOTH",
"89 78 OFFCURVE",
"88 91 OFFCURVE",
"95 100 CURVE SMOOTH",
"101 108 OFFCURVE",
"115 110 OFFCURVE"
);
}
);
width = 503;
},
{
associatedMasterId = "9609CB55-EFEB-482C-9A6C-237B4D7F8578";
layerId = "383CA40E-AFEE-4749-A794-25E9656242C2";
name = wire;
width = 503;
},
{
associatedMasterId = "9609CB55-EFEB-482C-9A6C-237B4D7F8578";
layerId = "1A11BA2D-8E9A-4903-9500-083CEF31C8AA";
name = mask;
width = 503;
}
);
rightKerningGroup = o;
unicode = 0070;
userData = {
com.typemytype.robofont.guides = (
{
angle = 0;
isGlobal = 0;
x = 445;
y = 406;
}
);
com.typemytype.robofont.layerData = {
mask = {
anchors = (
);
components = (
);
contours = (
);
lib = {
};
name = p;
unicodes = (
);
width = 503;
};
wire = {
anchors = (
);
components = (
);
contours = (
);
lib = {
};
name = p;
unicodes = (
);
width = 503;
};
};
};
},
{
glyphname = q;
lastChange = "2016-04-08 02:21:04 +0000";
layers = (
{
guideLines = (
{
position = "{445, 406}";
}
);
layerId = "9609CB55-EFEB-482C-9A6C-237B4D7F8578";
paths = (
{
closed = 1;
nodes = (
"420 365 CURVE SMOOTH",
"420 -168 LINE SMOOTH",
"420 -179 OFFCURVE",
"406 -188 OFFCURVE",
"395 -188 CURVE SMOOTH",
"384 -188 OFFCURVE",
"370 -179 OFFCURVE",
"370 -168 CURVE SMOOTH",
"370 365 LINE SMOOTH",
"370 376 OFFCURVE",
"384 385 OFFCURVE",
"395 385 CURVE SMOOTH",
"406 385 OFFCURVE",
"420 376 OFFCURVE"
);
},
{
closed = 1;
nodes = (
"384 307 CURVE SMOOTH",
"346 331 OFFCURVE",
"305 345 OFFCURVE",
"251 345 CURVE SMOOTH",
"166 345 OFFCURVE",
"99 279 OFFCURVE",
"99 179 CURVE SMOOTH",
"99 98 OFFCURVE",
"156 43 OFFCURVE",
"222 43 CURVE SMOOTH",
"280 43 OFFCURVE",
"335 78 OFFCURVE",
"375 143 CURVE SMOOTH",
"381 152 OFFCURVE",
"395 154 OFFCURVE",
"404 148 CURVE SMOOTH",
"414 142 OFFCURVE",
"419 129 OFFCURVE",
"413 119 CURVE SMOOTH",
"363 38 OFFCURVE",
"292 3 OFFCURVE",
"222 3 CURVE SMOOTH",
"136 3 OFFCURVE",
"49 64 OFFCURVE",
"49 179 CURVE",
"49 311 OFFCURVE",
"146 385 OFFCURVE",
"251 385 CURVE SMOOTH",
"313 385 OFFCURVE",
"362 369 OFFCURVE",
"406 341 CURVE SMOOTH",
"415 335 OFFCURVE",
"418 322 OFFCURVE",
"412 313 CURVE SMOOTH",
"406 304 OFFCURVE",
"393 301 OFFCURVE"
);
}
);
width = 505;
},
{
associatedMasterId = "9609CB55-EFEB-482C-9A6C-237B4D7F8578";
layerId = "5745E556-E85A-4191-BA23-FF0ED3F5213C";
name = wire;
width = 505;
},
{
associatedMasterId = "9609CB55-EFEB-482C-9A6C-237B4D7F8578";
layerId = "28132010-0DD4-450B-9752-AA6420DD2947";
name = mask;
width = 505;
}
);
leftKerningGroup = o;
unicode = 0071;
userData = {
com.typemytype.robofont.guides = (
{
angle = 0;
isGlobal = 0;
x = 445;
y = 406;
}
);
com.typemytype.robofont.layerData = {
mask = {
anchors = (
);
components = (
);
contours = (
);
lib = {
};
name = q;
unicodes = (
);
width = 505;
};
wire = {
anchors = (
);
components = (
);
contours = (
);
lib = {
};
name = q;
unicodes = (
);
width = 505;
};
};
};
},
{
glyphname = r;
lastChange = "2016-04-08 02:32:56 +0000";
layers = (
{
anchors = (
{
name = bottom;
position = "{110, 3}";
},
{
name = top;
position = "{181, 385}";
}
);
layerId = "9609CB55-EFEB-482C-9A6C-237B4D7F8578";
paths = (
{
closed = 1;
nodes = (
"85 23 CURVE SMOOTH",
"85 365 LINE SMOOTH",
"85 376 OFFCURVE",
"99 385 OFFCURVE",
"110 385 CURVE SMOOTH",
"121 385 OFFCURVE",
"135 376 OFFCURVE",
"135 365 CURVE SMOOTH",
"135 23 LINE SMOOTH",
"135 12 OFFCURVE",
"121 3 OFFCURVE",
"110 3 CURVE SMOOTH",
"99 3 OFFCURVE",
"85 12 OFFCURVE"
);
},
{
closed = 1;
nodes = (
"92 246 CURVE SMOOTH",
"143 325 OFFCURVE",
"205 373 OFFCURVE",
"300 385 CURVE SMOOTH",
"310 386 OFFCURVE",
"321 378 OFFCURVE",
"322 367 CURVE SMOOTH",
"323 357 OFFCURVE",
"315 346 OFFCURVE",
"304 345 CURVE SMOOTH",
"223 335 OFFCURVE",
"173 289 OFFCURVE",
"130 222 CURVE SMOOTH",
"124 213 OFFCURVE",
"109 211 OFFCURVE",
"100 217 CURVE SMOOTH",
"91 223 OFFCURVE",
"87 237 OFFCURVE"
);
}
);
width = 346;
},
{
associatedMasterId = "9609CB55-EFEB-482C-9A6C-237B4D7F8578";
layerId = "15386AAD-1146-4C91-9AB7-9DE79C636501";
name = wire;
width = 346;
},
{
associatedMasterId = "9609CB55-EFEB-482C-9A6C-237B4D7F8578";
layerId = "9376B2D0-A970-45B8-9EDA-A46663166354";
name = mask;
width = 346;
}
);
leftKerningGroup = r;
rightKerningGroup = r;
unicode = 0072;
userData = {
com.typemytype.robofont.guides = (
);
com.typemytype.robofont.layerData = {
mask = {
anchors = (
);
components = (
);
contours = (
);
lib = {
};
name = r;
unicodes = (
);
width = 346;
};
wire = {
anchors = (
);
components = (
);
contours = (
);
lib = {
};
name = r;
unicodes = (
);
width = 346;
};
};
};
},
{
glyphname = s;
lastChange = "2016-04-08 02:33:13 +0000";
layers = (
{
anchors = (
{
name = bottom;
position = "{219, -1}";
},
{
name = top;
position = "{222, 387}";
}
);
layerId = "9609CB55-EFEB-482C-9A6C-237B4D7F8578";
paths = (
{
closed = 1;
nodes = (
"331 334 CURVE SMOOTH",
"303 341 OFFCURVE",
"267 348 OFFCURVE",
"227 348 CURVE SMOOTH",
"156 348 OFFCURVE",
"124 317 OFFCURVE",
"124 284 CURVE SMOOTH",
"124 254 OFFCURVE",
"154 232 OFFCURVE",
"221 225 CURVE SMOOTH",
"261 221 LINE SMOOTH",
"356 211 OFFCURVE",
"394 162 OFFCURVE",
"394 109 CURVE SMOOTH",
"394 55 OFFCURVE",
"354 -1 OFFCURVE",
"233 -1 CURVE SMOOTH",
"183 -1 OFFCURVE",
"132 9 OFFCURVE",
"85 29 CURVE SMOOTH",
"75 33 OFFCURVE",
"70 45 OFFCURVE",
"75 55 CURVE SMOOTH",
"79 65 OFFCURVE",
"91 70 OFFCURVE",
"101 65 CURVE SMOOTH",
"142 47 OFFCURVE",
"189 39 OFFCURVE",
"233 39 CURVE SMOOTH",
"310 39 OFFCURVE",
"344 71 OFFCURVE",
"344 109 CURVE SMOOTH",
"344 144 OFFCURVE",
"318 175 OFFCURVE",
"257 181 CURVE SMOOTH",
"217 185 LINE SMOOTH",
"104 196 OFFCURVE",
"74 240 OFFCURVE",
"74 284 CURVE SMOOTH",
"74 333 OFFCURVE",
"112 388 OFFCURVE",
"227 388 CURVE SMOOTH",
"271 388 OFFCURVE",
"311 381 OFFCURVE",
"341 372 CURVE SMOOTH",
"352 369 OFFCURVE",
"358 358 OFFCURVE",
"355 348 CURVE SMOOTH",
"352 337 OFFCURVE",
"341 331 OFFCURVE"
);
}
);
width = 450;
},
{
associatedMasterId = "9609CB55-EFEB-482C-9A6C-237B4D7F8578";
layerId = "5463E05B-F5DD-4F2E-8E26-873DBC561A7E";
name = wire;
width = 450;
},
{
associatedMasterId = "9609CB55-EFEB-482C-9A6C-237B4D7F8578";
layerId = "10A831EC-644B-4FD6-B016-7DBE5A4133E9";
name = mask;
width = 450;
}
);
leftKerningGroup = s;
unicode = 0073;
userData = {
com.typemytype.robofont.layerData = {
mask = {
anchors = (
);
components = (
);
contours = (
);
lib = {
};
name = s;
unicodes = (
);
width = 450;
};
wire = {
anchors = (
);
components = (
);
contours = (
);
lib = {
};
name = s;
unicodes = (
);
width = 450;
};
};
};
},
{
glyphname = t;
lastChange = "2016-04-08 02:33:25 +0000";
layers = (
{
anchors = (
{
name = bottom;
position = "{189, 3}";
}
);
guideLines = (
{
position = "{445, 406}";
}
);
layerId = "9609CB55-EFEB-482C-9A6C-237B4D7F8578";
paths = (
{
closed = 1;
nodes = (
"159 491 CURVE SMOOTH",
"159 140 LINE SMOOTH",
"159 79 OFFCURVE",
"196 45 OFFCURVE",
"279 43 CURVE SMOOTH",
"290 43 OFFCURVE",
"299 33 OFFCURVE",
"299 23 CURVE SMOOTH",
"299 12 OFFCURVE",
"289 3 OFFCURVE",
"279 3 CURVE SMOOTH",
"160 5 OFFCURVE",
"109 53 OFFCURVE",
"109 140 CURVE SMOOTH",
"109 491 LINE SMOOTH",
"109 502 OFFCURVE",
"123 511 OFFCURVE",
"134 511 CURVE SMOOTH",
"145 511 OFFCURVE",
"159 502 OFFCURVE"
);
},
{
closed = 1;
nodes = (
"46 385 CURVE SMOOTH",
"292 385 LINE SMOOTH",
"303 385 OFFCURVE",
"312 376 OFFCURVE",
"312 365 CURVE SMOOTH",
"312 354 OFFCURVE",
"303 345 OFFCURVE",
"292 345 CURVE SMOOTH",
"46 345 LINE SMOOTH",
"35 345 OFFCURVE",
"26 354 OFFCURVE",
"26 365 CURVE SMOOTH",
"26 376 OFFCURVE",
"35 385 OFFCURVE"
);
}
);
width = 354;
},
{
associatedMasterId = "9609CB55-EFEB-482C-9A6C-237B4D7F8578";
layerId = "95050CB2-01BC-49FB-BF9D-A84EE36F9702";
name = wire;
width = 354;
},
{
associatedMasterId = "9609CB55-EFEB-482C-9A6C-237B4D7F8578";
layerId = "1A67B173-0F12-4AB8-A8CF-80010FC3792D";
name = mask;
width = 354;
}
);
leftKerningGroup = t;
rightKerningGroup = t;
unicode = 0074;
userData = {
com.typemytype.robofont.guides = (
{
angle = 0;
isGlobal = 0;
x = 445;
y = 406;
}
);
com.typemytype.robofont.layerData = {
mask = {
anchors = (
);
components = (
);
contours = (
);
lib = {
};
name = t;
unicodes = (
);
width = 354;
};
wire = {
anchors = (
);
components = (
);
contours = (
);
lib = {
};
name = t;
unicodes = (
);
width = 354;
};
};
};
},
{
glyphname = u;
lastChange = "2016-04-08 02:33:38 +0000";
layers = (
{
anchors = (
{
name = top;
position = "{239, 374}";
}
);
guideLines = (
{
position = "{445, 406}";
}
);
layerId = "9609CB55-EFEB-482C-9A6C-237B4D7F8578";
paths = (
{
closed = 1;
nodes = (
"412 365 CURVE SMOOTH",
"412 23 LINE SMOOTH",
"412 12 OFFCURVE",
"398 3 OFFCURVE",
"387 3 CURVE SMOOTH",
"376 3 OFFCURVE",
"362 12 OFFCURVE",
"362 23 CURVE SMOOTH",
"362 365 LINE SMOOTH",
"362 376 OFFCURVE",
"376 385 OFFCURVE",
"387 385 CURVE SMOOTH",
"398 385 OFFCURVE",
"412 376 OFFCURVE"
);
},
{
closed = 1;
nodes = (
"125 365 CURVE SMOOTH",
"125 165 LINE SMOOTH",
"125 83 OFFCURVE",
"157 43 OFFCURVE",
"212 43 CURVE SMOOTH",
"270 43 OFFCURVE",
"328 91 OFFCURVE",
"365 143 CURVE SMOOTH",
"372 151 OFFCURVE",
"386 153 OFFCURVE",
"395 146 CURVE SMOOTH",
"403 140 OFFCURVE",
"407 126 OFFCURVE",
"401 117 CURVE SMOOTH",
"354 53 OFFCURVE",
"280 3 OFFCURVE",
"212 3 CURVE SMOOTH",
"139 3 OFFCURVE",
"75 37 OFFCURVE",
"75 165 CURVE SMOOTH",
"75 365 LINE SMOOTH",
"75 376 OFFCURVE",
"89 385 OFFCURVE",
"100 385 CURVE SMOOTH",
"111 385 OFFCURVE",
"125 376 OFFCURVE"
);
}
);
width = 497;
},
{
associatedMasterId = "9609CB55-EFEB-482C-9A6C-237B4D7F8578";
layerId = "F64A8A9C-A673-4EBD-936C-DEC4351869AE";
name = wire;
width = 497;
},
{
associatedMasterId = "9609CB55-EFEB-482C-9A6C-237B4D7F8578";
layerId = "96B1F097-0180-4D3A-9F03-B11DF273EEB9";
name = mask;
width = 497;
}
);
leftKerningGroup = r;
unicode = 0075;
userData = {
com.typemytype.robofont.guides = (
{
angle = 0;
isGlobal = 0;
x = 445;
y = 406;
}
);
com.typemytype.robofont.layerData = {
mask = {
anchors = (
);
components = (
);
contours = (
);
lib = {
};
name = u;
unicodes = (
);
width = 497;
};
wire = {
anchors = (
);
components = (
);
contours = (
);
lib = {
};
name = u;
unicodes = (
);
width = 497;
};
};
};
},
{
glyphname = v;
lastChange = "2016-04-08 02:21:04 +0000";
layers = (
{
guideLines = (
{
position = "{445, 406}";
}
);
layerId = "9609CB55-EFEB-482C-9A6C-237B4D7F8578";
paths = (
{
closed = 1;
nodes = (
"85 373 CURVE SMOOTH",
"143 222 OFFCURVE",
"195 116 OFFCURVE",
"248 31 CURVE",
"229 39 LINE",
"232 39 LINE",
"213 31 LINE",
"264 116 OFFCURVE",
"327 264 OFFCURVE",
"367 373 CURVE SMOOTH",
"370 383 OFFCURVE",
"386 387 OFFCURVE",
"396 384 CURVE SMOOTH",
"406 380 OFFCURVE",
"415 367 OFFCURVE",
"411 357 CURVE SMOOTH",
"371 246 OFFCURVE",
"304 94 OFFCURVE",
"251 7 CURVE SMOOTH",
"248 3 OFFCURVE",
"240 -1 OFFCURVE",
"232 -1 CURVE SMOOTH",
"229 -1 LINE SMOOTH",
"221 -1 OFFCURVE",
"213 3 OFFCURVE",
"210 7 CURVE SMOOTH",
"157 94 OFFCURVE",
"101 202 OFFCURVE",
"41 357 CURVE SMOOTH",
"37 367 OFFCURVE",
"46 380 OFFCURVE",
"56 384 CURVE SMOOTH",
"66 388 OFFCURVE",
"81 384 OFFCURVE"
);
}
);
width = 451;
},
{
associatedMasterId = "9609CB55-EFEB-482C-9A6C-237B4D7F8578";
layerId = "3394BADD-1E3B-4C55-82CF-D5EE8AA67259";
name = wire;
width = 451;
},
{
associatedMasterId = "9609CB55-EFEB-482C-9A6C-237B4D7F8578";
layerId = "9EF67E9F-2812-4F98-8FDF-7BC8D509C80D";
name = mask;
width = 451;
}
);
unicode = 0076;
userData = {
com.typemytype.robofont.guides = (
{
angle = 0;
isGlobal = 0;
x = 445;
y = 406;
}
);
com.typemytype.robofont.layerData = {
mask = {
anchors = (
);
components = (
);
contours = (
);
lib = {
};
name = v;
unicodes = (
);
width = 451;
};
wire = {
anchors = (
);
components = (
);
contours = (
);
lib = {
};
name = v;
unicodes = (
);
width = 451;
};
};
};
},
{
glyphname = w;
lastChange = "2016-04-08 02:21:04 +0000";
layers = (
{
guideLines = (
{
position = "{445, 406}";
}
);
layerId = "9609CB55-EFEB-482C-9A6C-237B4D7F8578";
paths = (
{
closed = 1;
nodes = (
"96 370 CURVE SMOOTH",
"133 239 OFFCURVE",
"179 115 OFFCURVE",
"220 30 CURVE",
"199 40 LINE",
"201 40 LINE",
"181 30 LINE",
"223 115 OFFCURVE",
"289 253 OFFCURVE",
"323 361 CURVE SMOOTH",
"326 371 OFFCURVE",
"342 376 OFFCURVE",
"352 373 CURVE SMOOTH",
"362 370 OFFCURVE",
"372 357 OFFCURVE",
"369 347 CURVE SMOOTH",
"335 237 OFFCURVE",
"265 97 OFFCURVE",
"221 10 CURVE SMOOTH",
"219 4 OFFCURVE",
"210 0 OFFCURVE",
"201 0 CURVE SMOOTH",
"199 0 LINE SMOOTH",
"190 0 OFFCURVE",
"181 5 OFFCURVE",
"178 10 CURVE SMOOTH",
"137 97 OFFCURVE",
"87 223 OFFCURVE",
"50 358 CURVE SMOOTH",
"47 368 OFFCURVE",
"57 380 OFFCURVE",
"68 383 CURVE SMOOTH",
"78 386 OFFCURVE",
"93 381 OFFCURVE"
);
},
{
closed = 1;
nodes = (
"375 362 CURVE SMOOTH",
"422 230 OFFCURVE",
"473 115 OFFCURVE",
"519 30 CURVE",
"499 39 LINE",
"501 39 LINE",
"480 29 LINE",
"519 114 OFFCURVE",
"571 251 OFFCURVE",
"604 369 CURVE SMOOTH",
"607 380 OFFCURVE",
"622 385 OFFCURVE",
"632 382 CURVE SMOOTH",
"643 379 OFFCURVE",
"653 367 OFFCURVE",
"650 357 CURVE SMOOTH",
"617 235 OFFCURVE",
"561 96 OFFCURVE",
"522 9 CURVE SMOOTH",
"519 4 OFFCURVE",
"510 -1 OFFCURVE",
"501 -1 CURVE SMOOTH",
"499 -1 LINE SMOOTH",
"491 -1 OFFCURVE",
"482 3 OFFCURVE",
"479 8 CURVE SMOOTH",
"433 95 OFFCURVE",
"378 212 OFFCURVE",
"331 346 CURVE SMOOTH",
"327 356 OFFCURVE",
"336 369 OFFCURVE",
"346 373 CURVE SMOOTH",
"357 376 OFFCURVE",
"372 372 OFFCURVE"
);
}
);
width = 699;
},
{
associatedMasterId = "9609CB55-EFEB-482C-9A6C-237B4D7F8578";
layerId = "3DC66A01-59F0-485D-B599-A1508CAB8AAC";
name = wire;
width = 699;
},
{
associatedMasterId = "9609CB55-EFEB-482C-9A6C-237B4D7F8578";
layerId = "19880DC8-40FE-4768-AA23-B3933CC291B6";
name = mask;
width = 699;
}
);
unicode = 0077;
userData = {
com.typemytype.robofont.guides = (
{
angle = 0;
isGlobal = 0;
x = 445;
y = 406;
}
);
com.typemytype.robofont.layerData = {
mask = {
anchors = (
);
components = (
);
contours = (
);
lib = {
};
name = w;
unicodes = (
);
width = 699;
};
wire = {
anchors = (
);
components = (
);
contours = (
);
lib = {
};
name = w;
unicodes = (
);
width = 699;
};
};
};
},
{
glyphname = x;
lastChange = "2016-04-08 02:21:04 +0000";
layers = (
{
guideLines = (
{
position = "{445, 406}";
}
);
layerId = "9609CB55-EFEB-482C-9A6C-237B4D7F8578";
paths = (
{
closed = 1;
nodes = (
"47 37 CURVE SMOOTH",
"112 111 OFFCURVE",
"269 281 OFFCURVE",
"347 378 CURVE SMOOTH",
"354 387 OFFCURVE",
"368 387 OFFCURVE",
"376 381 CURVE SMOOTH",
"385 374 OFFCURVE",
"388 360 OFFCURVE",
"381 352 CURVE SMOOTH",
"303 253 OFFCURVE",
"144 83 OFFCURVE",
"79 9 CURVE SMOOTH",
"72 1 OFFCURVE",
"58 1 OFFCURVE",
"50 8 CURVE SMOOTH",
"42 15 OFFCURVE",
"40 29 OFFCURVE"
);
},
{
closed = 1;
nodes = (
"92 379 CURVE SMOOTH",
"170 287 OFFCURVE",
"310 140 OFFCURVE",
"400 37 CURVE SMOOTH",
"407 29 OFFCURVE",
"405 15 OFFCURVE",
"397 8 CURVE SMOOTH",
"389 1 OFFCURVE",
"375 1 OFFCURVE",
"368 9 CURVE SMOOTH",
"278 112 OFFCURVE",
"138 259 OFFCURVE",
"60 351 CURVE SMOOTH",
"53 359 OFFCURVE",
"55 373 OFFCURVE",
"63 380 CURVE SMOOTH",
"71 387 OFFCURVE",
"85 387 OFFCURVE"
);
}
);
width = 447;
},
{
associatedMasterId = "9609CB55-EFEB-482C-9A6C-237B4D7F8578";
layerId = "EDE4FEB8-1319-4A6A-9144-9425BDE0FC3A";
name = wire;
width = 447;
},
{
associatedMasterId = "9609CB55-EFEB-482C-9A6C-237B4D7F8578";
layerId = "8C0BF7CB-EA11-42B4-ADD7-132A1613309C";
name = mask;
width = 447;
}
);
unicode = 0078;
userData = {
com.typemytype.robofont.guides = (
{
angle = 0;
isGlobal = 0;
x = 445;
y = 406;
}
);
com.typemytype.robofont.layerData = {
mask = {
anchors = (
);
components = (
);
contours = (
);
lib = {
};
name = x;
unicodes = (
);
width = 447;
};
wire = {
anchors = (
);
components = (
);
contours = (
);
lib = {
};
name = x;
unicodes = (
);
width = 447;
};
};
};
},
{
glyphname = y;
lastChange = "2016-04-08 02:34:09 +0000";
layers = (
{
anchors = (
{
name = top;
position = "{221, 372}";
}
);
guideLines = (
{
position = "{445, 406}";
}
);
layerId = "9609CB55-EFEB-482C-9A6C-237B4D7F8578";
paths = (
{
closed = 1;
nodes = (
"53 -134 CURVE SMOOTH",
"113 -99 OFFCURVE",
"166 -55 OFFCURVE",
"220 35 CURVE SMOOTH",
"272 124 OFFCURVE",
"330 261 OFFCURVE",
"363 372 CURVE SMOOTH",
"366 382 OFFCURVE",
"381 387 OFFCURVE",
"392 384 CURVE SMOOTH",
"402 381 OFFCURVE",
"412 368 OFFCURVE",
"409 358 CURVE SMOOTH",
"374 243 OFFCURVE",
"312 104 OFFCURVE",
"258 13 CURVE SMOOTH",
"200 -87 OFFCURVE",
"139 -131 OFFCURVE",
"73 -168 CURVE SMOOTH",
"64 -174 OFFCURVE",
"51 -170 OFFCURVE",
"46 -161 CURVE SMOOTH",
"40 -152 OFFCURVE",
"44 -139 OFFCURVE"
);
},
{
closed = 1;
nodes = (
"87 374 CURVE SMOOTH",
"141 223 OFFCURVE",
"204 114 OFFCURVE",
"255 36 CURVE SMOOTH",
"260 27 OFFCURVE",
"256 13 OFFCURVE",
"247 7 CURVE SMOOTH",
"238 1 OFFCURVE",
"223 3 OFFCURVE",
"217 12 CURVE SMOOTH",
"166 92 OFFCURVE",
"97 203 OFFCURVE",
"43 358 CURVE SMOOTH",
"39 368 OFFCURVE",
"48 381 OFFCURVE",
"58 385 CURVE SMOOTH",
"69 388 OFFCURVE",
"84 384 OFFCURVE"
);
}
);
width = 450;
},
{
associatedMasterId = "9609CB55-EFEB-482C-9A6C-237B4D7F8578";
layerId = "D6515AA4-59EE-4A21-BAF9-5A21DD8AA46C";
name = wire;
width = 450;
},
{
associatedMasterId = "9609CB55-EFEB-482C-9A6C-237B4D7F8578";
layerId = "A66A8A3D-07D1-43CD-AF54-0E7532814634";
name = mask;
width = 450;
}
);
leftKerningGroup = y;
rightKerningGroup = y;
unicode = 0079;
userData = {
com.typemytype.robofont.guides = (
{
angle = 0;
isGlobal = 0;
x = 445;
y = 406;
}
);
com.typemytype.robofont.layerData = {
mask = {
anchors = (
);
components = (
);
contours = (
);
lib = {
};
name = y;
unicodes = (
);
width = 450;
};
wire = {
anchors = (
);
components = (
);
contours = (
);
lib = {
};
name = y;
unicodes = (
);
width = 450;
};
};
};
},
{
glyphname = z;
lastChange = "2016-04-08 02:34:15 +0000";
layers = (
{
anchors = (
{
name = top;
position = "{210, 384}";
}
);
guideLines = (
{
position = "{445, 406}";
}
);
layerId = "9609CB55-EFEB-482C-9A6C-237B4D7F8578";
paths = (
{
closed = 1;
nodes = (
"355 345 CURVE SMOOTH",
"86 345 LINE SMOOTH",
"75 345 OFFCURVE",
"66 354 OFFCURVE",
"66 365 CURVE SMOOTH",
"66 376 OFFCURVE",
"75 385 OFFCURVE",
"86 385 CURVE SMOOTH",
"355 385 LINE SMOOTH",
"366 385 OFFCURVE",
"375 376 OFFCURVE",
"375 365 CURVE SMOOTH",
"375 354 OFFCURVE",
"366 345 OFFCURVE"
);
},
{
closed = 1;
nodes = (
"71 43 CURVE SMOOTH",
"372 43 LINE SMOOTH",
"383 43 OFFCURVE",
"392 34 OFFCURVE",
"392 23 CURVE SMOOTH",
"392 12 OFFCURVE",
"383 3 OFFCURVE",
"372 3 CURVE SMOOTH",
"71 3 LINE SMOOTH",
"60 3 OFFCURVE",
"51 12 OFFCURVE",
"51 23 CURVE SMOOTH",
"51 34 OFFCURVE",
"60 43 OFFCURVE"
);
},
{
closed = 1;
nodes = (
"377 351 CURVE SMOOTH",
"93 17 LINE SMOOTH",
"86 9 OFFCURVE",
"72 9 OFFCURVE",
"64 16 CURVE SMOOTH",
"56 23 OFFCURVE",
"54 37 OFFCURVE",
"61 45 CURVE SMOOTH",
"345 379 LINE SMOOTH",
"352 387 OFFCURVE",
"366 387 OFFCURVE",
"374 380 CURVE SMOOTH",
"382 373 OFFCURVE",
"384 359 OFFCURVE"
);
}
);
width = 444;
},
{
associatedMasterId = "9609CB55-EFEB-482C-9A6C-237B4D7F8578";
layerId = "706B6FB7-4C1D-41E3-8E97-E30C034E5966";
name = wire;
width = 444;
},
{
associatedMasterId = "9609CB55-EFEB-482C-9A6C-237B4D7F8578";
layerId = "D22D2843-962E-40A4-A225-FA5E5E376352";
name = mask;
width = 444;
}
);
leftKerningGroup = z;
rightKerningGroup = z;
unicode = 007A;
userData = {
com.typemytype.robofont.guides = (
{
angle = 0;
isGlobal = 0;
x = 445;
y = 406;
}
);
com.typemytype.robofont.layerData = {
mask = {
anchors = (
);
components = (
);
contours = (
);
lib = {
};
name = z;
unicodes = (
);
width = 444;
};
wire = {
anchors = (
);
components = (
);
contours = (
);
lib = {
};
name = z;
unicodes = (
);
width = 444;
};
};
};
},
{
glyphname = braceleft;
lastChange = "2016-04-08 02:21:04 +0000";
layers = (
{
guideLines = (
{
position = "{181, 267}";
},
{
angle = 90;
position = "{278, 594}";
}
);
layerId = "9609CB55-EFEB-482C-9A6C-237B4D7F8578";
paths = (
{
closed = 1;
nodes = (
"310 583 CURVE SMOOTH",
"290 583 LINE SMOOTH",
"210 583 OFFCURVE",
"157 543 OFFCURVE",
"157 495 CURVE SMOOTH",
"157 430 OFFCURVE",
"224 395 OFFCURVE",
"224 337 CURVE SMOOTH",
"224 293 OFFCURVE",
"187 259 OFFCURVE",
"100 246 CURVE",
"122 266 LINE",
"122 260 LINE",
"100 280 LINE",
"187 267 OFFCURVE",
"224 233 OFFCURVE",
"224 189 CURVE SMOOTH",
"224 131 OFFCURVE",
"157 96 OFFCURVE",
"157 31 CURVE SMOOTH",
"157 -17 OFFCURVE",
"210 -57 OFFCURVE",
"290 -57 CURVE SMOOTH",
"310 -57 LINE SMOOTH",
"321 -57 OFFCURVE",
"330 -66 OFFCURVE",
"330 -77 CURVE SMOOTH",
"330 -88 OFFCURVE",
"321 -97 OFFCURVE",
"310 -97 CURVE SMOOTH",
"290 -97 LINE SMOOTH",
"174 -97 OFFCURVE",
"107 -35 OFFCURVE",
"107 31 CURVE SMOOTH",
"107 96 OFFCURVE",
"174 131 OFFCURVE",
"174 189 CURVE SMOOTH",
"174 217 OFFCURVE",
"143 233 OFFCURVE",
"94 240 CURVE SMOOTH",
"82 242 OFFCURVE",
"72 251 OFFCURVE",
"72 260 CURVE SMOOTH",
"72 266 LINE SMOOTH",
"72 275 OFFCURVE",
"82 284 OFFCURVE",
"94 286 CURVE SMOOTH",
"143 293 OFFCURVE",
"174 309 OFFCURVE",
"174 337 CURVE SMOOTH",
"174 395 OFFCURVE",
"107 430 OFFCURVE",
"107 495 CURVE SMOOTH",
"107 561 OFFCURVE",
"174 623 OFFCURVE",
"290 623 CURVE SMOOTH",
"310 623 LINE SMOOTH",
"321 623 OFFCURVE",
"330 614 OFFCURVE",
"330 603 CURVE SMOOTH",
"330 592 OFFCURVE",
"321 583 OFFCURVE"
);
}
);
width = 412;
},
{
associatedMasterId = "9609CB55-EFEB-482C-9A6C-237B4D7F8578";
layerId = "A97A9056-099C-42C1-9FCB-C13E8DA5A840";
name = wire;
width = 412;
},
{
associatedMasterId = "9609CB55-EFEB-482C-9A6C-237B4D7F8578";
layerId = "80D421C7-CD54-4959-9906-36EB80153DFC";
name = mask;
width = 412;
}
);
rightKerningGroup = parenleft;
unicode = 007B;
userData = {
com.typemytype.robofont.guides = (
{
angle = 0;
isGlobal = 0;
x = 181;
y = 267;
},
{
angle = 90;
isGlobal = 0;
x = 278;
y = 594;
}
);
com.typemytype.robofont.layerData = {
mask = {
anchors = (
);
components = (
);
contours = (
);
lib = {
};
name = braceleft;
unicodes = (
);
width = 412;
};
wire = {
anchors = (
);
components = (
);
contours = (
);
lib = {
};
name = braceleft;
unicodes = (
);
width = 412;
};
};
};
},
{
glyphname = bar;
lastChange = "2016-04-08 02:21:04 +0000";
layers = (
{
layerId = "9609CB55-EFEB-482C-9A6C-237B4D7F8578";
paths = (
{
closed = 1;
nodes = (
"175 604 CURVE SMOOTH",
"175 -78 LINE SMOOTH",
"175 -89 OFFCURVE",
"161 -98 OFFCURVE",
"150 -98 CURVE SMOOTH",
"139 -98 OFFCURVE",
"125 -89 OFFCURVE",
"125 -78 CURVE SMOOTH",
"125 604 LINE SMOOTH",
"125 615 OFFCURVE",
"139 624 OFFCURVE",
"150 624 CURVE SMOOTH",
"161 624 OFFCURVE",
"175 615 OFFCURVE"
);
}
);
width = 300;
},
{
associatedMasterId = "9609CB55-EFEB-482C-9A6C-237B4D7F8578";
layerId = "0DE9F7E8-268E-401B-80B3-6BD2A7608BA4";
name = wire;
width = 300;
},
{
associatedMasterId = "9609CB55-EFEB-482C-9A6C-237B4D7F8578";
layerId = "48D3AA14-2F9F-4859-B565-BC7BD86C9935";
name = mask;
width = 300;
}
);
unicode = 007C;
userData = {
com.typemytype.robofont.layerData = {
mask = {
anchors = (
);
components = (
);
contours = (
);
lib = {
};
name = bar;
unicodes = (
);
width = 300;
};
wire = {
anchors = (
);
components = (
);
contours = (
);
lib = {
};
name = bar;
unicodes = (
);
width = 300;
};
};
};
},
{
glyphname = asciitilde;
lastChange = "2016-04-08 02:21:04 +0000";
layers = (
{
layerId = "9609CB55-EFEB-482C-9A6C-237B4D7F8578";
paths = (
{
closed = 1;
nodes = (
"92 218 CURVE SMOOTH",
"134 303 OFFCURVE",
"174 336 OFFCURVE",
"222 336 CURVE SMOOTH",
"263 336 OFFCURVE",
"290 310 OFFCURVE",
"325 272 CURVE SMOOTH",
"351 242 OFFCURVE",
"371 220 OFFCURVE",
"400 220 CURVE SMOOTH",
"443 220 OFFCURVE",
"463 263 OFFCURVE",
"495 330 CURVE SMOOTH",
"500 340 OFFCURVE",
"515 343 OFFCURVE",
"525 338 CURVE SMOOTH",
"534 333 OFFCURVE",
"541 320 OFFCURVE",
"537 310 CURVE SMOOTH",
"491 213 OFFCURVE",
"453 180 OFFCURVE",
"400 180 CURVE SMOOTH",
"361 180 OFFCURVE",
"329 202 OFFCURVE",
"293 244 CURVE SMOOTH",
"270 270 OFFCURVE",
"253 296 OFFCURVE",
"222 296 CURVE SMOOTH",
"184 296 OFFCURVE",
"162 255 OFFCURVE",
"134 198 CURVE SMOOTH",
"129 188 OFFCURVE",
"114 185 OFFCURVE",
"104 190 CURVE SMOOTH",
"94 195 OFFCURVE",
"88 208 OFFCURVE"
);
}
);
width = 612;
},
{
associatedMasterId = "9609CB55-EFEB-482C-9A6C-237B4D7F8578";
layerId = "501F04C6-0119-43A9-8E3C-4AEEBA419194";
name = wire;
width = 612;
},
{
associatedMasterId = "9609CB55-EFEB-482C-9A6C-237B4D7F8578";
layerId = "67621738-3943-4905-B584-92DD4C53A922";
name = mask;
width = 612;
}
);
unicode = 007E;
userData = {
com.typemytype.robofont.layerData = {
mask = {
anchors = (
);
components = (
);
contours = (
);
lib = {
};
name = asciitilde;
unicodes = (
);
width = 612;
};
wire = {
anchors = (
);
components = (
);
contours = (
);
lib = {
};
name = asciitilde;
unicodes = (
);
width = 612;
};
};
};
},
{
glyphname = cent;
lastChange = "2016-04-08 02:21:04 +0000";
layers = (
{
guideLines = (
{
position = "{110, 546}";
}
);
layerId = "9609CB55-EFEB-482C-9A6C-237B4D7F8578";
paths = (
{
closed = 1;
nodes = (
"264 507 CURVE SMOOTH",
"264 23 LINE SMOOTH",
"264 12 OFFCURVE",
"250 3 OFFCURVE",
"239 3 CURVE SMOOTH",
"228 3 OFFCURVE",
"214 12 OFFCURVE",
"214 23 CURVE SMOOTH",
"214 507 LINE SMOOTH",
"214 518 OFFCURVE",
"228 527 OFFCURVE",
"239 527 CURVE SMOOTH",
"250 527 OFFCURVE",
"264 518 OFFCURVE"
);
},
{
closed = 1;
nodes = (
"343 393 CURVE SMOOTH",
"318 400 OFFCURVE",
"287 406 OFFCURVE",
"260 406 CURVE SMOOTH",
"156 406 OFFCURVE",
"99 341 OFFCURVE",
"99 255 CURVE SMOOTH",
"99 180 OFFCURVE",
"155 120 OFFCURVE",
"259 120 CURVE SMOOTH",
"297 120 OFFCURVE",
"328 128 OFFCURVE",
"354 137 CURVE SMOOTH",
"364 140 OFFCURVE",
"376 135 OFFCURVE",
"380 125 CURVE SMOOTH",
"383 115 OFFCURVE",
"378 103 OFFCURVE",
"368 99 CURVE SMOOTH",
"338 88 OFFCURVE",
"303 80 OFFCURVE",
"259 80 CURVE SMOOTH",
"125 80 OFFCURVE",
"49 156 OFFCURVE",
"49 255 CURVE",
"49 367 OFFCURVE",
"128 446 OFFCURVE",
"260 446 CURVE SMOOTH",
"291 446 OFFCURVE",
"326 440 OFFCURVE",
"355 431 CURVE SMOOTH",
"365 428 OFFCURVE",
"371 417 OFFCURVE",
"368 406 CURVE SMOOTH",
"365 396 OFFCURVE",
"354 390 OFFCURVE"
);
}
);
width = 433;
},
{
associatedMasterId = "9609CB55-EFEB-482C-9A6C-237B4D7F8578";
layerId = "8CC76EA0-8FBB-45F3-A27B-431453972F63";
name = wire;
width = 433;
},
{
associatedMasterId = "9609CB55-EFEB-482C-9A6C-237B4D7F8578";
layerId = "FC5EF2F8-53D3-40A2-AA7F-5BCBCC77EE9C";
name = mask;
width = 433;
}
);
unicode = 00A2;
userData = {
com.typemytype.robofont.guides = (
{
angle = 0;
isGlobal = 0;
x = 110;
y = 546;
}
);
com.typemytype.robofont.layerData = {
mask = {
anchors = (
);
components = (
);
contours = (
);
lib = {
};
name = cent;
unicodes = (
);
width = 433;
};
wire = {
anchors = (
);
components = (
);
contours = (
);
lib = {
};
name = cent;
unicodes = (
);
width = 433;
};
};
};
},
{
glyphname = sterling;
lastChange = "2016-04-08 02:21:04 +0000";
layers = (
{
layerId = "9609CB55-EFEB-482C-9A6C-237B4D7F8578";
paths = (
{
closed = 1;
nodes = (
"52 47 CURVE SMOOTH",
"129 117 LINE SMOOTH",
"153 139 OFFCURVE",
"168 167 OFFCURVE",
"168 190 CURVE SMOOTH",
"168 211 OFFCURVE",
"158 240 OFFCURVE",
"138 263 CURVE SMOOTH",
"96 313 OFFCURVE",
"67 350 OFFCURVE",
"67 404 CURVE SMOOTH",
"67 473 OFFCURVE",
"121 537 OFFCURVE",
"214 537 CURVE SMOOTH",
"264 537 OFFCURVE",
"310 522 OFFCURVE",
"348 498 CURVE SMOOTH",
"357 492 OFFCURVE",
"360 480 OFFCURVE",
"354 470 CURVE SMOOTH",
"348 461 OFFCURVE",
"335 458 OFFCURVE",
"326 464 CURVE SMOOTH",
"294 484 OFFCURVE",
"256 497 OFFCURVE",
"214 497 CURVE SMOOTH",
"149 497 OFFCURVE",
"117 449 OFFCURVE",
"117 404 CURVE SMOOTH",
"117 362 OFFCURVE",
"136 331 OFFCURVE",
"170 291 CURVE SMOOTH",
"198 258 OFFCURVE",
"218 221 OFFCURVE",
"218 190 CURVE SMOOTH",
"218 155 OFFCURVE",
"191 117 OFFCURVE",
"157 87 CURVE SMOOTH",
"80 17 LINE SMOOTH",
"72 9 OFFCURVE",
"58 11 OFFCURVE",
"51 19 CURVE SMOOTH",
"44 27 OFFCURVE",
"44 40 OFFCURVE"
);
},
{
closed = 1;
nodes = (
"370 3 CURVE SMOOTH",
"56 3 LINE SMOOTH",
"45 3 OFFCURVE",
"36 12 OFFCURVE",
"36 23 CURVE SMOOTH",
"36 34 OFFCURVE",
"45 43 OFFCURVE",
"56 43 CURVE SMOOTH",
"370 43 LINE SMOOTH",
"381 43 OFFCURVE",
"390 34 OFFCURVE",
"390 23 CURVE SMOOTH",
"390 12 OFFCURVE",
"381 3 OFFCURVE"
);
},
{
closed = 1;
nodes = (
"62 268 CURVE SMOOTH",
"361 268 LINE SMOOTH",
"372 268 OFFCURVE",
"381 259 OFFCURVE",
"381 248 CURVE SMOOTH",
"381 237 OFFCURVE",
"372 228 OFFCURVE",
"361 228 CURVE SMOOTH",
"62 228 LINE SMOOTH",
"51 228 OFFCURVE",
"42 237 OFFCURVE",
"42 248 CURVE SMOOTH",
"42 259 OFFCURVE",
"51 268 OFFCURVE"
);
}
);
width = 456;
},
{
associatedMasterId = "9609CB55-EFEB-482C-9A6C-237B4D7F8578";
layerId = "E32EF8CB-BB7A-47FB-9ACB-ACE515816B26";
name = wire;
width = 456;
},
{
associatedMasterId = "9609CB55-EFEB-482C-9A6C-237B4D7F8578";
layerId = "308362EC-5D0C-4E07-9ECA-D940A6EE40FE";
name = mask;
width = 456;
}
);
unicode = 00A3;
userData = {
com.typemytype.robofont.guides = (
);
com.typemytype.robofont.layerData = {
mask = {
anchors = (
);
components = (
);
contours = (
);
lib = {
};
name = sterling;
unicodes = (
);
width = 456;
};
wire = {
anchors = (
);
components = (
);
contours = (
);
lib = {
};
name = sterling;
unicodes = (
);
width = 456;
};
};
};
},
{
glyphname = currency;
lastChange = "2016-04-08 02:21:04 +0000";
layers = (
{
layerId = "9609CB55-EFEB-482C-9A6C-237B4D7F8578";
paths = (
{
closed = 1;
nodes = (
"260 406 CURVE SMOOTH",
"369 406 OFFCURVE",
"443 326 OFFCURVE",
"443 222 CURVE SMOOTH",
"443 121 OFFCURVE",
"368 48 OFFCURVE",
"260 48 CURVE SMOOTH",
"152 48 OFFCURVE",
"77 122 OFFCURVE",
"77 224 CURVE SMOOTH",
"77 326 OFFCURVE",
"150 406 OFFCURVE"
);
},
{
closed = 1;
nodes = (
"260 366 CURVE SMOOTH",
"174 366 OFFCURVE",
"127 298 OFFCURVE",
"127 224 CURVE SMOOTH",
"127 150 OFFCURVE",
"176 88 OFFCURVE",
"260 88 CURVE SMOOTH",
"344 88 OFFCURVE",
"393 149 OFFCURVE",
"393 222 CURVE SMOOTH",
"393 298 OFFCURVE",
"345 366 OFFCURVE"
);
},
{
closed = 1;
nodes = (
"428 10 CURVE SMOOTH",
"357 88 LINE SMOOTH",
"350 96 OFFCURVE",
"352 110 OFFCURVE",
"360 117 CURVE SMOOTH",
"368 124 OFFCURVE",
"381 124 OFFCURVE",
"389 116 CURVE SMOOTH",
"460 38 LINE SMOOTH",
"467 30 OFFCURVE",
"465 16 OFFCURVE",
"457 9 CURVE SMOOTH",
"449 2 OFFCURVE",
"436 2 OFFCURVE"
);
},
{
closed = 1;
nodes = (
"131 335 CURVE SMOOTH",
"66 406 LINE SMOOTH",
"59 414 OFFCURVE",
"61 427 OFFCURVE",
"68 435 CURVE SMOOTH",
"76 442 OFFCURVE",
"90 442 OFFCURVE",
"98 434 CURVE SMOOTH",
"163 363 LINE SMOOTH",
"170 355 OFFCURVE",
"168 342 OFFCURVE",
"161 334 CURVE SMOOTH",
"153 327 OFFCURVE",
"139 327 OFFCURVE"
);
},
{
closed = 1;
nodes = (
"357 364 CURVE SMOOTH",
"422 436 LINE SMOOTH",
"430 444 OFFCURVE",
"443 444 OFFCURVE",
"451 437 CURVE SMOOTH",
"459 430 OFFCURVE",
"461 416 OFFCURVE",
"454 408 CURVE SMOOTH",
"389 336 LINE SMOOTH",
"381 328 OFFCURVE",
"368 328 OFFCURVE",
"360 335 CURVE SMOOTH",
"352 342 OFFCURVE",
"350 356 OFFCURVE"
);
},
{
closed = 1;
nodes = (
"61 38 CURVE SMOOTH",
"129 113 LINE SMOOTH",
"137 121 OFFCURVE",
"150 121 OFFCURVE",
"158 114 CURVE SMOOTH",
"166 107 OFFCURVE",
"168 93 OFFCURVE",
"161 85 CURVE SMOOTH",
"93 10 LINE SMOOTH",
"85 2 OFFCURVE",
"72 2 OFFCURVE",
"64 9 CURVE SMOOTH",
"56 16 OFFCURVE",
"54 30 OFFCURVE"
);
}
);
width = 521;
},
{
associatedMasterId = "9609CB55-EFEB-482C-9A6C-237B4D7F8578";
layerId = "9F614CA3-C6CE-4924-82AA-1F4567E0D7CC";
name = wire;
width = 521;
},
{
associatedMasterId = "9609CB55-EFEB-482C-9A6C-237B4D7F8578";
layerId = "2BD587EE-78DC-46D2-91A0-D1905639A04D";
name = mask;
width = 521;
}
);
unicode = 00A4;
userData = {
com.typemytype.robofont.layerData = {
mask = {
anchors = (
);
components = (
);
contours = (
);
lib = {
};
name = currency;
unicodes = (
);
width = 521;
};
wire = {
anchors = (
);
components = (
);
contours = (
);
lib = {
};
name = currency;
unicodes = (
);
width = 521;
};
};
};
},
{
glyphname = yen;
lastChange = "2016-04-08 02:21:04 +0000";
layers = (
{
layerId = "9609CB55-EFEB-482C-9A6C-237B4D7F8578";
paths = (
{
closed = 1;
nodes = (
"313 265 CURVE SMOOTH",
"313 23 LINE SMOOTH",
"313 12 OFFCURVE",
"299 3 OFFCURVE",
"288 3 CURVE SMOOTH",
"277 3 OFFCURVE",
"263 12 OFFCURVE",
"263 23 CURVE SMOOTH",
"263 265 LINE SMOOTH",
"263 276 OFFCURVE",
"277 285 OFFCURVE",
"288 285 CURVE SMOOTH",
"299 285 OFFCURVE",
"313 276 OFFCURVE"
);
},
{
closed = 1;
nodes = (
"111 521 CURVE SMOOTH",
"159 451 OFFCURVE",
"262 332 OFFCURVE",
"300 296 CURVE SMOOTH",
"307 288 OFFCURVE",
"307 275 OFFCURVE",
"299 267 CURVE SMOOTH",
"292 259 OFFCURVE",
"278 259 OFFCURVE",
"270 266 CURVE SMOOTH",
"232 304 OFFCURVE",
"125 425 OFFCURVE",
"75 495 CURVE SMOOTH",
"69 504 OFFCURVE",
"73 518 OFFCURVE",
"82 524 CURVE SMOOTH",
"90 531 OFFCURVE",
"105 529 OFFCURVE"
);
},
{
closed = 1;
nodes = (
"273 286 CURVE SMOOTH",
"323 335 OFFCURVE",
"413 452 OFFCURVE",
"461 521 CURVE SMOOTH",
"467 529 OFFCURVE",
"482 531 OFFCURVE",
"491 524 CURVE SMOOTH",
"499 518 OFFCURVE",
"503 504 OFFCURVE",
"497 495 CURVE SMOOTH",
"447 426 OFFCURVE",
"353 307 OFFCURVE",
"303 256 CURVE SMOOTH",
"295 249 OFFCURVE",
"281 249 OFFCURVE",
"274 257 CURVE SMOOTH",
"266 264 OFFCURVE",
"266 278 OFFCURVE"
);
},
{
closed = 1;
nodes = (
"113 287 CURVE SMOOTH",
"461 287 LINE SMOOTH",
"472 287 OFFCURVE",
"481 278 OFFCURVE",
"481 267 CURVE SMOOTH",
"481 256 OFFCURVE",
"472 247 OFFCURVE",
"461 247 CURVE SMOOTH",
"113 247 LINE SMOOTH",
"102 247 OFFCURVE",
"93 256 OFFCURVE",
"93 267 CURVE SMOOTH",
"93 278 OFFCURVE",
"102 287 OFFCURVE"
);
},
{
closed = 1;
nodes = (
"113 145 CURVE SMOOTH",
"461 145 LINE SMOOTH",
"472 145 OFFCURVE",
"481 136 OFFCURVE",
"481 125 CURVE SMOOTH",
"481 114 OFFCURVE",
"472 105 OFFCURVE",
"461 105 CURVE SMOOTH",
"113 105 LINE SMOOTH",
"102 105 OFFCURVE",
"93 114 OFFCURVE",
"93 125 CURVE SMOOTH",
"93 136 OFFCURVE",
"102 145 OFFCURVE"
);
}
);
width = 560;
},
{
associatedMasterId = "9609CB55-EFEB-482C-9A6C-237B4D7F8578";
layerId = "7425FCE6-4027-4849-A955-959AADE2B5E3";
name = wire;
width = 560;
},
{
associatedMasterId = "9609CB55-EFEB-482C-9A6C-237B4D7F8578";
layerId = "8098E972-1CA0-482D-BAFD-6EA1B950EC71";
name = mask;
width = 560;
}
);
unicode = 00A5;
userData = {
com.typemytype.robofont.layerData = {
mask = {
anchors = (
);
components = (
);
contours = (
);
lib = {
};
name = yen;
unicodes = (
);
width = 560;
};
wire = {
anchors = (
);
components = (
);
contours = (
);
lib = {
};
name = yen;
unicodes = (
);
width = 560;
};
};
};
},
{
glyphname = brokenbar;
lastChange = "2016-04-08 02:21:04 +0000";
layers = (
{
guideLines = (
{
position = "{208, 232}";
}
);
layerId = "9609CB55-EFEB-482C-9A6C-237B4D7F8578";
paths = (
{
closed = 1;
nodes = (
"175 149 CURVE SMOOTH",
"175 -78 LINE SMOOTH",
"175 -89 OFFCURVE",
"161 -98 OFFCURVE",
"150 -98 CURVE SMOOTH",
"139 -98 OFFCURVE",
"125 -89 OFFCURVE",
"125 -78 CURVE SMOOTH",
"125 149 LINE SMOOTH",
"125 160 OFFCURVE",
"139 169 OFFCURVE",
"150 169 CURVE SMOOTH",
"161 169 OFFCURVE",
"175 160 OFFCURVE"
);
},
{
closed = 1;
nodes = (
"175 535 CURVE SMOOTH",
"175 308 LINE SMOOTH",
"175 297 OFFCURVE",
"161 288 OFFCURVE",
"150 288 CURVE SMOOTH",
"139 288 OFFCURVE",
"125 297 OFFCURVE",
"125 308 CURVE SMOOTH",
"125 535 LINE SMOOTH",
"125 546 OFFCURVE",
"139 555 OFFCURVE",
"150 555 CURVE SMOOTH",
"161 555 OFFCURVE",
"175 546 OFFCURVE"
);
}
);
width = 300;
},
{
associatedMasterId = "9609CB55-EFEB-482C-9A6C-237B4D7F8578";
layerId = "7A571D1A-D8E6-4F5B-B67D-C429325B0BE5";
name = wire;
width = 300;
},
{
associatedMasterId = "9609CB55-EFEB-482C-9A6C-237B4D7F8578";
layerId = "D3BA858C-9045-4D00-9291-8890DD51DCA2";
name = mask;
width = 300;
}
);
unicode = 00A6;
userData = {
com.typemytype.robofont.guides = (
{
angle = 0;
isGlobal = 0;
x = 208;
y = 232;
}
);
com.typemytype.robofont.layerData = {
mask = {
anchors = (
);
components = (
);
contours = (
);
lib = {
};
name = brokenbar;
unicodes = (
);
width = 300;
};
wire = {
anchors = (
);
components = (
);
contours = (
);
lib = {
};
name = brokenbar;
unicodes = (
);
width = 300;
};
};
};
},
{
glyphname = section;
lastChange = "2016-04-08 02:21:04 +0000";
layers = (
{
layerId = "9609CB55-EFEB-482C-9A6C-237B4D7F8578";
paths = (
{
closed = 1;
nodes = (
"387 471 CURVE SMOOTH",
"342 485 OFFCURVE",
"309 494 OFFCURVE",
"243 494 CURVE SMOOTH",
"178 494 OFFCURVE",
"132 464 OFFCURVE",
"132 428 CURVE SMOOTH",
"132 393 OFFCURVE",
"157 356 OFFCURVE",
"267 340 CURVE SMOOTH",
"410 312 OFFCURVE",
"452 261 OFFCURVE",
"452 201 CURVE SMOOTH",
"452 140 OFFCURVE",
"401 85 OFFCURVE",
"263 85 CURVE SMOOTH",
"252 85 OFFCURVE",
"243 94 OFFCURVE",
"243 105 CURVE SMOOTH",
"243 116 OFFCURVE",
"252 125 OFFCURVE",
"263 125 CURVE SMOOTH",
"353 125 OFFCURVE",
"402 156 OFFCURVE",
"402 201 CURVE SMOOTH",
"402 247 OFFCURVE",
"362 280 OFFCURVE",
"261 300 CURVE SMOOTH",
"103 324 OFFCURVE",
"82 381 OFFCURVE",
"82 428 CURVE SMOOTH",
"82 480 OFFCURVE",
"138 534 OFFCURVE",
"243 534 CURVE SMOOTH",
"315 534 OFFCURVE",
"350 525 OFFCURVE",
"399 509 CURVE SMOOTH",
"409 506 OFFCURVE",
"415 494 OFFCURVE",
"412 484 CURVE SMOOTH",
"409 474 OFFCURVE",
"397 468 OFFCURVE"
);
},
{
closed = 1;
nodes = (
"233 301 CURVE SMOOTH",
"165 301 OFFCURVE",
"122 271 OFFCURVE",
"122 221 CURVE SMOOTH",
"122 183 OFFCURVE",
"146 144 OFFCURVE",
"257 125 CURVE SMOOTH",
"403 100 OFFCURVE",
"442 62 OFFCURVE",
"442 1 CURVE SMOOTH",
"442 -60 OFFCURVE",
"390 -120 OFFCURVE",
"253 -120 CURVE SMOOTH",
"190 -120 OFFCURVE",
"130 -108 OFFCURVE",
"76 -83 CURVE SMOOTH",
"66 -79 OFFCURVE",
"61 -66 OFFCURVE",
"66 -57 CURVE SMOOTH",
"70 -47 OFFCURVE",
"83 -42 OFFCURVE",
"92 -47 CURVE SMOOTH",
"142 -70 OFFCURVE",
"196 -80 OFFCURVE",
"253 -80 CURVE SMOOTH",
"344 -80 OFFCURVE",
"392 -44 OFFCURVE",
"392 1 CURVE SMOOTH",
"392 48 OFFCURVE",
"349 68 OFFCURVE",
"251 85 CURVE SMOOTH",
"94 112 OFFCURVE",
"72 171 OFFCURVE",
"72 221 CURVE SMOOTH",
"72 293 OFFCURVE",
"131 341 OFFCURVE",
"233 341 CURVE SMOOTH",
"244 341 OFFCURVE",
"253 332 OFFCURVE",
"253 321 CURVE SMOOTH",
"253 310 OFFCURVE",
"244 301 OFFCURVE"
);
}
);
width = 525;
},
{
associatedMasterId = "9609CB55-EFEB-482C-9A6C-237B4D7F8578";
layerId = "0E5C48BA-F37B-404E-AB41-222BF6B7867B";
name = wire;
width = 525;
},
{
associatedMasterId = "9609CB55-EFEB-482C-9A6C-237B4D7F8578";
layerId = "3B96C2F6-8D9F-4D05-8BDF-857BC506F0AB";
name = mask;
width = 525;
}
);
unicode = 00A7;
userData = {
com.typemytype.robofont.layerData = {
mask = {
anchors = (
);
components = (
);
contours = (
);
lib = {
};
name = section;
unicodes = (
);
width = 525;
};
wire = {
anchors = (
);
components = (
);
contours = (
);
lib = {
};
name = section;
unicodes = (
);
width = 525;
};
};
};
},
{
glyphname = dieresis;
lastChange = "2016-04-08 02:21:04 +0000";
layers = (
{
layerId = "9609CB55-EFEB-482C-9A6C-237B4D7F8578";
paths = (
{
closed = 1;
nodes = (
"150 587 CURVE SMOOTH",
"168 587 OFFCURVE",
"191 574 OFFCURVE",
"191 541 CURVE SMOOTH",
"191 508 OFFCURVE",
"168 497 OFFCURVE",
"150 497 CURVE SMOOTH",
"130 497 OFFCURVE",
"108 509 OFFCURVE",
"108 541 CURVE SMOOTH",
"108 573 OFFCURVE",
"131 587 OFFCURVE"
);
},
{
closed = 1;
nodes = (
"328 587 CURVE SMOOTH",
"346 587 OFFCURVE",
"369 574 OFFCURVE",
"369 541 CURVE SMOOTH",
"369 508 OFFCURVE",
"346 497 OFFCURVE",
"328 497 CURVE SMOOTH",
"308 497 OFFCURVE",
"286 509 OFFCURVE",
"286 541 CURVE SMOOTH",
"286 573 OFFCURVE",
"309 587 OFFCURVE"
);
}
);
width = 490;
},
{
associatedMasterId = "9609CB55-EFEB-482C-9A6C-237B4D7F8578";
layerId = "D6B946F5-52BE-4997-99DB-9FD1DB64643E";
name = wire;
width = 490;
},
{
associatedMasterId = "9609CB55-EFEB-482C-9A6C-237B4D7F8578";
layerId = "9561EA3D-C216-475B-9B77-9AE4413B1040";
name = mask;
width = 490;
}
);
unicode = 00A8;
userData = {
com.typemytype.robofont.layerData = {
mask = {
anchors = (
);
components = (
);
contours = (
);
lib = {
};
name = dieresis;
unicodes = (
);
width = 490;
};
wire = {
anchors = (
);
components = (
);
contours = (
);
lib = {
};
name = dieresis;
unicodes = (
);
width = 490;
};
};
};
},
{
glyphname = copyright;
lastChange = "2016-04-08 02:21:04 +0000";
layers = (
{
layerId = "9609CB55-EFEB-482C-9A6C-237B4D7F8578";
paths = (
{
closed = 1;
nodes = (
"329 537 CURVE SMOOTH",
"479 537 OFFCURVE",
"604 428 OFFCURVE",
"604 265 CURVE SMOOTH",
"604 110 OFFCURVE",
"500 -6 OFFCURVE",
"329 -6 CURVE SMOOTH",
"167 -6 OFFCURVE",
"49 110 OFFCURVE",
"49 262 CURVE",
"49 428 OFFCURVE",
"164 537 OFFCURVE"
);
},
{
closed = 1;
nodes = (
"396 362 CURVE SMOOTH",
"381 370 OFFCURVE",
"359 376 OFFCURVE",
"335 376 CURVE SMOOTH",
"277 376 OFFCURVE",
"231 327 OFFCURVE",
"231 264 CURVE SMOOTH",
"231 205 OFFCURVE",
"268 155 OFFCURVE",
"338 155 CURVE SMOOTH",
"361 155 OFFCURVE",
"382 160 OFFCURVE",
"399 169 CURVE SMOOTH",
"408 174 OFFCURVE",
"421 170 OFFCURVE",
"426 160 CURVE SMOOTH",
"431 151 OFFCURVE",
"427 138 OFFCURVE",
"417 133 CURVE SMOOTH",
"396 122 OFFCURVE",
"369 115 OFFCURVE",
"338 115 CURVE SMOOTH",
"242 115 OFFCURVE",
"181 177 OFFCURVE",
"181 264 CURVE SMOOTH",
"181 357 OFFCURVE",
"257 416 OFFCURVE",
"335 416 CURVE SMOOTH",
"367 416 OFFCURVE",
"395 408 OFFCURVE",
"414 398 CURVE SMOOTH",
"424 393 OFFCURVE",
"428 380 OFFCURVE",
"423 371 CURVE SMOOTH",
"418 361 OFFCURVE",
"405 357 OFFCURVE"
);
},
{
closed = 1;
nodes = (
"329 497 CURVE SMOOTH",
"188 497 OFFCURVE",
"99 398 OFFCURVE",
"99 262 CURVE SMOOTH",
"99 138 OFFCURVE",
"191 34 OFFCURVE",
"329 34 CURVE SMOOTH",
"474 34 OFFCURVE",
"554 138 OFFCURVE",
"554 265 CURVE SMOOTH",
"554 398 OFFCURVE",
"457 497 OFFCURVE"
);
}
);
width = 653;
},
{
associatedMasterId = "9609CB55-EFEB-482C-9A6C-237B4D7F8578";
layerId = "36FD939F-3E6B-4A00-A578-F8CD9EC1E35C";
name = wire;
width = 653;
},
{
associatedMasterId = "9609CB55-EFEB-482C-9A6C-237B4D7F8578";
layerId = "4C98B1BB-2D06-464C-A343-CFBB402D45E7";
name = mask;
width = 653;
}
);
leftKerningGroup = O;
rightKerningGroup = O;
unicode = 00A9;
userData = {
com.typemytype.robofont.layerData = {
mask = {
anchors = (
);
components = (
);
contours = (
);
lib = {
};
name = copyright;
unicodes = (
);
width = 653;
};
wire = {
anchors = (
);
components = (
);
contours = (
);
lib = {
};
name = copyright;
unicodes = (
);
width = 653;
};
};
};
},
{
glyphname = ordfeminine;
lastChange = "2016-04-08 02:21:04 +0000";
layers = (
{
layerId = "9609CB55-EFEB-482C-9A6C-237B4D7F8578";
paths = (
{
closed = 1;
nodes = (
"98 184 CURVE SMOOTH",
"356 184 LINE SMOOTH",
"367 184 OFFCURVE",
"376 175 OFFCURVE",
"376 164 CURVE SMOOTH",
"376 153 OFFCURVE",
"367 144 OFFCURVE",
"356 144 CURVE SMOOTH",
"98 144 LINE SMOOTH",
"87 144 OFFCURVE",
"78 153 OFFCURVE",
"78 164 CURVE SMOOTH",
"78 175 OFFCURVE",
"87 184 OFFCURVE"
);
},
{
closed = 1;
nodes = (
"140 515 CURVE SMOOTH",
"156 520 OFFCURVE",
"184 527 OFFCURVE",
"209 527 CURVE SMOOTH",
"286 527 OFFCURVE",
"326 484 OFFCURVE",
"326 414 CURVE SMOOTH",
"326 354 LINE SMOOTH",
"326 326 OFFCURVE",
"328 307 OFFCURVE",
"341 292 CURVE SMOOTH",
"348 284 OFFCURVE",
"346 270 OFFCURVE",
"338 263 CURVE SMOOTH",
"330 256 OFFCURVE",
"316 256 OFFCURVE",
"309 264 CURVE SMOOTH",
"290 285 OFFCURVE",
"276 310 OFFCURVE",
"276 354 CURVE SMOOTH",
"276 414 LINE SMOOTH",
"276 454 OFFCURVE",
"258 487 OFFCURVE",
"209 487 CURVE SMOOTH",
"188 487 OFFCURVE",
"166 482 OFFCURVE",
"152 477 CURVE SMOOTH",
"142 474 OFFCURVE",
"130 479 OFFCURVE",
"127 490 CURVE SMOOTH",
"124 500 OFFCURVE",
"129 512 OFFCURVE"
);
},
{
closed = 1;
nodes = (
"298 387 CURVE SMOOTH",
"275 388 OFFCURVE",
"256 390 OFFCURVE",
"236 390 CURVE SMOOTH",
"193 390 OFFCURVE",
"165 379 OFFCURVE",
"145 362 CURVE",
"147 363 LINE",
"137 354 OFFCURVE",
"139 343 OFFCURVE",
"139 332 CURVE SMOOTH",
"139 317 OFFCURVE",
"149 298 OFFCURVE",
"179 298 CURVE SMOOTH",
"224 298 OFFCURVE",
"255 316 OFFCURVE",
"283 355 CURVE SMOOTH",
"290 364 OFFCURVE",
"304 365 OFFCURVE",
"313 358 CURVE SMOOTH",
"322 352 OFFCURVE",
"325 338 OFFCURVE",
"319 329 CURVE SMOOTH",
"281 278 OFFCURVE",
"238 258 OFFCURVE",
"179 258 CURVE SMOOTH",
"115 258 OFFCURVE",
"89 299 OFFCURVE",
"89 332 CURVE SMOOTH",
"89 357 OFFCURVE",
"99 374 OFFCURVE",
"117 393 CURVE SMOOTH",
"118 394 OFFCURVE",
"117 392 OFFCURVE",
"119 394 CURVE SMOOTH",
"143 415 OFFCURVE",
"179 430 OFFCURVE",
"236 430 CURVE SMOOTH",
"256 430 OFFCURVE",
"277 428 OFFCURVE",
"300 427 CURVE SMOOTH",
"311 427 OFFCURVE",
"319 417 OFFCURVE",
"319 406 CURVE SMOOTH",
"319 395 OFFCURVE",
"309 387 OFFCURVE"
);
}
);
width = 444;
},
{
associatedMasterId = "9609CB55-EFEB-482C-9A6C-237B4D7F8578";
layerId = "ABB54053-35CE-4888-A166-9B2AA8E893D0";
name = wire;
width = 444;
},
{
associatedMasterId = "9609CB55-EFEB-482C-9A6C-237B4D7F8578";
layerId = "CBDF6353-81A8-4A69-AF7F-A084EAB23CE1";
name = mask;
width = 444;
}
);
leftKerningGroup = asterisk;
rightKerningGroup = asterisk;
unicode = 00AA;
userData = {
com.typemytype.robofont.layerData = {
mask = {
anchors = (
);
components = (
);
contours = (
);
lib = {
};
name = ordfeminine;
unicodes = (
);
width = 444;
};
wire = {
anchors = (
);
components = (
);
contours = (
);
lib = {
};
name = ordfeminine;
unicodes = (
);
width = 444;
};
};
};
},
{
glyphname = guillemotleft;
lastChange = "2016-04-08 02:21:04 +0000";
layers = (
{
layerId = "9609CB55-EFEB-482C-9A6C-237B4D7F8578";
paths = (
{
closed = 1;
nodes = (
"258 202 CURVE SMOOTH",
"369 52 LINE SMOOTH",
"376 43 OFFCURVE",
"373 29 OFFCURVE",
"364 23 CURVE SMOOTH",
"355 16 OFFCURVE",
"341 17 OFFCURVE",
"335 26 CURVE SMOOTH",
"224 176 LINE SMOOTH",
"217 185 OFFCURVE",
"220 199 OFFCURVE",
"229 205 CURVE SMOOTH",
"238 212 OFFCURVE",
"252 211 OFFCURVE"
);
},
{
closed = 1;
nodes = (
"369 331 CURVE SMOOTH",
"258 181 LINE SMOOTH",
"252 172 OFFCURVE",
"238 171 OFFCURVE",
"229 178 CURVE SMOOTH",
"220 184 OFFCURVE",
"217 198 OFFCURVE",
"224 207 CURVE SMOOTH",
"335 357 LINE SMOOTH",
"341 366 OFFCURVE",
"355 367 OFFCURVE",
"364 360 CURVE SMOOTH",
"373 354 OFFCURVE",
"376 340 OFFCURVE"
);
},
{
closed = 1;
nodes = (
"88 202 CURVE SMOOTH",
"199 52 LINE SMOOTH",
"206 43 OFFCURVE",
"203 29 OFFCURVE",
"194 23 CURVE SMOOTH",
"185 16 OFFCURVE",
"171 17 OFFCURVE",
"165 26 CURVE SMOOTH",
"54 176 LINE SMOOTH",
"47 185 OFFCURVE",
"50 199 OFFCURVE",
"59 205 CURVE SMOOTH",
"68 212 OFFCURVE",
"82 211 OFFCURVE"
);
},
{
closed = 1;
nodes = (
"199 331 CURVE SMOOTH",
"88 181 LINE SMOOTH",
"82 172 OFFCURVE",
"68 171 OFFCURVE",
"59 178 CURVE SMOOTH",
"50 184 OFFCURVE",
"47 198 OFFCURVE",
"54 207 CURVE SMOOTH",
"165 357 LINE SMOOTH",
"171 366 OFFCURVE",
"185 367 OFFCURVE",
"194 360 CURVE SMOOTH",
"203 354 OFFCURVE",
"206 340 OFFCURVE"
);
}
);
width = 438;
},
{
associatedMasterId = "9609CB55-EFEB-482C-9A6C-237B4D7F8578";
layerId = "879D589E-6D45-4262-A135-68A1BB4C6B89";
name = wire;
width = 438;
},
{
associatedMasterId = "9609CB55-EFEB-482C-9A6C-237B4D7F8578";
layerId = "8FA1728D-9797-4181-AA18-1E81771647F2";
name = mask;
width = 438;
}
);
leftKerningGroup = hyphen;
rightKerningGroup = exclam;
unicode = 00AB;
userData = {
com.typemytype.robofont.layerData = {
mask = {
anchors = (
);
components = (
);
contours = (
);
lib = {
};
name = guillemotleft;
unicodes = (
);
width = 438;
};
wire = {
anchors = (
);
components = (
);
contours = (
);
lib = {
};
name = guillemotleft;
unicodes = (
);
width = 438;
};
};
};
},
{
glyphname = logicalnot;
lastChange = "2016-04-08 02:21:04 +0000";
layers = (
{
layerId = "9609CB55-EFEB-482C-9A6C-237B4D7F8578";
paths = (
{
closed = 1;
nodes = (
"109 269 CURVE SMOOTH",
"372 269 LINE SMOOTH",
"383 269 OFFCURVE",
"392 260 OFFCURVE",
"392 249 CURVE SMOOTH",
"392 238 OFFCURVE",
"383 229 OFFCURVE",
"372 229 CURVE SMOOTH",
"109 229 LINE SMOOTH",
"98 229 OFFCURVE",
"89 238 OFFCURVE",
"89 249 CURVE SMOOTH",
"89 260 OFFCURVE",
"98 269 OFFCURVE"
);
},
{
closed = 1;
nodes = (
"397 243 CURVE SMOOTH",
"397 142 LINE SMOOTH",
"397 131 OFFCURVE",
"383 122 OFFCURVE",
"372 122 CURVE SMOOTH",
"361 122 OFFCURVE",
"347 131 OFFCURVE",
"347 142 CURVE SMOOTH",
"347 243 LINE SMOOTH",
"347 254 OFFCURVE",
"361 263 OFFCURVE",
"372 263 CURVE SMOOTH",
"383 263 OFFCURVE",
"397 254 OFFCURVE"
);
}
);
width = 481;
},
{
associatedMasterId = "9609CB55-EFEB-482C-9A6C-237B4D7F8578";
layerId = "94C5F4ED-A9FD-4DD0-8F09-5EC695F1F13E";
name = wire;
width = 481;
},
{
associatedMasterId = "9609CB55-EFEB-482C-9A6C-237B4D7F8578";
layerId = "2C012982-64D4-44BC-999A-F2E3FDA8598E";
name = mask;
width = 481;
}
);
unicode = 00AC;
userData = {
com.typemytype.robofont.layerData = {
mask = {
anchors = (
);
components = (
);
contours = (
);
lib = {
};
name = logicalnot;
unicodes = (
);
width = 481;
};
wire = {
anchors = (
);
components = (
);
contours = (
);
lib = {
};
name = logicalnot;
unicodes = (
);
width = 481;
};
};
};
},
{
glyphname = registered;
lastChange = "2016-04-08 02:21:04 +0000";
layers = (
{
layerId = "9609CB55-EFEB-482C-9A6C-237B4D7F8578";
paths = (
{
closed = 1;
nodes = (
"277 579 CURVE SMOOTH",
"175 579 OFFCURVE",
"110 505 OFFCURVE",
"110 406 CURVE SMOOTH",
"110 312 OFFCURVE",
"175 226 OFFCURVE",
"284 226 CURVE SMOOTH",
"386 226 OFFCURVE",
"456 304 OFFCURVE",
"456 403 CURVE SMOOTH",
"456 501 OFFCURVE",
"386 579 OFFCURVE"
);
},
{
closed = 1;
nodes = (
"235 397 CURVE SMOOTH",
"282 397 LINE SMOOTH",
"310 397 OFFCURVE",
"320 417 OFFCURVE",
"320 436 CURVE SMOOTH",
"320 457 OFFCURVE",
"306 472 OFFCURVE",
"282 472 CURVE SMOOTH",
"225 472 LINE",
"250 492 LINE",
"250 316 LINE SMOOTH",
"250 305 OFFCURVE",
"236 296 OFFCURVE",
"225 296 CURVE SMOOTH",
"214 296 OFFCURVE",
"200 305 OFFCURVE",
"200 316 CURVE SMOOTH",
"200 492 LINE SMOOTH",
"200 503 OFFCURVE",
"211 512 OFFCURVE",
"225 512 CURVE SMOOTH",
"282 512 LINE SMOOTH",
"334 512 OFFCURVE",
"370 485 OFFCURVE",
"370 436 CURVE SMOOTH",
"370 391 OFFCURVE",
"340 357 OFFCURVE",
"282 357 CURVE SMOOTH",
"235 357 LINE SMOOTH",
"224 357 OFFCURVE",
"215 366 OFFCURVE",
"215 377 CURVE SMOOTH",
"215 388 OFFCURVE",
"224 397 OFFCURVE"
);
},
{
closed = 1;
nodes = (
"325 385 CURVE SMOOTH",
"372 330 LINE SMOOTH",
"379 322 OFFCURVE",
"377 308 OFFCURVE",
"369 301 CURVE SMOOTH",
"361 294 OFFCURVE",
"347 294 OFFCURVE",
"340 302 CURVE SMOOTH",
"293 357 LINE SMOOTH",
"286 365 OFFCURVE",
"288 379 OFFCURVE",
"296 386 CURVE SMOOTH",
"304 393 OFFCURVE",
"318 393 OFFCURVE"
);
},
{
closed = 1;
nodes = (
"277 619 CURVE SMOOTH",
"410 619 OFFCURVE",
"506 529 OFFCURVE",
"506 403 CURVE SMOOTH",
"506 276 OFFCURVE",
"408 186 OFFCURVE",
"284 186 CURVE SMOOTH",
"151 186 OFFCURVE",
"60 284 OFFCURVE",
"60 406 CURVE SMOOTH",
"60 535 OFFCURVE",
"151 619 OFFCURVE"
);
}
);
width = 560;
},
{
associatedMasterId = "9609CB55-EFEB-482C-9A6C-237B4D7F8578";
layerId = "D67660FA-A8F6-409A-9381-769C41605AD7";
name = wire;
width = 560;
},
{
associatedMasterId = "9609CB55-EFEB-482C-9A6C-237B4D7F8578";
layerId = "5B435850-B381-489B-9245-DDFD158700B8";
name = mask;
width = 560;
}
);
leftKerningGroup = asterisk;
rightKerningGroup = asterisk;
unicode = 00AE;
userData = {
com.typemytype.robofont.layerData = {
mask = {
anchors = (
);
components = (
);
contours = (
);
lib = {
};
name = registered;
unicodes = (
);
width = 560;
};
wire = {
anchors = (
);
components = (
);
contours = (
);
lib = {
};
name = registered;
unicodes = (
);
width = 560;
};
};
};
},
{
glyphname = macron;
lastChange = "2016-04-08 02:21:04 +0000";
layers = (
{
layerId = "9609CB55-EFEB-482C-9A6C-237B4D7F8578";
paths = (
{
closed = 1;
nodes = (
"346 517 CURVE SMOOTH",
"145 517 LINE SMOOTH",
"134 517 OFFCURVE",
"125 526 OFFCURVE",
"125 537 CURVE SMOOTH",
"125 548 OFFCURVE",
"134 557 OFFCURVE",
"145 557 CURVE SMOOTH",
"346 557 LINE SMOOTH",
"357 557 OFFCURVE",
"366 548 OFFCURVE",
"366 537 CURVE SMOOTH",
"366 526 OFFCURVE",
"357 517 OFFCURVE"
);
}
);
width = 490;
},
{
associatedMasterId = "9609CB55-EFEB-482C-9A6C-237B4D7F8578";
layerId = "45DCF693-1FB8-455F-B6D6-235E3563A266";
name = wire;
width = 490;
},
{
associatedMasterId = "9609CB55-EFEB-482C-9A6C-237B4D7F8578";
layerId = "87A58D91-160B-43B7-BE10-E62353743EDD";
name = mask;
width = 490;
}
);
unicode = 00AF;
userData = {
com.typemytype.robofont.layerData = {
mask = {
anchors = (
);
components = (
);
contours = (
);
lib = {
};
name = macron;
unicodes = (
);
width = 490;
};
wire = {
anchors = (
);
components = (
);
contours = (
);
lib = {
};
name = macron;
unicodes = (
);
width = 490;
};
};
};
},
{
glyphname = degree;
lastChange = "2016-04-08 02:21:04 +0000";
layers = (
{
guideLines = (
{
position = "{348, 632}";
}
);
layerId = "9609CB55-EFEB-482C-9A6C-237B4D7F8578";
paths = (
{
closed = 1;
nodes = (
"219 533 CURVE SMOOTH",
"314 533 OFFCURVE",
"385 466 OFFCURVE",
"385 373 CURVE SMOOTH",
"385 285 OFFCURVE",
"314 219 OFFCURVE",
"220 219 CURVE SMOOTH",
"125 219 OFFCURVE",
"55 286 OFFCURVE",
"55 373 CURVE",
"55 463 OFFCURVE",
"123 533 OFFCURVE"
);
},
{
closed = 1;
nodes = (
"219 493 CURVE SMOOTH",
"147 493 OFFCURVE",
"105 435 OFFCURVE",
"105 373 CURVE SMOOTH",
"105 312 OFFCURVE",
"149 259 OFFCURVE",
"220 259 CURVE SMOOTH",
"290 259 OFFCURVE",
"335 311 OFFCURVE",
"335 373 CURVE SMOOTH",
"335 438 OFFCURVE",
"290 493 OFFCURVE"
);
}
);
width = 440;
},
{
associatedMasterId = "9609CB55-EFEB-482C-9A6C-237B4D7F8578";
layerId = "CE278D9A-AEE1-4260-A6C1-D5F823D323FD";
name = wire;
width = 440;
},
{
associatedMasterId = "9609CB55-EFEB-482C-9A6C-237B4D7F8578";
layerId = "B9DA1161-A22F-405C-B02F-2746066E4EAB";
name = mask;
width = 440;
}
);
leftKerningGroup = asterisk;
rightKerningGroup = asterisk;
unicode = 00B0;
userData = {
com.typemytype.robofont.guides = (
{
angle = 0;
isGlobal = 0;
x = 348;
y = 632;
}
);
com.typemytype.robofont.layerData = {
mask = {
anchors = (
);
components = (
);
contours = (
);
lib = {
};
name = degree;
unicodes = (
);
width = 440;
};
wire = {
anchors = (
);
components = (
);
contours = (
);
lib = {
};
name = degree;
unicodes = (
);
width = 440;
};
};
};
},
{
glyphname = plusminus;
lastChange = "2016-04-08 02:21:04 +0000";
layers = (
{
layerId = "9609CB55-EFEB-482C-9A6C-237B4D7F8578";
paths = (
{
closed = 1;
nodes = (
"96 348 CURVE SMOOTH",
"433 348 LINE SMOOTH",
"444 348 OFFCURVE",
"453 339 OFFCURVE",
"453 328 CURVE SMOOTH",
"453 317 OFFCURVE",
"444 308 OFFCURVE",
"433 308 CURVE SMOOTH",
"96 308 LINE SMOOTH",
"85 308 OFFCURVE",
"76 317 OFFCURVE",
"76 328 CURVE SMOOTH",
"76 339 OFFCURVE",
"85 348 OFFCURVE"
);
},
{
closed = 1;
nodes = (
"240 209 CURVE SMOOTH",
"240 447 LINE SMOOTH",
"240 458 OFFCURVE",
"254 467 OFFCURVE",
"265 467 CURVE SMOOTH",
"276 467 OFFCURVE",
"290 458 OFFCURVE",
"290 447 CURVE SMOOTH",
"290 209 LINE SMOOTH",
"290 198 OFFCURVE",
"276 189 OFFCURVE",
"265 189 CURVE SMOOTH",
"254 189 OFFCURVE",
"240 198 OFFCURVE"
);
},
{
closed = 1;
nodes = (
"96 102 CURVE SMOOTH",
"433 102 LINE SMOOTH",
"444 102 OFFCURVE",
"453 93 OFFCURVE",
"453 82 CURVE SMOOTH",
"453 71 OFFCURVE",
"444 62 OFFCURVE",
"433 62 CURVE SMOOTH",
"96 62 LINE SMOOTH",
"85 62 OFFCURVE",
"76 71 OFFCURVE",
"76 82 CURVE SMOOTH",
"76 93 OFFCURVE",
"85 102 OFFCURVE"
);
}
);
width = 530;
},
{
associatedMasterId = "9609CB55-EFEB-482C-9A6C-237B4D7F8578";
layerId = "F018C946-C089-4AF7-9781-1E5BD4357CA6";
name = wire;
width = 530;
},
{
associatedMasterId = "9609CB55-EFEB-482C-9A6C-237B4D7F8578";
layerId = "DC2E23CF-4088-4294-BF5C-BBEDB6457272";
name = mask;
width = 530;
}
);
unicode = 00B1;
userData = {
com.typemytype.robofont.layerData = {
mask = {
anchors = (
);
components = (
);
contours = (
);
lib = {
};
name = plusminus;
unicodes = (
);
width = 530;
};
wire = {
anchors = (
);
components = (
);
contours = (
);
lib = {
};
name = plusminus;
unicodes = (
);
width = 530;
};
};
};
},
{
glyphname = twosuperior;
lastChange = "2016-04-08 02:21:04 +0000";
layers = (
{
layerId = "9609CB55-EFEB-482C-9A6C-237B4D7F8578";
paths = (
{
closed = 1;
nodes = (
"77 278 CURVE SMOOTH",
"166 361 LINE SMOOTH",
"216 408 OFFCURVE",
"231 427 OFFCURVE",
"231 455 CURVE SMOOTH",
"231 475 OFFCURVE",
"215 494 OFFCURVE",
"181 494 CURVE SMOOTH",
"156 494 OFFCURVE",
"136 487 OFFCURVE",
"115 473 CURVE SMOOTH",
"106 467 OFFCURVE",
"93 470 OFFCURVE",
"87 479 CURVE SMOOTH",
"81 488 OFFCURVE",
"84 501 OFFCURVE",
"93 507 CURVE SMOOTH",
"122 525 OFFCURVE",
"148 534 OFFCURVE",
"181 534 CURVE SMOOTH",
"249 534 OFFCURVE",
"281 495 OFFCURVE",
"281 455 CURVE SMOOTH",
"281 417 OFFCURVE",
"260 394 OFFCURVE",
"194 331 CURVE SMOOTH",
"105 248 LINE SMOOTH",
"97 240 OFFCURVE",
"84 241 OFFCURVE",
"76 249 CURVE SMOOTH",
"69 257 OFFCURVE",
"69 271 OFFCURVE"
);
},
{
closed = 1;
nodes = (
"275 238 CURVE SMOOTH",
"86 238 LINE SMOOTH",
"75 238 OFFCURVE",
"66 247 OFFCURVE",
"66 258 CURVE SMOOTH",
"66 269 OFFCURVE",
"75 278 OFFCURVE",
"86 278 CURVE SMOOTH",
"275 278 LINE SMOOTH",
"286 278 OFFCURVE",
"295 269 OFFCURVE",
"295 258 CURVE SMOOTH",
"295 247 OFFCURVE",
"286 238 OFFCURVE"
);
}
);
width = 355;
},
{
associatedMasterId = "9609CB55-EFEB-482C-9A6C-237B4D7F8578";
layerId = "4A4284E7-FCFC-4870-BCCE-EAF34D9B7DA0";
name = wire;
width = 355;
},
{
associatedMasterId = "9609CB55-EFEB-482C-9A6C-237B4D7F8578";
layerId = "4FDCA03E-D5AB-4E71-BC98-B094DE9283D2";
name = mask;
width = 355;
}
);
leftKerningGroup = asterisk;
rightKerningGroup = asterisk;
unicode = 00B2;
userData = {
com.typemytype.robofont.layerData = {
mask = {
anchors = (
);
components = (
);
contours = (
);
lib = {
};
name = twosuperior;
unicodes = (
);
width = 355;
};
wire = {
anchors = (
);
components = (
);
contours = (
);
lib = {
};
name = twosuperior;
unicodes = (
);
width = 355;
};
};
};
},
{
glyphname = threesuperior;
lastChange = "2016-04-08 02:21:04 +0000";
layers = (
{
layerId = "9609CB55-EFEB-482C-9A6C-237B4D7F8578";
paths = (
{
closed = 1;
nodes = (
"108 528 CURVE SMOOTH",
"280 528 LINE SMOOTH",
"291 528 OFFCURVE",
"300 519 OFFCURVE",
"300 508 CURVE SMOOTH",
"300 497 OFFCURVE",
"291 488 OFFCURVE",
"280 488 CURVE SMOOTH",
"108 488 LINE SMOOTH",
"97 488 OFFCURVE",
"88 497 OFFCURVE",
"88 508 CURVE SMOOTH",
"88 519 OFFCURVE",
"97 528 OFFCURVE"
);
},
{
closed = 1;
nodes = (
"105 282 CURVE SMOOTH",
"127 273 OFFCURVE",
"156 267 OFFCURVE",
"189 267 CURVE SMOOTH",
"237 267 OFFCURVE",
"264 288 OFFCURVE",
"264 319 CURVE SMOOTH",
"264 350 OFFCURVE",
"237 369 OFFCURVE",
"196 369 CURVE SMOOTH",
"171 369 OFFCURVE",
"151 366 OFFCURVE",
"140 362 CURVE SMOOTH",
"130 359 OFFCURVE",
"118 364 OFFCURVE",
"115 375 CURVE SMOOTH",
"112 385 OFFCURVE",
"117 397 OFFCURVE",
"128 400 CURVE SMOOTH",
"141 404 OFFCURVE",
"165 409 OFFCURVE",
"196 409 CURVE SMOOTH",
"271 409 OFFCURVE",
"314 372 OFFCURVE",
"314 319 CURVE SMOOTH",
"314 268 OFFCURVE",
"275 227 OFFCURVE",
"189 227 CURVE SMOOTH",
"150 227 OFFCURVE",
"117 235 OFFCURVE",
"91 244 CURVE SMOOTH",
"81 248 OFFCURVE",
"75 260 OFFCURVE",
"79 270 CURVE SMOOTH",
"83 280 OFFCURVE",
"95 286 OFFCURVE"
);
},
{
closed = 1;
nodes = (
"289 488 CURVE SMOOTH",
"150 367 LINE SMOOTH",
"141 360 OFFCURVE",
"128 362 OFFCURVE",
"121 370 CURVE SMOOTH",
"114 378 OFFCURVE",
"114 391 OFFCURVE",
"122 399 CURVE SMOOTH",
"261 520 LINE SMOOTH",
"270 527 OFFCURVE",
"283 525 OFFCURVE",
"290 517 CURVE SMOOTH",
"297 509 OFFCURVE",
"297 496 OFFCURVE"
);
}
);
width = 382;
},
{
associatedMasterId = "9609CB55-EFEB-482C-9A6C-237B4D7F8578";
layerId = "AC00E578-7319-4236-811E-75AA0385FF0D";
name = wire;
width = 382;
},
{
associatedMasterId = "9609CB55-EFEB-482C-9A6C-237B4D7F8578";
layerId = "95656D2E-D337-43C9-9445-EB51AA7DBA48";
name = mask;
width = 382;
}
);
leftKerningGroup = asterisk;
rightKerningGroup = asterisk;
unicode = 00B3;
userData = {
com.typemytype.robofont.layerData = {
mask = {
anchors = (
);
components = (
);
contours = (
);
lib = {
};
name = threesuperior;
unicodes = (
);
width = 382;
};
wire = {
anchors = (
);
components = (
);
contours = (
);
lib = {
};
name = threesuperior;
unicodes = (
);
width = 382;
};
};
};
},
{
glyphname = acute;
lastChange = "2016-04-08 02:21:04 +0000";
layers = (
{
layerId = "9609CB55-EFEB-482C-9A6C-237B4D7F8578";
paths = (
{
closed = 1;
nodes = (
"303 583 CURVE SMOOTH",
"275 552 OFFCURVE",
"248 520 OFFCURVE",
"222 489 CURVE SMOOTH",
"215 481 OFFCURVE",
"201 481 OFFCURVE",
"193 488 CURVE SMOOTH",
"185 495 OFFCURVE",
"183 508 OFFCURVE",
"190 517 CURVE SMOOTH",
"216 548 OFFCURVE",
"243 580 OFFCURVE",
"271 611 CURVE SMOOTH",
"279 619 OFFCURVE",
"292 619 OFFCURVE",
"300 612 CURVE SMOOTH",
"308 605 OFFCURVE",
"310 591 OFFCURVE"
);
}
);
width = 490;
},
{
associatedMasterId = "9609CB55-EFEB-482C-9A6C-237B4D7F8578";
layerId = "3B8D3946-847D-4E8A-BA81-D1228857D109";
name = wire;
width = 490;
},
{
associatedMasterId = "9609CB55-EFEB-482C-9A6C-237B4D7F8578";
layerId = "DC2F7053-876C-4FD2-BA1B-E87510CF61CD";
name = mask;
width = 490;
}
);
unicode = 00B4;
userData = {
com.typemytype.robofont.layerData = {
mask = {
anchors = (
);
components = (
);
contours = (
);
lib = {
};
name = acute;
unicodes = (
);
width = 490;
};
wire = {
anchors = (
);
components = (
);
contours = (
);
lib = {
};
name = acute;
unicodes = (
);
width = 490;
};
};
};
},
{
glyphname = uni00B5;
lastChange = "2016-04-08 02:35:51 +0000";
layers = (
{
components = (
{
name = u;
transform = "{1, 0, 0, 1, 1, 0}";
}
);
layerId = "9609CB55-EFEB-482C-9A6C-237B4D7F8578";
paths = (
{
closed = 1;
nodes = (
"76 -117 CURVE SMOOTH",
"76 225 LINE SMOOTH",
"76 236 OFFCURVE",
"90 245 OFFCURVE",
"101 245 CURVE SMOOTH",
"112 245 OFFCURVE",
"126 236 OFFCURVE",
"126 225 CURVE SMOOTH",
"126 -117 LINE SMOOTH",
"126 -128 OFFCURVE",
"112 -137 OFFCURVE",
"101 -137 CURVE SMOOTH",
"90 -137 OFFCURVE",
"76 -128 OFFCURVE"
);
}
);
width = 498;
},
{
associatedMasterId = "9609CB55-EFEB-482C-9A6C-237B4D7F8578";
layerId = "DFC078B4-3072-43A8-876A-9848656F31BF";
name = wire;
width = 490;
},
{
associatedMasterId = "9609CB55-EFEB-482C-9A6C-237B4D7F8578";
layerId = "E0CD705F-4508-45EA-8A13-E78C1FF317E3";
name = mask;
width = 490;
}
);
unicode = 00B5;
userData = {
com.typemytype.robofont.layerData = {
mask = {
anchors = (
);
components = (
);
contours = (
);
lib = {
};
name = uni00B5;
unicodes = (
);
width = 490;
};
wire = {
anchors = (
);
components = (
);
contours = (
);
lib = {
};
name = uni00B5;
unicodes = (
);
width = 490;
};
};
};
},
{
glyphname = paragraph;
lastChange = "2016-04-08 02:21:04 +0000";
layers = (
{
layerId = "9609CB55-EFEB-482C-9A6C-237B4D7F8578";
paths = (
{
closed = 1;
nodes = (
"408 23 CURVE SMOOTH",
"408 508 LINE",
"433 488 LINE",
"245 488 LINE SMOOTH",
"157 488 OFFCURVE",
"102 431 OFFCURVE",
"102 354 CURVE SMOOTH",
"102 282 OFFCURVE",
"147 219 OFFCURVE",
"245 219 CURVE SMOOTH",
"301 219 LINE SMOOTH",
"312 219 OFFCURVE",
"321 210 OFFCURVE",
"321 199 CURVE SMOOTH",
"321 188 OFFCURVE",
"312 179 OFFCURVE",
"301 179 CURVE SMOOTH",
"245 179 LINE SMOOTH",
"117 179 OFFCURVE",
"52 256 OFFCURVE",
"52 354 CURVE",
"52 457 OFFCURVE",
"131 528 OFFCURVE",
"245 528 CURVE SMOOTH",
"433 528 LINE SMOOTH",
"447 528 OFFCURVE",
"458 519 OFFCURVE",
"458 508 CURVE SMOOTH",
"458 23 LINE SMOOTH",
"458 12 OFFCURVE",
"444 3 OFFCURVE",
"433 3 CURVE SMOOTH",
"422 3 OFFCURVE",
"408 12 OFFCURVE"
);
},
{
closed = 1;
nodes = (
"276 23 CURVE SMOOTH",
"276 506 LINE SMOOTH",
"276 517 OFFCURVE",
"290 526 OFFCURVE",
"301 526 CURVE SMOOTH",
"312 526 OFFCURVE",
"326 517 OFFCURVE",
"326 506 CURVE SMOOTH",
"326 23 LINE SMOOTH",
"326 12 OFFCURVE",
"312 3 OFFCURVE",
"301 3 CURVE SMOOTH",
"290 3 OFFCURVE",
"276 12 OFFCURVE"
);
}
);
width = 556;
},
{
associatedMasterId = "9609CB55-EFEB-482C-9A6C-237B4D7F8578";
layerId = "BBE14193-1235-4F6A-B4E0-431A360ECDF8";
name = wire;
width = 556;
},
{
associatedMasterId = "9609CB55-EFEB-482C-9A6C-237B4D7F8578";
layerId = "A7205728-C0BF-4F49-ADF0-A13172B3E7E8";
name = mask;
width = 556;
}
);
unicode = 00B6;
userData = {
com.typemytype.robofont.layerData = {
mask = {
anchors = (
);
components = (
);
contours = (
);
lib = {
};
name = paragraph;
unicodes = (
);
width = 556;
};
wire = {
anchors = (
);
components = (
);
contours = (
);
lib = {
};
name = paragraph;
unicodes = (
);
width = 556;
};
};
};
},
{
glyphname = cedilla;
lastChange = "2016-04-08 02:21:04 +0000";
layers = (
{
layerId = "9609CB55-EFEB-482C-9A6C-237B4D7F8578";
paths = (
{
closed = 1;
nodes = (
"308 -98 CURVE SMOOTH",
"282 -124 OFFCURVE",
"231 -175 OFFCURVE",
"208 -198 CURVE SMOOTH",
"200 -205 OFFCURVE",
"186 -205 OFFCURVE",
"179 -197 CURVE SMOOTH",
"171 -190 OFFCURVE",
"171 -176 OFFCURVE",
"178 -168 CURVE SMOOTH",
"201 -145 OFFCURVE",
"252 -94 OFFCURVE",
"280 -68 CURVE SMOOTH",
"287 -61 OFFCURVE",
"301 -61 OFFCURVE",
"308 -69 CURVE SMOOTH",
"316 -77 OFFCURVE",
"316 -90 OFFCURVE"
);
}
);
width = 490;
},
{
associatedMasterId = "9609CB55-EFEB-482C-9A6C-237B4D7F8578";
layerId = "EDDC7E5F-54F1-4AE8-B741-D756A38B06F0";
name = wire;
width = 490;
},
{
associatedMasterId = "9609CB55-EFEB-482C-9A6C-237B4D7F8578";
layerId = "5E9FEABA-B62B-4FC7-88BE-880EFDC183D6";
name = mask;
width = 490;
}
);
unicode = 00B8;
userData = {
com.typemytype.robofont.layerData = {
mask = {
anchors = (
);
components = (
);
contours = (
);
lib = {
};
name = cedilla;
unicodes = (
);
width = 490;
};
wire = {
anchors = (
);
components = (
);
contours = (
);
lib = {
};
name = cedilla;
unicodes = (
);
width = 490;
};
};
};
},
